<svg width="49" height="49" viewBox="0 0 49 49" fill="none" xmlns="http://www.w3.org/2000/svg">
<g opacity="0.5">
<path d="M32.25 12.5C32.25 8.728 32.25 6.844 31.078 5.672C29.906 4.5 28.022 4.5 24.25 4.5C20.478 4.5 18.594 4.5 17.422 5.672C16.25 6.844 16.25 8.728 16.25 12.5M4.25 28.5C4.25 20.958 4.25 17.186 6.594 14.844C8.938 12.502 12.708 12.5 20.25 12.5H28.25C35.792 12.5 39.564 12.5 41.906 14.844C44.248 17.188 44.25 20.958 44.25 28.5C44.25 36.042 44.25 39.814 41.906 42.156C39.562 44.498 35.792 44.5 28.25 44.5H20.25C12.708 44.5 8.936 44.5 6.594 42.156C4.252 39.812 4.25 36.042 4.25 28.5Z" stroke="black" stroke-width="1.5"/>
<path d="M24.25 35.166C26.46 35.166 28.25 33.674 28.25 31.834C28.25 29.994 26.46 28.5 24.25 28.5C22.04 28.5 20.25 27.008 20.25 25.166C20.25 23.326 22.04 21.834 24.25 21.834M24.25 35.166C22.04 35.166 20.25 33.674 20.25 31.834M24.25 35.166V36.5M24.25 21.834V20.5M24.25 21.834C26.46 21.834 28.25 23.326 28.25 25.166" stroke="black" stroke-width="1.5" stroke-linecap="round"/>
</g>
</svg>
