<svg width="365" height="94" viewBox="0 0 365 94" fill="none" xmlns="http://www.w3.org/2000/svg">
<path d="M318.412 74.96C313.131 74.96 308.558 73.9256 304.692 71.8567C300.827 69.7333 297.832 66.7661 295.709 62.955C293.64 59.0894 292.606 54.5433 292.606 49.3167C292.606 44.09 293.64 39.5983 295.709 35.8417C297.778 32.0306 300.718 29.1178 304.529 27.1033C308.34 25.0344 312.805 24 317.922 24C322.931 24 327.232 24.98 330.826 26.94C334.419 28.8456 337.196 31.6222 339.156 35.27C341.116 38.8633 342.096 43.1372 342.096 48.0917V52.3383H304.366C304.801 56.4761 306.217 59.6611 308.612 61.8933C311.062 64.0711 314.302 65.16 318.331 65.16C321.325 65.16 323.748 64.6156 325.599 63.5267C327.505 62.3833 328.838 60.6956 329.601 58.4633H341.851C340.707 63.6356 338.067 67.6917 333.929 70.6317C329.846 73.5172 324.673 74.96 318.412 74.96ZM304.611 44.09H330.417C329.927 40.7144 328.621 38.1556 326.497 36.4133C324.374 34.6167 321.516 33.7183 317.922 33.7183C314.383 33.7183 311.471 34.6167 309.184 36.4133C306.897 38.21 305.373 40.7689 304.611 44.09Z" fill="white"/>
<path d="M235.431 74.8983V38.0667H229.388V25.8983H241.883V33.7383H245.313C247.164 30.9617 249.532 28.8111 252.418 27.2867C255.304 25.7622 258.842 25 263.035 25C269.731 25 274.904 26.8511 278.551 30.5533C282.254 34.2556 284.105 39.1828 284.105 45.335V74.8983H271.936V47.6217C271.936 43.7561 270.902 40.8161 268.833 38.8017C266.819 36.7872 263.797 35.78 259.768 35.78C255.848 35.78 252.826 36.7872 250.703 38.8017C248.634 40.8161 247.6 43.7561 247.6 47.6217V74.8983H235.431Z" fill="white"/>
<path d="M208.428 75.1101V26.1101H220.596V75.1101H208.428Z" fill="white"/>
<path d="M184.119 74.6V6H196.287V74.6H184.119Z" fill="white"/>
<path d="M125.679 75L144.871 49.9283L126.659 26H140.216L151.976 41.435L163.817 26H177.211L158.999 49.9283L178.191 75H164.552L151.894 58.2583L139.154 75H125.679Z" fill="white"/>
<path d="M107.652 75.1101V26.1101H119.821V75.1101H107.652Z" fill="white"/>
<path d="M69.7245 75.49V38.6583H63.6812V26.49H76.0946V35.9633H79.5246C80.8857 32.6967 82.9818 30.2194 85.8129 28.5317C88.644 26.8439 91.8834 26 95.5312 26H99.6145V36.4533H94.9595C90.5495 36.4533 87.2284 37.7328 84.9962 40.2917C82.8184 42.8506 81.7296 46.2533 81.7296 50.5V75.49H69.7245Z" fill="white"/>
<path d="M0.268311 75.15V9H33.67C37.6444 9 41.1016 9.70778 44.0416 11.1233C46.9816 12.4844 49.2683 14.4444 50.9016 17.0033C52.5894 19.5078 53.4333 22.4478 53.4333 25.8233C53.4333 29.2533 52.4805 32.1661 50.575 34.5617C48.6694 36.9028 46.2194 38.5633 43.225 39.5433V39.87C45.675 40.4144 47.9072 41.4217 49.9216 42.8917C51.9905 44.3617 53.6239 46.2128 54.8216 48.445C56.0739 50.6772 56.7 53.3178 56.7 56.3667C56.7 60.1233 55.7744 63.4172 53.9233 66.2483C52.1266 69.025 49.595 71.2028 46.3283 72.7817C43.1161 74.3606 39.3866 75.15 35.14 75.15H0.268311ZM12.7633 64.37H32.8533C36.5011 64.37 39.305 63.5806 41.265 62.0017C43.225 60.3683 44.205 58.0272 44.205 54.9783C44.205 51.9839 43.225 49.7244 41.265 48.2C39.305 46.6211 36.5283 45.8317 32.935 45.8317H12.7633V64.37ZM12.7633 35.8683H31.955C34.8405 35.8683 37.0455 35.1878 38.57 33.8267C40.1489 32.4111 40.9383 30.4239 40.9383 27.865C40.9383 25.1972 40.1489 23.1828 38.57 21.8217C37.0455 20.4606 34.8405 19.78 31.955 19.78H12.7633V35.8683Z" fill="white"/>
<path fill-rule="evenodd" clip-rule="evenodd" d="M365 94L184 94L184 86L365 86L365 94Z" fill="white"/>
<rect x="133.228" width="12" height="21.6495" transform="rotate(62.6409 133.228 0)" fill="white"/>
<rect x="234.228" width="12" height="21.6495" transform="rotate(62.6409 234.228 0)" fill="white"/>
<rect x="351" y="61" width="14" height="14" fill="white"/>
</svg>
