<svg width="56" height="21" viewBox="0 0 56 21" fill="none" xmlns="http://www.w3.org/2000/svg">
<path fill-rule="evenodd" clip-rule="evenodd" d="M52.1824 0H56V4.04863H52.1824V0ZM32.2695 1.15267H28.4519V5.2013H32.2695V1.15267ZM6.94793 4.91313C5.73754 5.03697 4.69333 5.37039 3.80856 5.86099V1.15981H0V13.0985H0.00449123C0.141474 17.652 3.57502 22.1365 9.74821 20.7409C18.6431 18.7309 16.8915 3.89859 6.94793 4.91313ZM5.75551 16.7589C4.03986 15.7992 3.65811 14.0392 3.85347 12.1078C4.20828 8.58072 8.50639 7.36374 10.7363 9.92867C13.568 13.189 10.0693 19.1691 5.75551 16.7589ZM17.6775 20.9719H20.4306L21.4838 19.9907V10.2025H17.6775V20.9719ZM28.4632 5.67761H32.2717V20.9719H28.4632V5.67761ZM17.673 6.81837V9.72624H26.4309V5.68952H18.7329L17.673 6.81837ZM42.8908 10.6929L47.0898 5.52513L51.6312 5.54622L45.171 13.503L51.2395 20.9817L46.6962 20.9981L42.8908 16.3107L39.0854 20.9981L34.5288 20.9934L40.6106 13.5007L34.156 5.54856L38.6442 5.4595L42.8908 10.6929Z" fill="white"/>
</svg>
