<svg width="49" height="49" viewBox="0 0 49 49" fill="none" xmlns="http://www.w3.org/2000/svg">
<g opacity="0.5" clip-path="url(#clip0_27_420)">
<path d="M14.25 8.5C9.85 8.5 6.25 12.1 6.25 16.5C6.25 20.9 9.85 24.5 14.25 24.5C18.65 24.5 22.25 20.9 22.25 16.5C22.25 12.1 18.65 8.5 14.25 8.5ZM14.25 20.5C12.05 20.5 10.25 18.7 10.25 16.5C10.25 14.3 12.05 12.5 14.25 12.5C16.45 12.5 18.25 14.3 18.25 16.5C18.25 18.7 16.45 20.5 14.25 20.5ZM14.25 28.5C6.45 28.5 0.25 32.1 0.25 36.5V40.5H22.25V36.5H4.25C4.25 35.3 7.85 32.5 14.25 32.5C17.85 32.5 20.65 33.5 22.25 34.5V30.1C20.05 29.1 17.25 28.5 14.25 28.5ZM44.25 8.5H30.25C28.05 8.5 26.25 10.3 26.25 12.5V36.5C26.25 38.7 28.05 40.5 30.25 40.5H44.25C46.45 40.5 48.25 38.7 48.25 36.5V12.5C48.25 10.3 46.45 8.5 44.25 8.5ZM32.25 36.5H30.25V12.5H32.25V36.5ZM44.25 36.5H36.25V12.5H44.25V36.5Z" fill="black"/>
</g>
<defs>
<clipPath id="clip0_27_420">
<rect width="48" height="48" fill="white" transform="translate(0.25 0.5)"/>
</clipPath>
</defs>
</svg>
