<svg width="31" height="31" viewBox="0 0 31 31" fill="none" xmlns="http://www.w3.org/2000/svg">
<path d="M21.6794 2.69775H9.01634C5.51953 2.69775 2.68481 5.53247 2.68481 9.02927V21.6923C2.68481 25.1891 5.51953 28.0238 9.01634 28.0238H21.6794C25.1762 28.0238 28.0109 25.1891 28.0109 21.6923V9.02927C28.0109 5.53247 25.1762 2.69775 21.6794 2.69775Z" stroke="black" stroke-width="1.89946" stroke-linecap="round" stroke-linejoin="round"/>
<path d="M20.4132 14.563C20.5695 15.6168 20.3894 16.6932 19.8988 17.6388C19.4081 18.5845 18.6317 19.3514 17.68 19.8304C16.7284 20.3094 15.6499 20.4761 14.598 20.3068C13.5462 20.1376 12.5745 19.6409 11.8211 18.8876C11.0677 18.1342 10.5711 17.1625 10.4019 16.1107C10.2326 15.0588 10.3993 13.9803 10.8783 13.0287C11.3573 12.077 12.1242 11.3006 13.0699 10.8099C14.0155 10.3192 15.0919 10.1392 16.1457 10.2955C17.2207 10.4549 18.216 10.9558 18.9844 11.7243C19.7528 12.4927 20.2538 13.488 20.4132 14.563Z" stroke="black" stroke-width="1.89946" stroke-linecap="round" stroke-linejoin="round"/>
<path d="M22.3126 8.396H22.3252" stroke="black" stroke-width="1.89946" stroke-linecap="round" stroke-linejoin="round"/>
</svg>
