<svg width="62" height="61" viewBox="0 0 62 61" fill="none" xmlns="http://www.w3.org/2000/svg">
<path d="M59.2938 26.8391L30.7862 27.0909C29.9475 23.7302 27.8982 20.7972 25.031 18.8539C22.1638 16.9105 18.6803 16.0935 15.2481 16.5593C11.8158 17.0252 8.67609 18.7411 6.43057 21.3783C4.18504 24.0156 2.9916 27.3887 3.07891 30.8513C3.10247 34.2787 4.37697 37.5794 6.66287 40.1332C8.94877 42.687 12.0887 44.3181 15.4925 44.7198C18.8963 45.1215 22.3296 44.2662 25.1472 42.3147C27.9648 40.3632 29.9727 37.4498 30.7935 34.1221L41.2 34.1221L41.2 41.0093L47.1141 41.0093L47.052 33.9785L52.3253 33.932L52.4184 44.4781L59.449 44.416L59.2938 26.8391ZM24.1663 30.1157C24.1689 30.2072 24.1697 30.2987 24.1687 30.3903C24.1713 30.4818 24.1721 30.5733 24.1711 30.6648C24.1876 32.5295 23.4627 34.3243 22.1558 35.6545C20.8489 36.9847 19.0671 37.7412 17.2025 37.7576C15.3378 37.7741 13.543 37.0492 12.2128 35.7423C10.8826 34.4354 10.1261 32.6537 10.1097 30.789C10.0256 28.9281 10.683 27.1098 11.9375 25.7328C13.1921 24.3558 14.9415 23.5325 16.8021 23.4433C18.6628 23.3542 20.4829 24.0065 21.8633 25.2572C23.2438 26.508 24.072 28.2553 24.1663 30.1157Z" fill="#CA9A4C"/>
</svg>
