<svg width="31" height="31" viewBox="0 0 31 31" fill="none" xmlns="http://www.w3.org/2000/svg">
<path d="M20.7174 10.2954C22.7325 10.2954 24.665 11.0959 26.0899 12.5208C27.5147 13.9456 28.3152 15.8782 28.3152 17.8932V26.7574H23.25V17.8932C23.25 17.2215 22.9832 16.5774 22.5082 16.1024C22.0333 15.6275 21.3891 15.3606 20.7174 15.3606C20.0457 15.3606 19.4015 15.6275 18.9266 16.1024C18.4516 16.5774 18.1848 17.2215 18.1848 17.8932V26.7574H13.1196V17.8932C13.1196 15.8782 13.9201 13.9456 15.3449 12.5208C16.7698 11.0959 18.7023 10.2954 20.7174 10.2954Z" stroke="black" stroke-width="1.89946" stroke-linecap="round" stroke-linejoin="round"/>
<path d="M8.05435 11.562H2.98914V26.7577H8.05435V11.562Z" stroke="black" stroke-width="1.89946" stroke-linecap="round" stroke-linejoin="round"/>
<path d="M5.52174 7.76297C6.92047 7.76297 8.05435 6.62908 8.05435 5.23036C8.05435 3.83164 6.92047 2.69775 5.52174 2.69775C4.12302 2.69775 2.98914 3.83164 2.98914 5.23036C2.98914 6.62908 4.12302 7.76297 5.52174 7.76297Z" stroke="black" stroke-width="1.89946" stroke-linecap="round" stroke-linejoin="round"/>
</svg>
