<svg width="61" height="61" viewBox="0 0 61 61" fill="none" xmlns="http://www.w3.org/2000/svg">
<path d="M39.2925 32.725L43.08 54.04C43.1224 54.291 43.0872 54.5489 42.979 54.7794C42.8709 55.0098 42.695 55.2017 42.4748 55.3295C42.2546 55.4572 42.0007 55.5147 41.747 55.4942C41.4933 55.4738 41.2518 55.3764 41.055 55.215L32.105 48.4975C31.6729 48.1747 31.148 48.0003 30.6087 48.0003C30.0694 48.0003 29.5445 48.1747 29.1125 48.4975L20.1475 55.2125C19.9508 55.3736 19.7096 55.4708 19.4562 55.4913C19.2028 55.5118 18.9491 55.4545 18.7291 55.3271C18.5091 55.1997 18.3332 55.0083 18.2248 54.7783C18.1164 54.5483 18.0807 54.2908 18.1225 54.04L21.9075 32.725" stroke="#CA9A4C" stroke-width="2" stroke-linecap="round" stroke-linejoin="round"/>
<path d="M30.6 35.5C38.8842 35.5 45.6 28.7843 45.6 20.5C45.6 12.2157 38.8842 5.5 30.6 5.5C22.3157 5.5 15.6 12.2157 15.6 20.5C15.6 28.7843 22.3157 35.5 30.6 35.5Z" stroke="#CA9A4C" stroke-width="2" stroke-linecap="round" stroke-linejoin="round"/>
</svg>
