<svg width="28" height="28" viewBox="0 0 28 28" fill="none" xmlns="http://www.w3.org/2000/svg">
<g opacity="0.7">
<path d="M22.75 25.6667C23.2141 25.6667 23.6592 25.4823 23.9874 25.1541C24.3156 24.8259 24.5 24.3808 24.5 23.9167V19.8333C24.5 19.3692 24.3156 18.9241 23.9874 18.5959C23.6592 18.2677 23.2141 18.0833 22.75 18.0833C21.385 18.0833 20.0433 17.8733 18.76 17.4417C18.4532 17.3448 18.1257 17.3339 17.8131 17.4099C17.5004 17.486 17.2146 17.6463 16.9866 17.8733L15.3066 19.5533C12.4043 17.9695 10.0188 15.5841 8.43498 12.6817L10.1033 11.0133C10.5816 10.5583 10.7566 9.88167 10.5466 9.22833C10.1266 7.95667 9.91665 6.615 9.91665 5.25C9.91665 4.78587 9.73227 4.34075 9.40408 4.01256C9.07589 3.68437 8.63077 3.5 8.16665 3.5H4.08331C3.61918 3.5 3.17406 3.68437 2.84588 4.01256C2.51769 4.34075 2.33331 4.78587 2.33331 5.25C2.33331 16.5083 11.4916 25.6667 22.75 25.6667ZM4.08331 4.66667H8.16665C8.32136 4.66667 8.46973 4.72812 8.57912 4.83752C8.68852 4.94692 8.74998 5.09529 8.74998 5.25C8.74998 6.74333 8.98331 8.20167 9.43831 9.59C9.49665 9.75333 9.48498 9.98667 9.29831 10.1733L6.99998 12.46C8.92498 16.2283 11.7483 19.0517 15.5283 21L17.8033 18.7017C17.9666 18.5383 18.1883 18.4917 18.3983 18.55C19.7983 19.0167 21.2566 19.25 22.75 19.25C22.9047 19.25 23.0531 19.3115 23.1625 19.4209C23.2719 19.5303 23.3333 19.6786 23.3333 19.8333V23.9167C23.3333 24.0714 23.2719 24.2197 23.1625 24.3291C23.0531 24.4385 22.9047 24.5 22.75 24.5C12.1333 24.5 3.49998 15.8667 3.49998 5.25C3.49998 5.09529 3.56144 4.94692 3.67083 4.83752C3.78023 4.72812 3.9286 4.66667 4.08331 4.66667Z" fill="black"/>
</g>
</svg>
