<svg width="61" height="61" viewBox="0 0 61 61" fill="none" xmlns="http://www.w3.org/2000/svg">
<path d="M50.4 33C50.4 45.5 41.65 51.75 31.25 55.375C30.7054 55.5596 30.1138 55.5507 29.575 55.35C19.15 51.75 10.4 45.5 10.4 33V15.5C10.4 14.837 10.6634 14.2011 11.1322 13.7323C11.6011 13.2634 12.237 13 12.9 13C17.9 13 24.15 10 28.5 6.20003C29.0296 5.74752 29.7034 5.4989 30.4 5.4989C31.0966 5.4989 31.7704 5.74752 32.3 6.20003C36.675 10.025 42.9 13 47.9 13C48.563 13 49.1989 13.2634 49.6678 13.7323C50.1366 14.2011 50.4 14.837 50.4 15.5V33Z" stroke="#CA9A4C" stroke-width="2" stroke-linecap="round" stroke-linejoin="round"/>
</svg>
