<svg width="33" height="32" viewBox="0 0 33 32" fill="none" xmlns="http://www.w3.org/2000/svg">
<path d="M26.5 29.3333C27.0305 29.3333 27.5392 29.1226 27.9142 28.7475C28.2893 28.3725 28.5 27.8638 28.5 27.3333V22.6667C28.5 22.1362 28.2893 21.6275 27.9142 21.2525C27.5392 20.8774 27.0305 20.6667 26.5 20.6667C24.94 20.6667 23.4067 20.4267 21.94 19.9333C21.5894 19.8227 21.2151 19.8101 20.8578 19.8971C20.5005 19.9841 20.1739 20.1672 19.9134 20.4267L17.9934 22.3467C14.6763 20.5366 11.9501 17.8103 10.14 14.4933L12.0467 12.5867C12.5934 12.0667 12.7934 11.2933 12.5534 10.5467C12.0734 9.09333 11.8334 7.56 11.8334 6C11.8334 5.46957 11.6226 4.96086 11.2476 4.58579C10.8725 4.21071 10.3638 4 9.83335 4H5.16669C4.63625 4 4.12755 4.21071 3.75247 4.58579C3.3774 4.96086 3.16669 5.46957 3.16669 6C3.16669 18.8667 13.6334 29.3333 26.5 29.3333ZM5.16669 5.33333H9.83335C10.0102 5.33333 10.1797 5.40357 10.3048 5.5286C10.4298 5.65362 10.5 5.82319 10.5 6C10.5 7.70667 10.7667 9.37333 11.2867 10.96C11.3534 11.1467 11.34 11.4133 11.1267 11.6267L8.50002 14.24C10.7 18.5467 13.9267 21.7733 18.2467 24L20.8467 21.3733C21.0334 21.1867 21.2867 21.1333 21.5267 21.2C23.1267 21.7333 24.7934 22 26.5 22C26.6768 22 26.8464 22.0702 26.9714 22.1953C27.0965 22.3203 27.1667 22.4899 27.1667 22.6667V27.3333C27.1667 27.5101 27.0965 27.6797 26.9714 27.8047C26.8464 27.9298 26.6768 28 26.5 28C14.3667 28 4.50002 18.1333 4.50002 6C4.50002 5.82319 4.57026 5.65362 4.69528 5.5286C4.82031 5.40357 4.98988 5.33333 5.16669 5.33333Z" fill="black"/>
</svg>
