<svg width="49" height="49" viewBox="0 0 49 49" fill="none" xmlns="http://www.w3.org/2000/svg">
<g opacity="0.5">
<path d="M36.45 40.4L27.6 31.55L31.8 27.35L40.65 36.2C41.2167 36.7666 41.5 37.4666 41.5 38.3C41.5 39.1333 41.2167 39.8333 40.65 40.4C40.0833 40.9666 39.3833 41.25 38.55 41.25C37.7167 41.25 37.0167 40.9666 36.45 40.4ZM8.85001 40.4C8.28334 39.8333 8.00001 39.1333 8.00001 38.3C8.00001 37.4666 8.28334 36.7666 8.85001 36.2L20.55 24.5L17.15 21.1C16.7833 21.4666 16.3167 21.65 15.75 21.65C15.1833 21.65 14.7167 21.4666 14.35 21.1L13.2 19.95V24.45C13.2 24.9166 13 25.2333 12.6 25.4C12.2 25.5666 11.8333 25.4833 11.5 25.15L6.05001 19.7C5.71667 19.3666 5.63334 19 5.80001 18.6C5.96667 18.2 6.28334 18 6.75001 18H11.25L10.15 16.9C9.75001 16.5 9.55001 16.0333 9.55001 15.5C9.55001 14.9666 9.75001 14.5 10.15 14.1L15.85 8.39995C16.5167 7.73329 17.2333 7.24995 18 6.94995C18.7667 6.64995 19.55 6.49995 20.35 6.49995C21.0167 6.49995 21.642 6.59995 22.226 6.79995C22.81 6.99995 23.3847 7.29995 23.95 7.69995C24.2167 7.86662 24.3587 8.09995 24.376 8.39995C24.3933 8.69995 24.2847 8.96662 24.05 9.19995L20.25 13L21.35 14.1C21.7167 14.4666 21.9 14.9333 21.9 15.5C21.9 16.0666 21.7167 16.5333 21.35 16.9L24.75 20.3L29.25 15.8C29.1167 15.4333 29.0087 15.05 28.926 14.65C28.8433 14.25 28.8013 13.85 28.8 13.45C28.8 11.4833 29.4753 9.82462 30.826 8.47395C32.1767 7.12329 33.8347 6.44862 35.8 6.44995C36.0667 6.44995 36.3167 6.45862 36.55 6.47595C36.7833 6.49329 37.0167 6.53462 37.25 6.59995C37.55 6.69995 37.742 6.90862 37.826 7.22595C37.91 7.54329 37.8347 7.81795 37.6 8.04995L34.35 11.3C34.15 11.5 34.05 11.7333 34.05 12C34.05 12.2666 34.15 12.5 34.35 12.7L36.55 14.9C36.75 15.1 36.9833 15.2 37.25 15.2C37.5167 15.2 37.75 15.1 37.95 14.9L41.2 11.65C41.4333 11.4166 41.7087 11.3333 42.026 11.4C42.3433 11.4666 42.5513 11.6666 42.65 12C42.7167 12.2333 42.7587 12.4666 42.776 12.7C42.7933 12.9333 42.8013 13.1833 42.8 13.45C42.8 15.4166 42.1253 17.0746 40.776 18.424C39.4267 19.7733 37.768 20.4486 35.8 20.45C35.4 20.45 35 20.4166 34.6 20.35C34.2 20.2833 33.8167 20.1666 33.45 20L13.05 40.4C12.4833 40.9666 11.7833 41.25 10.95 41.25C10.1167 41.25 9.41667 40.9666 8.85001 40.4Z" fill="black"/>
</g>
</svg>
