<svg width="49" height="49" viewBox="0 0 49 49" fill="none" xmlns="http://www.w3.org/2000/svg">
<g opacity="0.5">
<path fill-rule="evenodd" clip-rule="evenodd" d="M37.042 10.1133L36.922 10.02C36.6913 8.268 35.8527 6.44267 34.5433 4.904C32.4167 2.404 28.95 0.5 24.31 0.5C19.7367 0.5 16.514 2.58533 14.6127 5.17067C13.7252 6.36633 13.0914 7.73066 12.75 9.18C12.688 9.45141 12.6382 9.72547 12.6007 10.0013L12.4567 10.112C10.958 11.2733 9.858 12.6813 10.1193 14.296C10.37 15.856 11.7807 16.8053 13.0927 17.3853C13.4269 17.5329 13.7856 17.6716 14.1687 17.8013C13.9759 19.3044 14.1056 20.8312 14.5491 22.2802C14.9926 23.7292 15.7398 25.0671 16.7408 26.2047C17.7418 27.3423 18.9738 28.2536 20.3546 28.8779C21.7354 29.5021 23.2333 29.825 24.7487 29.825C26.264 29.825 27.762 29.5021 29.1428 28.8779C30.5236 28.2536 31.7555 27.3423 32.7565 26.2047C33.7576 25.0671 34.5047 23.7292 34.9482 22.2802C35.3918 20.8312 35.5214 19.3044 35.3287 17.8013C35.7118 17.6724 36.0704 17.5338 36.4047 17.3853C37.7167 16.8053 39.126 15.856 39.378 14.296C39.6393 12.6813 38.5393 11.2733 37.0407 10.112M15.342 12.0613C15.1687 11.5627 15.1233 10.7613 15.3487 9.77067C15.57 8.804 16.0287 7.744 16.7487 6.76267V10.5C16.7487 10.8536 16.8891 11.1928 17.1392 11.4428C17.3892 11.6929 17.7284 11.8333 18.082 11.8333C18.4356 11.8333 18.7748 11.6929 19.0248 11.4428C19.2749 11.1928 19.4153 10.8536 19.4153 10.5V4.38C20.5127 3.756 21.8393 3.32 23.4153 3.2V7.83333C23.4153 8.18696 23.5558 8.52609 23.8059 8.77614C24.0559 9.02619 24.395 9.16667 24.7487 9.16667C25.1023 9.16667 25.4414 9.02619 25.6915 8.77614C25.9415 8.52609 26.082 8.18696 26.082 7.83333V3.28267C27.49 3.46 28.8492 3.91307 30.082 4.616V10.5C30.082 10.8536 30.2225 11.1928 30.4725 11.4428C30.7226 11.6929 31.0617 11.8333 31.4153 11.8333C31.769 11.8333 32.1081 11.6929 32.3581 11.4428C32.6082 11.1928 32.7487 10.8536 32.7487 10.5V6.924C34.222 8.812 34.5673 10.8493 34.1527 12.072C34.0499 12.3746 34.0593 12.7041 34.1791 13.0003C34.2989 13.2966 34.5211 13.54 34.8052 13.6862C35.0894 13.8324 35.4166 13.8717 35.7273 13.7969C36.038 13.7221 36.3115 13.5382 36.498 13.2787C36.7607 13.6453 36.7513 13.84 36.746 13.8707C36.7287 13.9773 36.5247 14.4173 35.326 14.948C34.806 15.1773 34.1873 15.384 33.4927 15.5667L33.4607 15.5747C32.7073 15.7693 31.8687 15.9347 30.9713 16.0707C29.3071 16.3105 27.6297 16.4485 25.9487 16.484C24.793 16.5133 23.6367 16.5009 22.482 16.4467C21.1539 16.3865 19.8296 16.2601 18.514 16.068C17.6801 15.9472 16.8532 15.7825 16.0367 15.5747L16.0047 15.5667C15.3779 15.4101 14.7648 15.2032 14.1713 14.948C12.9727 14.4173 12.7687 13.9773 12.7513 13.8707C12.746 13.84 12.7367 13.6453 12.9993 13.2787C13.1861 13.5394 13.4606 13.724 13.7725 13.7987C14.0844 13.8734 14.4128 13.8332 14.6974 13.6855C14.9821 13.5377 15.2039 13.2923 15.3223 12.9943C15.4407 12.6962 15.4477 12.3655 15.342 12.0627M16.778 18.4747C17.2216 18.5609 17.6784 18.6396 18.1487 18.7107C19.5727 18.924 21.106 19.06 22.666 19.124C24.0565 19.1813 25.4488 19.1813 26.8393 19.124C28.3913 19.06 29.9193 18.924 31.3367 18.7107C31.8113 18.6413 32.2722 18.5627 32.7193 18.4747C32.8142 19.5789 32.6785 20.6907 32.321 21.7398C31.9635 22.7888 31.3919 23.7521 30.6425 24.5686C29.8932 25.3851 28.9823 26.037 27.9677 26.4829C26.9531 26.9288 25.8569 27.1591 24.7487 27.1591C23.6404 27.1591 22.5442 26.9288 21.5296 26.4829C20.515 26.037 19.6042 25.3851 18.8548 24.5686C18.1054 23.7521 17.5338 22.7888 17.1763 21.7398C16.8188 20.6907 16.6832 19.5789 16.778 18.4747Z" fill="black"/>
<path fill-rule="evenodd" clip-rule="evenodd" d="M31.4167 30.4868C32.294 30.6401 33.1873 30.8188 34.0833 31.0228C41.3407 32.6802 48.75 35.9935 48.75 40.5001V48.5001H0.75V40.5001C0.75 35.9935 8.15933 32.6802 15.4167 31.0228C16.3009 30.8215 17.19 30.6428 18.0833 30.4868V36.5001H31.4167V30.4868ZM12.75 34.4868C13.622 34.2201 14.5167 33.9788 15.4167 33.7615V39.1668H34.0833V33.7628C35.4342 34.0853 36.769 34.4715 38.0833 34.9202V45.8335H40.75V35.9628C41.1376 36.1353 41.51 36.3126 41.8673 36.4948C43.3833 37.2655 44.5073 38.0602 45.2193 38.8202C45.9193 39.5668 46.0833 40.1175 46.0833 40.5001V45.8335H3.41667V40.5001C3.41667 40.1175 3.58067 39.5668 4.28067 38.8202C4.99267 38.0602 6.11667 37.2655 7.63267 36.4948C8.39133 36.1081 9.214 35.7455 10.0833 35.4081V45.8335H12.75V34.4868Z" fill="black"/>
</g>
</svg>
