<svg width="31" height="31" viewBox="0 0 31 31" fill="none" xmlns="http://www.w3.org/2000/svg">
<path d="M3.27454 21.6923C2.38993 17.5177 2.38993 13.204 3.27454 9.0293C3.39077 8.60535 3.61535 8.21896 3.92619 7.90812C4.23703 7.59728 4.62342 7.3727 5.04737 7.25647C11.8391 6.13131 18.7697 6.13131 25.5615 7.25647C25.9854 7.3727 26.3718 7.59728 26.6827 7.90812C26.9935 8.21896 27.2181 8.60535 27.3343 9.0293C28.2189 13.204 28.2189 17.5177 27.3343 21.6923C27.2181 22.1163 26.9935 22.5027 26.6827 22.8135C26.3718 23.1244 25.9854 23.3489 25.5615 23.4652C18.7698 24.5906 11.8391 24.5906 5.04737 23.4652C4.62342 23.3489 4.23703 23.1244 3.92619 22.8135C3.61535 22.5027 3.39077 22.1163 3.27454 21.6923Z" stroke="black" stroke-width="1.89946" stroke-linecap="round" stroke-linejoin="round"/>
<path d="M12.7718 19.1598L19.1033 15.3609L12.7718 11.562V19.1598Z" stroke="black" stroke-width="1.89946" stroke-linecap="round" stroke-linejoin="round"/>
</svg>
