<svg width="32" height="33" viewBox="0 0 32 33" fill="none" xmlns="http://www.w3.org/2000/svg">
<path d="M20 28.5V17.8333C20 17.4797 19.8595 17.1406 19.6095 16.8905C19.3594 16.6405 19.0203 16.5 18.6667 16.5H13.3333C12.9797 16.5 12.6406 16.6405 12.3905 16.8905C12.1405 17.1406 12 17.4797 12 17.8333V28.5" stroke="#F55252" stroke-width="2" stroke-linecap="round" stroke-linejoin="round"/>
<path d="M4 13.8333C3.99991 13.4454 4.08445 13.0622 4.24772 12.7103C4.41099 12.3584 4.64906 12.0464 4.94533 11.796L14.2787 3.79733C14.76 3.39054 15.3698 3.16736 16 3.16736C16.6302 3.16736 17.24 3.39054 17.7213 3.79733L27.0547 11.796C27.3509 12.0464 27.589 12.3584 27.7523 12.7103C27.9156 13.0622 28.0001 13.4454 28 13.8333V25.8333C28 26.5406 27.719 27.2189 27.219 27.7189C26.7189 28.219 26.0406 28.5 25.3333 28.5H6.66667C5.95942 28.5 5.28115 28.219 4.78105 27.7189C4.28095 27.2189 4 26.5406 4 25.8333V13.8333Z" stroke="#F55252" stroke-width="2" stroke-linecap="round" stroke-linejoin="round"/>
</svg>
