<svg width="32" height="32" viewBox="0 0 32 32" fill="none" xmlns="http://www.w3.org/2000/svg">
<path d="M22.1794 3.39014H9.51634C6.01953 3.39014 3.18481 6.22486 3.18481 9.72166V22.3847C3.18481 25.8815 6.01953 28.7162 9.51634 28.7162H22.1794C25.6762 28.7162 28.5109 25.8815 28.5109 22.3847V9.72166C28.5109 6.22486 25.6762 3.39014 22.1794 3.39014Z" stroke="white" stroke-width="1.89946" stroke-linecap="round" stroke-linejoin="round"/>
<path d="M20.9131 15.2553C21.0693 16.3092 20.8893 17.3855 20.3986 18.3312C19.9079 19.2769 19.1316 20.0438 18.1799 20.5228C17.2282 21.0018 16.1498 21.1685 15.0979 20.9992C14.046 20.83 13.0743 20.3333 12.321 19.58C11.5676 18.8266 11.071 17.8549 10.9017 16.803C10.7325 15.7512 10.8992 14.6727 11.3782 13.7211C11.8572 12.7694 12.6241 11.993 13.5697 11.5023C14.5154 11.0116 15.5917 10.8316 16.6456 10.9879C17.7206 11.1473 18.7158 11.6482 19.4843 12.4167C20.2527 13.1851 20.7536 14.1804 20.9131 15.2553Z" stroke="white" stroke-width="1.89946" stroke-linecap="round" stroke-linejoin="round"/>
<path d="M22.8125 9.08838H22.8252" stroke="white" stroke-width="1.89946" stroke-linecap="round" stroke-linejoin="round"/>
</svg>
