<svg width="32" height="32" viewBox="0 0 32 32" fill="none" xmlns="http://www.w3.org/2000/svg">
<path d="M21.2175 10.9878C23.2325 10.9878 25.1651 11.7883 26.5899 13.2131C28.0148 14.638 28.8153 16.5705 28.8153 18.5856V27.4497H23.7501V18.5856C23.7501 17.9139 23.4832 17.2698 23.0083 16.7948C22.5333 16.3198 21.8891 16.053 21.2175 16.053C20.5458 16.053 19.9016 16.3198 19.4266 16.7948C18.9517 17.2698 18.6848 17.9139 18.6848 18.5856V27.4497H13.6196V18.5856C13.6196 16.5705 14.4201 14.638 15.845 13.2131C17.2698 11.7883 19.2024 10.9878 21.2175 10.9878Z" stroke="white" stroke-width="1.89946" stroke-linecap="round" stroke-linejoin="round"/>
<path d="M8.55423 12.2544H3.48901V27.45H8.55423V12.2544Z" stroke="white" stroke-width="1.89946" stroke-linecap="round" stroke-linejoin="round"/>
<path d="M6.02162 8.45535C7.42034 8.45535 8.55423 7.32147 8.55423 5.92275C8.55423 4.52402 7.42034 3.39014 6.02162 3.39014C4.6229 3.39014 3.48901 4.52402 3.48901 5.92275C3.48901 7.32147 4.6229 8.45535 6.02162 8.45535Z" stroke="white" stroke-width="1.89946" stroke-linecap="round" stroke-linejoin="round"/>
</svg>
