<svg width="480" height="92" viewBox="0 0 480 92" fill="none" xmlns="http://www.w3.org/2000/svg">
<path fill-rule="evenodd" clip-rule="evenodd" d="M158 11.821H141V22.821H158V11.821ZM291 11.821H274V22.821H291V11.821Z" fill="#F55252"/>
<path fill-rule="evenodd" clip-rule="evenodd" d="M242.458 90.4681V0H258.506V90.4681H242.458ZM419.561 90.9429C412.596 90.9429 406.565 89.5787 401.467 86.8503C396.37 84.0501 392.421 80.137 389.62 75.111C386.892 70.0132 385.528 64.0179 385.528 57.1251C385.528 50.2323 386.892 44.3088 389.62 39.3546C392.349 34.3285 396.226 30.4872 401.252 27.8306C406.278 25.1022 412.166 23.738 418.915 23.738C425.52 23.738 431.193 25.0304 435.932 27.6152C440.67 30.1282 444.332 33.79 446.917 38.6007C449.502 43.3395 450.794 48.9758 450.794 55.5096V61.11H401.037C401.611 66.5668 403.478 70.7671 406.637 73.7109C409.868 76.5829 414.14 78.0189 419.453 78.0189C423.402 78.0189 426.598 77.3009 429.039 75.8649C431.552 74.3571 433.311 72.1313 434.316 69.1875H450.471C448.963 76.0085 445.481 81.3576 440.024 85.2348C434.639 89.0402 427.818 90.9429 419.561 90.9429ZM401.36 50.2323H435.393C434.747 45.7807 433.024 42.4061 430.223 40.1085C427.423 37.7391 423.654 36.5544 418.915 36.5544C414.248 36.5544 410.407 37.7391 407.391 40.1085C404.375 42.4779 402.365 45.8525 401.36 50.2323ZM310.128 90.8617V42.2889H302.158V26.2416H318.636V36.5808H323.16C325.601 32.919 328.724 30.0829 332.53 28.0725C336.335 26.0621 341.002 25.0569 346.531 25.0569C355.362 25.0569 362.183 27.4981 366.994 32.3805C371.876 37.2629 374.317 43.7608 374.317 51.8742V90.8617H358.27V54.8898C358.27 49.792 356.906 45.9148 354.177 43.2582C351.521 40.6016 347.536 39.2733 342.223 39.2733C337.053 39.2733 333.068 40.6016 330.268 43.2582C327.54 45.9148 326.175 49.792 326.175 54.8898V90.8617H310.128ZM274.516 26.5208V91.1409H290.563V26.5208H274.516ZM190.698 57.9319L165.389 90.9958H183.159L199.96 68.9173L216.654 90.9958H234.64L209.33 57.9319L233.347 26.3757H215.685L200.068 46.7311L184.559 26.3757H166.681L190.698 57.9319ZM141.616 91.1409V26.5208H157.663V91.1409H141.616ZM91.5973 43.0693V91.642H107.429V58.6858C107.429 53.0854 108.865 48.5979 111.737 45.2233C114.681 41.8487 119.061 40.1614 124.877 40.1614H131.016V26.3757H125.631C120.82 26.3757 116.548 27.4886 112.814 29.7144C109.081 31.9402 106.316 35.2071 104.521 39.5151H99.9979V27.0219H83.6274V43.0693H91.5973ZM0 91.1936V3.95642H44.0494C49.2908 3.95642 53.8501 4.88982 57.7273 6.75663C61.6045 8.55163 64.6201 11.1364 66.7741 14.511C68.9999 17.8138 70.1128 21.691 70.1128 26.1427C70.1128 30.6661 68.8563 34.5074 66.3433 37.6666C63.8303 40.754 60.5993 42.9439 56.6503 44.2363V44.6671C59.8813 45.3851 62.8251 46.7134 65.4817 48.652C68.2101 50.5906 70.3641 53.0318 71.9437 55.9756C73.5951 58.9194 74.4208 62.4017 74.4208 66.4225C74.4208 71.3767 73.2002 75.7206 70.759 79.4542C68.3896 83.1161 65.0509 85.9881 60.7429 88.0703C56.5067 90.1525 51.5884 91.1936 45.988 91.1936H0ZM16.4781 76.9771H42.9724C47.783 76.9771 51.4807 75.936 54.0655 73.8538C56.6503 71.6998 57.9427 68.6124 57.9427 64.5916C57.9427 60.6426 56.6503 57.6629 54.0655 55.6525C51.4807 53.5703 47.8189 52.5292 43.0801 52.5292H16.4781V76.9771ZM16.4781 39.3898H41.7877C45.5931 39.3898 48.501 38.4923 50.5114 36.6973C52.5936 34.8305 53.6347 32.2098 53.6347 28.8352C53.6347 25.317 52.5936 22.6604 50.5114 20.8653C48.501 19.0703 45.5931 18.1728 41.7877 18.1728H16.4781V39.3898ZM479.537 77.0874H459.537V91.0874H479.537V77.0874Z" fill="white"/>
</svg>
