<svg width="33" height="32" viewBox="0 0 33 32" fill="none" xmlns="http://www.w3.org/2000/svg">
<g opacity="0.5">
<path d="M15.4668 13.3333V18.6666H20.8001" stroke="white" stroke-width="2" stroke-linecap="round" stroke-linejoin="round"/>
<path d="M15.4668 18.6668L17.5135 16.5268C18.2788 15.7912 19.2088 15.249 20.226 14.9453C21.2432 14.6417 22.3183 14.5853 23.3616 14.7809C24.405 14.9766 25.3866 15.4185 26.2247 16.0701C27.0628 16.7216 27.7332 17.5639 28.1801 18.5268" stroke="white" stroke-width="2" stroke-linecap="round" stroke-linejoin="round"/>
<path d="M22.1333 2.66675V8.00008" stroke="white" stroke-width="2" stroke-linecap="round" stroke-linejoin="round"/>
<path d="M28.8 24L26.7533 26.14C25.988 26.8756 25.058 27.4178 24.0408 27.7214C23.0236 28.0251 21.9485 28.0815 20.9052 27.8858C19.8618 27.6902 18.8802 27.2482 18.0421 26.5967C17.204 25.9452 16.5336 25.1029 16.0867 24.14" stroke="white" stroke-width="2" stroke-linecap="round" stroke-linejoin="round"/>
<path d="M28.8001 29.3333V24H23.4668" stroke="white" stroke-width="2" stroke-linecap="round" stroke-linejoin="round"/>
<path d="M28.8 11.3333V7.99992C28.8 7.29267 28.5191 6.6144 28.019 6.1143C27.5189 5.6142 26.8406 5.33325 26.1334 5.33325H7.46672C6.75947 5.33325 6.08119 5.6142 5.5811 6.1143C5.081 6.6144 4.80005 7.29267 4.80005 7.99992V26.6666C4.80005 27.3738 5.081 28.0521 5.5811 28.5522C6.08119 29.0523 6.75947 29.3333 7.46672 29.3333H13.2" stroke="white" stroke-width="2" stroke-linecap="round" stroke-linejoin="round"/>
<path d="M4.80005 13.3333H10.1334" stroke="white" stroke-width="2" stroke-linecap="round" stroke-linejoin="round"/>
<path d="M11.4668 2.66675V8.00008" stroke="white" stroke-width="2" stroke-linecap="round" stroke-linejoin="round"/>
</g>
</svg>
