<svg width="33" height="32" viewBox="0 0 33 32" fill="none" xmlns="http://www.w3.org/2000/svg">
<g opacity="0.5">
<path d="M16.2 29.3334C23.5638 29.3334 29.5334 23.3639 29.5334 16.0001C29.5334 8.63628 23.5638 2.66675 16.2 2.66675C8.83624 2.66675 2.8667 8.63628 2.8667 16.0001C2.8667 23.3639 8.83624 29.3334 16.2 29.3334Z" stroke="white" stroke-width="2" stroke-linecap="round" stroke-linejoin="round"/>
<path d="M21.5334 10.6667H13.5334C12.8261 10.6667 12.1478 10.9477 11.6477 11.4478C11.1477 11.9479 10.8667 12.6262 10.8667 13.3334C10.8667 14.0407 11.1477 14.7189 11.6477 15.219C12.1478 15.7191 12.8261 16.0001 13.5334 16.0001H18.8667C19.5739 16.0001 20.2522 16.281 20.7523 16.7811C21.2524 17.2812 21.5334 17.9595 21.5334 18.6667C21.5334 19.374 21.2524 20.0523 20.7523 20.5524C20.2522 21.0525 19.5739 21.3334 18.8667 21.3334H10.8667" stroke="white" stroke-width="2" stroke-linecap="round" stroke-linejoin="round"/>
<path d="M16.2 24V8" stroke="white" stroke-width="2" stroke-linecap="round" stroke-linejoin="round"/>
</g>
</svg>
