<svg width="33" height="32" viewBox="0 0 33 32" fill="none" xmlns="http://www.w3.org/2000/svg">
<g opacity="0.5">
<path d="M21.236 17.1868L23.256 28.5548C23.2786 28.6886 23.2599 28.8262 23.2022 28.9491C23.1445 29.072 23.0507 29.1744 22.9333 29.2425C22.8158 29.3106 22.6804 29.3413 22.5451 29.3304C22.4098 29.3195 22.281 29.2675 22.176 29.1814L17.4027 25.5988C17.1722 25.4266 16.8923 25.3336 16.6047 25.3336C16.317 25.3336 16.0371 25.4266 15.8067 25.5988L11.0253 29.1801C10.9204 29.266 10.7918 29.3179 10.6567 29.3288C10.5215 29.3398 10.3862 29.3092 10.2689 29.2413C10.1515 29.1733 10.0577 29.0712 9.9999 28.9485C9.94209 28.8259 9.92306 28.6885 9.94534 28.5548L11.964 17.1868" stroke="white" stroke-width="2" stroke-linecap="round" stroke-linejoin="round"/>
<path d="M16.6001 18.6667C21.0184 18.6667 24.6001 15.085 24.6001 10.6667C24.6001 6.24847 21.0184 2.66675 16.6001 2.66675C12.1818 2.66675 8.6001 6.24847 8.6001 10.6667C8.6001 15.085 12.1818 18.6667 16.6001 18.6667Z" stroke="white" stroke-width="2" stroke-linecap="round" stroke-linejoin="round"/>
</g>
</svg>
