<svg width="33" height="32" viewBox="0 0 33 32" fill="none" xmlns="http://www.w3.org/2000/svg">
<g opacity="0.5">
<path d="M27.0667 17.3333C27.0667 23.9999 22.4001 27.3333 16.8534 29.2666C16.5629 29.365 16.2474 29.3603 15.9601 29.2533C10.4001 27.3333 5.7334 23.9999 5.7334 17.3333V7.99995C5.7334 7.64633 5.87387 7.30719 6.12392 7.05714C6.37397 6.80709 6.71311 6.66662 7.06673 6.66662C9.7334 6.66662 13.0667 5.06662 15.3867 3.03995C15.6692 2.79861 16.0285 2.66602 16.4001 2.66602C16.7716 2.66602 17.1309 2.79861 17.4134 3.03995C19.7467 5.07995 23.0667 6.66662 25.7334 6.66662C26.087 6.66662 26.4262 6.80709 26.6762 7.05714C26.9263 7.30719 27.0667 7.64633 27.0667 7.99995V17.3333Z" stroke="white" stroke-width="2" stroke-linecap="round" stroke-linejoin="round"/>
</g>
</svg>
