<svg width="150" height="150" viewBox="0 0 150 150" fill="none" xmlns="http://www.w3.org/2000/svg">
<rect width="150" height="150" rx="75" fill="#CA9A4C"/>
<g clip-path="url(#clip0_40_192)">
<path d="M15.9201 67.99C15.7601 68.19 15.5701 68.33 15.3401 68.43C15.1001 68.52 14.8501 68.55 14.5801 68.52C14.3101 68.48 14.0801 68.39 13.8701 68.24C13.6701 68.09 13.5201 67.9 13.4301 67.66C13.3401 67.43 13.3101 67.18 13.3401 66.92C13.3801 66.65 13.4701 66.42 13.6201 66.21C13.7701 66.01 13.9701 65.86 14.2001 65.76C14.4301 65.66 14.6901 65.63 14.9601 65.67C15.2301 65.71 15.4701 65.8 15.6701 65.96C15.8701 66.12 16.0201 66.31 16.1201 66.55C16.2201 66.78 16.2501 67.04 16.2101 67.31C16.1701 67.58 16.0801 67.81 15.9201 68.01V67.99Z" fill="white"/>
<path d="M11 57.61L11.51 56.15L18.93 55.77L13.35 50.9L13.86 49.44L21.79 52.21L21.41 53.29L16.92 51.72C16.27 51.49 15.65 51.26 15.06 51.02C15.58 51.39 16.11 51.79 16.64 52.23L20.54 55.75L20.18 56.79L14.88 57.15C14.19 57.16 13.53 57.15 12.89 57.13C13.5 57.31 14.13 57.51 14.79 57.74L19.3 59.31L18.93 60.37L11 57.6L11 57.61Z" fill="white"/>
<path d="M23.2099 48.51C22.5499 48.89 21.8399 49.08 21.0699 49.08C20.2999 49.08 19.5699 48.88 18.8699 48.48C18.1699 48.08 17.6299 47.56 17.2499 46.9C16.8699 46.24 16.6699 45.53 16.6599 44.77C16.6599 44.01 16.8399 43.28 17.2299 42.6C17.6199 41.91 18.1499 41.38 18.8099 41C19.4699 40.62 20.1799 40.43 20.9399 40.43C21.6999 40.43 22.4299 40.62 23.1199 41.02C23.8199 41.42 24.3699 41.95 24.7599 42.61C25.1499 43.27 25.3499 43.98 25.3599 44.74C25.3599 45.5 25.1799 46.22 24.7899 46.91C24.3999 47.6 23.8699 48.13 23.2099 48.51ZM24.2399 44.79C24.2199 44.24 24.0599 43.72 23.7599 43.24C23.4599 42.76 23.0499 42.36 22.5299 42.07C22.0199 41.78 21.4799 41.63 20.9099 41.62C20.3399 41.62 19.8199 41.74 19.3299 42.01C18.8399 42.28 18.4599 42.66 18.1799 43.16C17.8899 43.66 17.7599 44.19 17.7799 44.74C17.7999 45.29 17.9499 45.81 18.2499 46.3C18.5399 46.79 18.9499 47.17 19.4599 47.47C19.9799 47.77 20.5299 47.92 21.0999 47.93C21.6699 47.93 22.1999 47.81 22.6899 47.53C23.1799 47.26 23.5599 46.88 23.8399 46.38C24.1299 45.88 24.2599 45.35 24.2399 44.8V44.79Z" fill="white"/>
<path d="M28.9499 36.9C28.4299 36.55 27.8999 36.16 27.3599 35.72L24.0299 33.07L24.7399 32.18L31.3099 37.41L30.6599 38.23L25.4999 37.28C24.8199 37.14 24.1799 36.98 23.5799 36.81C24.0999 37.17 24.6299 37.57 25.1799 38L28.6499 40.77L27.9499 41.65L21.3799 36.42L22.0899 35.53L27.0399 36.45C27.7199 36.59 28.3599 36.74 28.9699 36.92L28.9499 36.9Z" fill="white"/>
<path d="M26.53 30.19L30.28 26.51L31.04 27.29L29.57 28.73L34.69 33.95L33.87 34.76L28.75 29.54L27.29 30.98L26.53 30.2V30.19Z" fill="white"/>
<path d="M32.31 24.74L33.23 24.03L35.3601 26.82L37.8701 24.91L35.74 22.11L36.66 21.41L41.76 28.09L40.84 28.79L38.55 25.78L36.0401 27.7L38.33 30.7L37.4 31.41L32.3 24.73L32.31 24.74Z" fill="white"/>
<path d="M44.38 26.2101C43.91 26.2101 43.47 26.0801 43.06 25.8301C42.65 25.5801 42.31 25.2201 42.04 24.7501L43.04 24.1701C43.21 24.4601 43.41 24.6901 43.65 24.8401C43.89 25.0001 44.14 25.0801 44.41 25.0901C44.68 25.1001 44.94 25.0301 45.19 24.8901C45.43 24.7501 45.61 24.5801 45.74 24.3701C45.87 24.1601 45.93 23.9401 45.93 23.7001C45.93 23.4601 45.86 23.2301 45.73 23.0001C45.57 22.7201 45.37 22.5301 45.15 22.4301C44.92 22.3401 44.69 22.3001 44.45 22.3301C44.21 22.3601 43.9 22.4201 43.51 22.5101C43.02 22.6401 42.61 22.7201 42.27 22.7401C41.93 22.7601 41.59 22.7001 41.25 22.5401C40.91 22.3801 40.6 22.0701 40.33 21.5901C40.11 21.2001 40 20.8001 40 20.3901C40 19.9801 40.12 19.5901 40.34 19.2401C40.57 18.8901 40.88 18.5901 41.28 18.3601C41.71 18.1101 42.14 17.9901 42.58 17.9901C43.02 17.9901 43.42 18.1101 43.79 18.3501C44.16 18.5801 44.47 18.9101 44.71 19.3401L43.71 19.9201C43.49 19.5501 43.2 19.3101 42.84 19.2001C42.48 19.0901 42.14 19.1301 41.8 19.3201C41.59 19.4401 41.43 19.5901 41.31 19.7801C41.19 19.9701 41.13 20.1701 41.13 20.3901C41.13 20.6101 41.19 20.8201 41.3 21.0201C41.45 21.2801 41.63 21.4501 41.84 21.5301C42.05 21.6201 42.27 21.6401 42.5 21.6101C42.73 21.5801 43.03 21.5201 43.4 21.4201C43.9 21.2901 44.32 21.2101 44.66 21.1801C45 21.1501 45.35 21.2201 45.72 21.4001C46.08 21.5801 46.41 21.9201 46.72 22.4301C46.96 22.8401 47.07 23.2601 47.07 23.6901C47.07 24.1201 46.95 24.5301 46.71 24.9001C46.47 25.2701 46.14 25.5901 45.72 25.8301C45.28 26.0801 44.83 26.2101 44.36 26.2001L44.38 26.2101Z" fill="white"/>
<path d="M53.7601 12.92L54.1401 13.95L51.3201 14.98L52.1201 17.18L54.5701 16.29L54.9301 17.28L52.4801 18.17L53.4501 20.82L56.2701 19.79L56.6401 20.82L52.7301 22.25L49.8501 14.36L53.7601 12.93V12.92Z" fill="white"/>
<path d="M59.6701 16.05L59.1501 15.82L56.0601 12.2L57.3101 11.9L59.7601 14.89L60.2901 15.14L63.5301 19.04L62.2801 19.34L59.6701 16.06V16.05ZM59.0501 15.44L59.4601 14.96L60.2201 11.2L61.3901 10.92L60.3801 15.53L59.9401 16L59.0401 20.13L57.8401 20.42L59.0601 15.45L59.0501 15.44Z" fill="white"/>
<path d="M64.23 10.43L66.51 10.16C67.02 10.1 67.48 10.14 67.9 10.29C68.32 10.44 68.65 10.68 68.91 11C69.17 11.33 69.32 11.72 69.38 12.18C69.44 12.66 69.38 13.11 69.21 13.51C69.04 13.91 68.78 14.25 68.41 14.51C68.05 14.78 67.61 14.94 67.12 15L65.98 15.14L66.4 18.63L65.24 18.77L64.24 10.43H64.23ZM67.67 13.67C67.88 13.52 68.04 13.34 68.13 13.12C68.22 12.9 68.25 12.65 68.22 12.37C68.17 11.97 68 11.67 67.7 11.47C67.4 11.26 67.03 11.19 66.57 11.24L65.51 11.37L65.84 14.07L66.9 13.94C67.2 13.9 67.46 13.81 67.67 13.67Z" fill="white"/>
<path d="M71.79 9.71002H74.12C74.63 9.71002 75.09 9.81002 75.48 10.01C75.88 10.21 76.18 10.48 76.4 10.82C76.62 11.16 76.73 11.54 76.73 11.96C76.73 12.42 76.62 12.83 76.39 13.18C76.17 13.53 75.86 13.8 75.46 14C75.06 14.19 74.61 14.29 74.11 14.29L74.18 13.67C74.72 13.67 75.17 13.76 75.55 13.95C75.93 14.14 76.22 14.39 76.41 14.73C76.61 15.07 76.7 15.46 76.7 15.92V18.13H75.53V16.05C75.53 15.55 75.4 15.17 75.13 14.93C74.86 14.69 74.47 14.56 73.95 14.56H72.92V18.12H71.77V9.72002L71.79 9.71002ZM74.84 13.34C75.07 13.22 75.24 13.06 75.37 12.85C75.49 12.64 75.56 12.4 75.56 12.12C75.56 11.72 75.42 11.4 75.15 11.15C74.88 10.91 74.51 10.78 74.05 10.78H72.95V13.5H74.05C74.35 13.5 74.62 13.44 74.85 13.33L74.84 13.34Z" fill="white"/>
<path d="M84.0199 10.43L83.8899 11.51L80.9099 11.16L80.6299 13.48L83.2199 13.79L83.0999 14.84L80.5199 14.53L80.1899 17.33L83.1699 17.68L83.0399 18.76L78.9099 18.27L79.8999 9.92999L84.0299 10.42L84.0199 10.43Z" fill="white"/>
<path d="M85.8801 19.12C85.5401 18.8 85.3101 18.4 85.1801 17.94C85.0601 17.47 85.0601 16.98 85.1801 16.46L86.3001 16.72C86.2201 17.05 86.2201 17.35 86.2801 17.63C86.3401 17.91 86.4701 18.14 86.6601 18.34C86.8501 18.53 87.0801 18.66 87.3601 18.73C87.6301 18.79 87.8801 18.79 88.1101 18.73C88.3501 18.67 88.5501 18.55 88.7101 18.37C88.8701 18.2 88.9901 17.98 89.0501 17.72C89.1301 17.4 89.1101 17.13 89.0101 16.9C88.9101 16.68 88.7601 16.49 88.5701 16.35C88.3701 16.21 88.1101 16.04 87.7701 15.84C87.3201 15.6 86.9701 15.38 86.7101 15.16C86.4501 14.95 86.2501 14.66 86.1101 14.32C85.9701 13.97 85.9601 13.53 86.0901 13C86.1901 12.56 86.3901 12.2 86.6701 11.9C86.9601 11.6 87.3001 11.4 87.7101 11.3C88.1201 11.19 88.5501 11.2 89.0001 11.3C89.4801 11.41 89.8801 11.62 90.2001 11.92C90.5201 12.22 90.7301 12.58 90.8401 13.01C90.9501 13.43 90.9501 13.88 90.8401 14.36L89.7201 14.09C89.8101 13.67 89.7701 13.29 89.5901 12.97C89.4101 12.64 89.1301 12.43 88.7501 12.35C88.5201 12.29 88.2901 12.29 88.0801 12.35C87.8701 12.41 87.6801 12.51 87.5401 12.67C87.3901 12.83 87.2901 13.02 87.2401 13.25C87.1701 13.54 87.1901 13.79 87.2801 13.99C87.3701 14.19 87.5201 14.37 87.7101 14.5C87.9001 14.64 88.1601 14.8 88.5001 14.98C88.9501 15.23 89.3101 15.46 89.5801 15.67C89.8501 15.88 90.0501 16.18 90.2001 16.56C90.3401 16.94 90.3501 17.42 90.2201 18C90.1101 18.46 89.9101 18.84 89.6101 19.16C89.3101 19.47 88.9401 19.68 88.5201 19.79C88.0901 19.9 87.6401 19.9 87.1601 19.79C86.6701 19.67 86.2501 19.45 85.9201 19.13L85.8801 19.12Z" fill="white"/>
<path d="M92.4 20.92C92.1 20.56 91.92 20.14 91.85 19.66C91.78 19.18 91.84 18.69 92.02 18.19L93.1 18.59C92.98 18.91 92.94 19.21 92.98 19.49C93.01 19.77 93.11 20.02 93.27 20.24C93.43 20.45 93.65 20.61 93.92 20.71C94.17 20.8 94.42 20.83 94.67 20.8C94.91 20.76 95.13 20.67 95.31 20.52C95.49 20.37 95.63 20.17 95.72 19.92C95.83 19.61 95.85 19.34 95.78 19.11C95.71 18.87 95.58 18.67 95.41 18.51C95.23 18.34 94.99 18.14 94.67 17.91C94.26 17.62 93.93 17.36 93.7 17.11C93.47 16.87 93.3 16.56 93.2 16.2C93.1 15.84 93.15 15.4 93.33 14.89C93.48 14.47 93.72 14.13 94.04 13.86C94.36 13.6 94.72 13.44 95.14 13.38C95.56 13.32 95.98 13.38 96.42 13.53C96.89 13.7 97.26 13.95 97.53 14.29C97.81 14.63 97.98 15.01 98.03 15.45C98.09 15.88 98.03 16.33 97.87 16.79L96.79 16.39C96.93 15.98 96.93 15.6 96.79 15.26C96.65 14.91 96.39 14.67 96.02 14.54C95.79 14.46 95.57 14.43 95.35 14.46C95.13 14.49 94.94 14.58 94.77 14.71C94.6 14.85 94.48 15.03 94.4 15.25C94.3 15.53 94.28 15.78 94.35 15.99C94.42 16.2 94.54 16.39 94.71 16.55C94.88 16.71 95.12 16.9 95.43 17.12C95.85 17.42 96.18 17.69 96.42 17.93C96.66 18.17 96.83 18.49 96.93 18.88C97.02 19.27 96.97 19.75 96.78 20.31C96.62 20.75 96.37 21.11 96.03 21.39C95.7 21.66 95.31 21.83 94.87 21.89C94.43 21.95 93.98 21.89 93.52 21.73C93.05 21.56 92.66 21.29 92.36 20.93L92.4 20.92Z" fill="white"/>
<path d="M108.98 20.46C109.33 21.1 109.5 21.78 109.48 22.5C109.46 23.23 109.25 23.93 108.84 24.61C108.42 25.29 107.9 25.82 107.26 26.18C106.62 26.54 105.93 26.72 105.2 26.71C104.47 26.7 103.77 26.49 103.1 26.08L100.81 24.69L105.16 17.51L107.45 18.9C108.12 19.31 108.63 19.83 108.99 20.46H108.98ZM105.2 25.6C105.72 25.6 106.22 25.45 106.68 25.17C107.14 24.89 107.53 24.5 107.83 24C108.13 23.51 108.29 23 108.32 22.46C108.35 21.93 108.24 21.44 108.01 20.98C107.77 20.52 107.42 20.15 106.95 19.87L105.59 19.05L102.37 24.37L103.72 25.19C104.19 25.47 104.68 25.61 105.2 25.6Z" fill="white"/>
<path d="M116.66 25.48L115.98 26.33L113.64 24.46L112.18 26.29L114.21 27.92L113.55 28.74L111.52 27.11L109.76 29.31L112.1 31.18L111.42 32.03L108.17 29.43L113.42 22.87L116.67 25.47L116.66 25.48Z" fill="white"/>
<path d="M119.6 28.22L114.46 33.42L116.59 35.53L115.82 36.31L112.86 33.38L118.77 27.41L119.6 28.23V28.22Z" fill="white"/>
<path d="M124.09 33.04L117.71 38.5L116.95 37.62L123.33 32.16L124.09 33.04Z" fill="white"/>
<path d="M120.38 41.96L125.66 34.85L126.36 35.85L122.12 41.53L128.88 39.46L129.55 40.42L121.05 42.92L120.37 41.95L120.38 41.96Z" fill="white"/>
<path d="M132.77 46.34L131.81 46.85L130.4 44.2L128.33 45.3L129.55 47.6L128.62 48.1L127.4 45.8L124.91 47.12L126.32 49.77L125.36 50.28L123.41 46.6L130.83 42.66L132.78 46.34H132.77Z" fill="white"/>
<path d="M134 49L134.85 51.17C135.04 51.65 135.11 52.11 135.07 52.55C135.03 52.99 134.89 53.37 134.65 53.7C134.41 54.03 134.1 54.27 133.71 54.42C133.28 54.59 132.86 54.63 132.45 54.55C132.04 54.47 131.67 54.28 131.35 53.98C131.03 53.68 130.77 53.3 130.59 52.83L131.2 52.67C131.39 53.17 131.48 53.63 131.44 54.05C131.41 54.47 131.27 54.83 131.03 55.14C130.79 55.44 130.45 55.68 130.03 55.84L127.97 56.64L127.55 55.56L129.48 54.81C129.95 54.63 130.25 54.37 130.38 54.03C130.51 53.69 130.48 53.28 130.29 52.8L129.91 51.84L126.59 53.14L126.17 52.07L134 49.02V49ZM131.72 53.16C131.91 53.33 132.13 53.44 132.37 53.48C132.61 53.52 132.86 53.48 133.12 53.39C133.49 53.24 133.74 53 133.87 52.65C134 52.3 133.98 51.92 133.81 51.49L133.41 50.46L130.87 51.45L131.27 52.48C131.38 52.76 131.53 52.99 131.72 53.16Z" fill="white"/>
<path d="M136.73 56.72L133.7 59.41L137.67 60.14L138.01 61.35L132.62 60.3L129.27 61.23L128.96 60.11L132.31 59.18L136.39 55.49L136.73 56.72Z" fill="white"/>
<path d="M132.31 68.79C132.42 68.56 132.57 68.38 132.78 68.23C132.99 68.09 133.23 68 133.5 67.98C133.77 67.95 134.02 67.99 134.25 68.1C134.48 68.2 134.67 68.36 134.81 68.56C134.95 68.77 135.04 69 135.06 69.27C135.09 69.54 135.05 69.79 134.94 70.02C134.84 70.25 134.68 70.44 134.47 70.59C134.26 70.74 134.02 70.83 133.75 70.85C133.48 70.87 133.23 70.83 133 70.73C132.77 70.62 132.58 70.47 132.43 70.26C132.28 70.05 132.19 69.81 132.17 69.54C132.14 69.27 132.19 69.02 132.29 68.79H132.31Z" fill="white"/>
<path d="M126.27 98.15C126.66 97.88 127.09 97.74 127.57 97.71C128.05 97.68 128.53 97.79 129.02 98.01L128.53 99.05C128.23 98.91 127.93 98.84 127.64 98.85C127.35 98.85 127.1 98.93 126.87 99.08C126.64 99.23 126.47 99.43 126.34 99.69C126.22 99.94 126.17 100.18 126.19 100.43C126.2 100.67 126.28 100.9 126.42 101.09C126.56 101.29 126.75 101.44 126.98 101.55C127.28 101.69 127.54 101.73 127.78 101.68C128.02 101.63 128.23 101.52 128.41 101.36C128.59 101.2 128.81 100.97 129.08 100.68C129.4 100.29 129.7 99.99 129.96 99.78C130.22 99.57 130.54 99.43 130.91 99.37C131.28 99.31 131.71 99.39 132.2 99.62C132.61 99.81 132.92 100.08 133.16 100.42C133.39 100.76 133.52 101.14 133.54 101.56C133.56 101.98 133.47 102.4 133.27 102.82C133.06 103.27 132.77 103.62 132.41 103.86C132.05 104.11 131.65 104.24 131.21 104.26C130.77 104.28 130.33 104.19 129.89 103.98L130.38 102.94C130.77 103.12 131.15 103.15 131.51 103.04C131.87 102.93 132.13 102.7 132.3 102.34C132.4 102.12 132.45 101.9 132.44 101.68C132.44 101.46 132.36 101.26 132.24 101.08C132.12 100.9 131.95 100.76 131.74 100.66C131.47 100.53 131.23 100.5 131 100.55C130.77 100.6 130.58 100.7 130.41 100.86C130.24 101.02 130.03 101.24 129.78 101.53C129.45 101.92 129.15 102.23 128.88 102.45C128.62 102.67 128.29 102.81 127.89 102.87C127.49 102.93 127.02 102.84 126.48 102.59C126.05 102.39 125.72 102.11 125.47 101.75C125.23 101.39 125.09 100.99 125.07 100.55C125.05 100.11 125.14 99.66 125.35 99.22C125.56 98.76 125.86 98.4 126.25 98.14L126.27 98.15Z" fill="white"/>
<path d="M131.11 106.85L128.37 111.33L127.44 110.76L128.51 109.01L122.27 105.2L122.87 104.22L129.11 108.03L130.18 106.28L131.11 106.85Z" fill="white"/>
<path d="M126.86 113.49L125.42 115.32C125.1 115.72 124.75 116.02 124.35 116.21C123.95 116.4 123.55 116.48 123.14 116.44C122.73 116.4 122.37 116.25 122.04 115.99C121.67 115.7 121.42 115.36 121.28 114.97C121.14 114.58 121.12 114.16 121.21 113.73C121.3 113.3 121.51 112.89 121.82 112.49L122.27 112.93C121.94 113.35 121.58 113.65 121.2 113.84C120.82 114.02 120.44 114.09 120.05 114.04C119.66 113.99 119.29 113.82 118.93 113.54L117.19 112.18L117.91 111.26L119.54 112.54C119.94 112.85 120.31 112.98 120.67 112.92C121.03 112.86 121.37 112.63 121.69 112.22L122.33 111.41L119.53 109.21L120.24 108.3L126.84 113.49H126.86ZM122.11 113.65C122.06 113.9 122.08 114.14 122.17 114.36C122.26 114.59 122.41 114.79 122.63 114.96C122.94 115.21 123.28 115.3 123.65 115.23C124.01 115.16 124.33 114.95 124.61 114.59L125.29 113.72L123.15 112.04L122.47 112.91C122.28 113.15 122.16 113.39 122.11 113.65Z" fill="white"/>
<path d="M115.03 114.82C115.5 114.7 115.98 114.72 116.46 114.88C116.94 115.04 117.39 115.33 117.8 115.76L121.69 119.74L120.86 120.55L116.95 116.55C116.69 116.29 116.42 116.1 116.12 115.99C115.83 115.88 115.54 115.86 115.26 115.92C114.98 115.98 114.72 116.13 114.49 116.35C114.14 116.7 113.97 117.09 114 117.54C114.03 117.99 114.24 118.41 114.63 118.81L118.54 122.81L117.71 123.62L113.82 119.64C113.41 119.22 113.12 118.76 112.97 118.28C112.82 117.8 112.81 117.32 112.94 116.85C113.07 116.38 113.34 115.95 113.73 115.56C114.12 115.17 114.56 114.92 115.03 114.8V114.82Z" fill="white"/>
<path d="M109.08 120.41C109.83 120.35 110.55 120.48 111.23 120.8C111.92 121.12 112.5 121.62 112.97 122.28C113.44 122.93 113.71 123.63 113.8 124.39C113.89 125.14 113.78 125.86 113.47 126.55C113.16 127.23 112.69 127.8 112.05 128.26C111.53 128.63 110.97 128.88 110.37 129C109.77 129.12 109.19 129.1 108.63 128.94C108.07 128.78 107.58 128.49 107.16 128.08L108.17 127.35C108.47 127.59 108.81 127.75 109.18 127.84C109.56 127.93 109.94 127.93 110.33 127.85C110.72 127.77 111.08 127.61 111.41 127.37C111.87 127.04 112.21 126.63 112.42 126.13C112.63 125.63 112.7 125.11 112.63 124.55C112.56 123.99 112.35 123.47 112 122.98C111.64 122.48 111.21 122.1 110.7 121.85C110.19 121.6 109.67 121.49 109.13 121.53C108.59 121.57 108.09 121.75 107.63 122.08C107.3 122.32 107.03 122.61 106.83 122.96C106.63 123.31 106.51 123.69 106.49 124.08C106.47 124.47 106.52 124.86 106.68 125.22L105.65 125.96C105.39 125.41 105.27 124.83 105.3 124.23C105.33 123.63 105.48 123.07 105.78 122.53C106.08 121.99 106.49 121.54 107.01 121.17C107.65 120.71 108.34 120.45 109.09 120.39L109.08 120.41Z" fill="white"/>
<path d="M107.22 131.26L102.61 133.79L102.08 132.83L103.88 131.84L100.37 125.43L101.38 124.88L104.89 131.29L106.69 130.3L107.21 131.26H107.22Z" fill="white"/>
<path d="M96.0001 127.73C96.4801 127.81 96.9101 128.01 97.2901 128.35C97.6701 128.69 97.9701 129.13 98.1801 129.68L100.19 134.87L99.1001 135.29L97.0801 130.08C96.9501 129.74 96.7701 129.46 96.5401 129.24C96.3101 129.02 96.0601 128.89 95.7701 128.84C95.4801 128.79 95.1901 128.82 94.8901 128.94C94.4301 129.12 94.1201 129.42 93.9701 129.84C93.8201 130.26 93.8501 130.74 94.0501 131.26L96.0701 136.47L94.9901 136.89L92.9801 131.7C92.7701 131.15 92.6801 130.62 92.7301 130.12C92.7801 129.62 92.9601 129.17 93.2701 128.79C93.5801 128.41 93.9901 128.12 94.5001 127.92C95.0101 127.72 95.5101 127.66 95.9901 127.73H96.0001Z" fill="white"/>
<path d="M91.78 137.88L89.52 138.43C89.02 138.55 88.56 138.56 88.13 138.47C87.7 138.37 87.34 138.18 87.04 137.9C86.75 137.62 86.55 137.27 86.45 136.87C86.34 136.42 86.35 136 86.49 135.6C86.62 135.2 86.86 134.87 87.2 134.59C87.54 134.31 87.95 134.11 88.44 133.99L88.52 134.61C88 134.74 87.53 134.76 87.12 134.67C86.71 134.58 86.37 134.4 86.1 134.12C85.83 133.84 85.64 133.48 85.53 133.04L85.01 130.89L86.14 130.61L86.63 132.63C86.75 133.12 86.97 133.45 87.29 133.62C87.61 133.79 88.02 133.82 88.53 133.7L89.53 133.46L88.69 130L89.81 129.73L91.8 137.89L91.78 137.88ZM87.96 135.07C87.77 135.24 87.63 135.44 87.56 135.67C87.49 135.9 87.49 136.15 87.56 136.43C87.65 136.82 87.86 137.1 88.19 137.27C88.52 137.44 88.9 137.47 89.34 137.37L90.41 137.11L89.77 134.46L88.7 134.72C88.4 134.79 88.16 134.91 87.97 135.08L87.96 135.07Z" fill="white"/>
<path d="M81.82 139.82L80.72 139.94L76.97 131.9L78.22 131.76L79.02 133.57L82.12 133.23L82.52 131.29L83.73 131.16L81.82 139.82ZM79.43 134.63L81.14 138.36L82.01 134.34L79.43 134.63Z" fill="white"/>
<path d="M74.17 140.28L74.23 132.97L71.23 132.95V131.86L75.4 131.89L75.33 140.29H74.17V140.28Z" fill="white"/>
<path d="M65.6501 139.93L64.4401 139.67L64.1801 134.72C64.1601 134.03 64.1501 133.4 64.1801 132.83C63.9401 133.35 63.6501 133.92 63.3201 134.52L61.0301 138.94L60.0901 138.74L59.7901 133.86C59.7401 133.17 59.7101 132.54 59.7001 131.96C59.5001 132.49 59.2401 133.07 58.9401 133.69L56.7601 138.04L55.6101 137.8L59.4701 130.03L60.5901 130.26L61.0401 136.79L64.0901 131L65.2801 131.25L65.6701 139.92L65.6501 139.93Z" fill="white"/>
<path d="M51.3501 136.19L50.3201 135.8L50.6501 126.94L51.8301 127.39L51.7201 129.36L54.6401 130.47L55.8801 128.93L57.0101 129.36L51.3501 136.19ZM51.6001 130.48L51.4101 134.58L54.0201 131.4L51.6001 130.48Z" fill="white"/>
<path d="M45.32 133.65L43.27 132.55C42.82 132.31 42.47 132.01 42.21 131.65C41.95 131.29 41.81 130.91 41.78 130.5C41.75 130.09 41.83 129.71 42.03 129.34C42.25 128.93 42.54 128.62 42.9 128.42C43.26 128.22 43.67 128.12 44.11 128.14C44.55 128.16 44.99 128.29 45.44 128.52L45.08 129.04C44.61 128.79 44.25 128.49 44 128.15C43.75 127.81 43.62 127.44 43.61 127.05C43.6 126.66 43.7 126.27 43.91 125.86L44.95 123.91L45.98 124.46L45 126.29C44.76 126.73 44.7 127.13 44.82 127.47C44.94 127.81 45.23 128.11 45.69 128.35L46.6 128.84L48.28 125.7L49.3 126.24L45.34 133.65H45.32ZM44.33 129C44.08 129 43.84 129.05 43.64 129.18C43.43 129.3 43.26 129.49 43.13 129.74C42.94 130.09 42.91 130.44 43.04 130.79C43.17 131.14 43.43 131.41 43.84 131.63L44.81 132.15L46.1 129.75L45.13 129.23C44.86 129.09 44.6 129.01 44.34 129.01L44.33 129Z" fill="white"/>
<path d="M38.2302 129.61L36.3302 128.26C35.9102 127.96 35.6002 127.62 35.3902 127.23C35.1802 126.84 35.0802 126.44 35.1002 126.03C35.1202 125.62 35.2502 125.25 35.4902 124.91C35.7602 124.53 36.0802 124.26 36.4702 124.11C36.8602 123.95 37.2702 123.91 37.7002 123.98C38.1302 124.05 38.5602 124.23 38.9702 124.53L38.5502 125C38.1102 124.69 37.7902 124.35 37.5902 123.98C37.3902 123.61 37.3002 123.23 37.3402 122.84C37.3802 122.45 37.5202 122.07 37.7902 121.7L39.0702 119.9L40.0202 120.57L38.8202 122.26C38.5302 122.67 38.4202 123.05 38.5002 123.41C38.5802 123.76 38.8302 124.09 39.2502 124.39L40.0902 124.99L42.1502 122.08L43.0902 122.75L38.2302 129.6V129.61ZM37.8402 124.89C37.5902 124.85 37.3502 124.89 37.1302 124.98C36.9102 125.08 36.7202 125.24 36.5602 125.47C36.3302 125.8 36.2502 126.14 36.3402 126.5C36.4202 126.86 36.6502 127.17 37.0202 127.43L37.9202 128.07L39.5002 125.85L38.6002 125.21C38.3502 125.03 38.1002 124.93 37.8502 124.89H37.8402Z" fill="white"/>
<path d="M30.2302 123.37L29.4202 122.62L33.0202 114.52L33.9502 115.37L33.1202 117.16L35.4102 119.27L37.1402 118.3L38.0302 119.12L30.2402 123.36L30.2302 123.37ZM32.5802 118.17L30.8802 121.91L34.4802 119.93L32.5702 118.17H32.5802Z" fill="white"/>
<path d="M27.5601 111.41C27.1101 111.84 26.6201 112.28 26.0801 112.73L22.8001 115.44L22.0701 114.56L28.5401 109.21L29.2001 110.01L27.2101 114.87C26.9301 115.5 26.6501 116.1 26.3501 116.66C26.8101 116.23 27.3101 115.79 27.8501 115.34L31.2701 112.51L31.9901 113.38L25.5201 118.73L24.7901 117.85L26.7101 113.2C26.9901 112.57 27.2701 111.97 27.5601 111.41Z" fill="white"/>
<path d="M20.5002 112.39L17.6702 107.96L18.5902 107.37L19.6902 109.1L25.8502 105.17L26.4702 106.14L20.3102 110.07L21.4102 111.8L20.4902 112.39H20.5002Z" fill="white"/>
<path d="M16.1901 105.21L18.6701 102.01H14.6301L14.0801 100.89L19.5701 100.93L22.7001 99.4L23.2101 100.45L20.0801 101.98L16.7401 106.36L16.1801 105.22L16.1901 105.21Z" fill="white"/>
<path d="M60.57 46.31V89.71H54.556V58.896H47.674V53.44H50.464C53.688 53.44 54.928 52.2 54.928 49.224V46.31H60.57ZM84.5286 90.454C75.0426 90.454 69.1526 83.944 69.1526 73.342V62.74C69.1526 52.138 75.0426 45.566 84.5286 45.566C94.0146 45.566 99.9046 52.138 99.9046 62.74V73.342C99.9046 83.944 94.0146 90.454 84.5286 90.454ZM75.2286 73.342C75.2286 80.286 78.8246 84.812 84.5286 84.812C90.2326 84.812 93.7666 80.286 93.7666 73.342V62.74C93.7666 55.734 90.2326 51.27 84.5286 51.27C78.8246 51.27 75.2286 55.734 75.2286 62.74V73.342Z" fill="white"/>
<path d="M48.196 95.91H49.68L51.766 100.152L53.824 95.91H55.294L52.438 101.65V105.71H51.08V101.65L48.196 95.91ZM60.5315 95.91H65.3895V97.184H61.8895V99.914H64.9275V101.146H61.8895V104.436H65.3895V105.71H60.5315V95.91ZM70.0213 105.71L73.3533 95.91H74.6413L77.9593 105.71H76.4893L75.7893 103.512H72.1493L71.4353 105.71H70.0213ZM72.4293 102.238H75.4533L73.9553 97.688L72.4293 102.238ZM83.1235 105.71V95.91H85.8395C87.6735 95.91 88.8915 97.058 88.8915 98.528C88.8915 99.578 88.3735 100.39 87.5335 100.838C88.4155 101.258 88.8775 102.07 88.8775 103.134V105.71H87.5195V103.288C87.5195 102.084 86.8615 101.552 85.6715 101.552H84.4675V105.71H83.1235ZM84.4675 100.348H85.7555C86.8195 100.348 87.5195 99.704 87.5195 98.724C87.5195 97.786 86.8195 97.17 85.7555 97.17H84.4675V100.348ZM97.3861 105.878C95.5941 105.878 94.2921 104.534 94.2921 102.63H95.6361C95.6361 103.806 96.3641 104.618 97.3861 104.618C98.3381 104.618 99.0381 103.96 99.0381 103.022C99.0381 100.418 94.4041 102.098 94.4041 98.458C94.4041 96.862 95.5941 95.742 97.2461 95.742C99.0101 95.742 100.144 97.002 100.144 98.724H98.8001C98.7721 97.716 98.1421 97.002 97.2181 97.002C96.3641 97.002 95.7341 97.618 95.7341 98.416C95.7341 100.922 100.354 99.088 100.382 103.022C100.396 104.716 99.0941 105.878 97.3861 105.878Z" fill="white"/>
</g>
<defs>
<clipPath id="clip0_40_192">
<rect width="127.01" height="130.58" fill="white" transform="translate(11 9.71002)"/>
</clipPath>
</defs>
</svg>
