<svg width="80" height="83" viewBox="0 0 80 83" fill="none" xmlns="http://www.w3.org/2000/svg">
<g clip-path="url(#clip0_9_338)">
<path d="M3.09895 36.7089C2.99817 36.8349 2.8785 36.9231 2.73363 36.9861C2.58246 37.0427 2.42499 37.0616 2.25492 37.0427C2.08486 37.0176 1.93999 36.9609 1.80771 36.8664C1.68174 36.7719 1.58726 36.6522 1.53057 36.5011C1.47388 36.3562 1.45499 36.1987 1.47388 36.035C1.49908 35.8649 1.55577 35.72 1.65025 35.5877C1.74473 35.4618 1.8707 35.3673 2.01557 35.3043C2.16044 35.2413 2.32421 35.2224 2.49428 35.2476C2.66434 35.2728 2.81551 35.3295 2.94148 35.4303C3.06746 35.5311 3.16194 35.6507 3.22493 35.8019C3.28791 35.9468 3.30681 36.1105 3.28161 36.2806C3.25642 36.4507 3.19973 36.5955 3.09895 36.7215V36.7089Z" fill="white"/>
<path d="M0 30.1708L0.321235 29.2512L4.99488 29.0119L1.4802 25.9444L1.80143 25.0248L6.79632 26.7695L6.55696 27.4498L3.72884 26.4609C3.31942 26.316 2.9289 26.1712 2.55728 26.02C2.88481 26.253 3.21864 26.505 3.55248 26.7821L6.00898 28.9993L5.78222 29.6544L2.4439 29.8811C2.00929 29.8874 1.59358 29.8811 1.19046 29.8685C1.57468 29.9819 1.9715 30.1079 2.38721 30.2527L5.22793 31.2416L4.99488 31.9093L0 30.1645L0 30.1708Z" fill="white"/>
<path d="M7.69085 24.439C7.27513 24.6784 6.82792 24.798 6.34292 24.798C5.85792 24.798 5.39811 24.6721 4.9572 24.4201C4.51629 24.1682 4.17616 23.8406 3.93681 23.4249C3.69746 23.0092 3.57148 22.562 3.56519 22.0833C3.56519 21.6046 3.67856 21.1448 3.92421 20.7165C4.16986 20.2819 4.50369 19.948 4.91941 19.7087C5.33512 19.4693 5.78233 19.3497 6.26104 19.3497C6.73974 19.3497 7.19955 19.4693 7.63416 19.7213C8.07507 19.9732 8.4215 20.3071 8.66715 20.7228C8.9128 21.1385 9.03877 21.5857 9.04507 22.0644C9.04507 22.5431 8.93169 22.9966 8.68604 23.4312C8.44039 23.8658 8.10656 24.1997 7.69085 24.439ZM8.33961 22.0959C8.32702 21.7495 8.22624 21.4219 8.03727 21.1196C7.84831 20.8173 7.59007 20.5653 7.26253 20.3826C6.9413 20.2 6.60117 20.1055 6.24214 20.0992C5.88311 20.0992 5.55558 20.1748 5.24694 20.3449C4.93831 20.5149 4.69895 20.7543 4.52259 21.0692C4.33993 21.3841 4.25804 21.718 4.27064 22.0644C4.28324 22.4108 4.37772 22.7384 4.56668 23.047C4.74934 23.3556 5.00759 23.595 5.32883 23.784C5.65636 23.9729 6.00279 24.0674 6.36182 24.0737C6.72084 24.0737 7.05467 23.9981 7.36331 23.8217C7.67195 23.6517 7.9113 23.4123 8.08766 23.0974C8.27033 22.7825 8.35221 22.4486 8.33961 22.1022V22.0959Z" fill="white"/>
<path d="M11.3062 17.1262C10.9787 16.9058 10.6448 16.6601 10.3047 16.383L8.20725 14.7138L8.65445 14.1532L12.7927 17.4474L12.3833 17.9639L9.13316 17.3656C8.70484 17.2774 8.30173 17.1766 7.9238 17.0695C8.25134 17.2963 8.58517 17.5482 8.9316 17.8191L11.1173 19.5638L10.6763 20.1181L6.53809 16.8239L6.98529 16.2633L10.1032 16.8428C10.5315 16.9309 10.9346 17.0254 11.3188 17.1388L11.3062 17.1262Z" fill="white"/>
<path d="M9.78198 12.8998L12.144 10.5818L12.6227 11.0731L11.6968 11.9802L14.9217 15.2681L14.4052 15.7783L11.1803 12.4904L10.2607 13.3974L9.78198 12.9061V12.8998Z" fill="white"/>
<path d="M13.4226 9.46696L14.002 9.01976L15.3437 10.7771L16.9246 9.57404L15.583 7.8104L16.1625 7.36949L19.3748 11.577L18.7954 12.0179L17.353 10.122L15.772 11.3314L17.2144 13.221L16.6286 13.6682L13.4163 9.46067L13.4226 9.46696Z" fill="white"/>
<path d="M21.0252 10.3929C20.7292 10.3929 20.452 10.311 20.1938 10.1535C19.9355 9.99606 19.7214 9.7693 19.5513 9.47326L20.1812 9.10794C20.2882 9.2906 20.4142 9.43547 20.5654 9.52995C20.7166 9.63073 20.874 9.68112 21.0441 9.68742C21.2142 9.69372 21.3779 9.64963 21.5354 9.56145C21.6866 9.47326 21.7999 9.36619 21.8818 9.23391C21.9637 9.10164 22.0015 8.96307 22.0015 8.8119C22.0015 8.66073 21.9574 8.51586 21.8755 8.37099C21.7747 8.19463 21.6488 8.07495 21.5102 8.01196C21.3653 7.95527 21.2205 7.93008 21.0693 7.94898C20.9181 7.96787 20.7229 8.00566 20.4772 8.06235C20.1686 8.14424 19.9103 8.19462 19.6962 8.20722C19.482 8.21982 19.2679 8.18203 19.0537 8.08125C18.8395 7.98047 18.6443 7.78521 18.4742 7.48287C18.3356 7.23722 18.2664 6.98527 18.2664 6.72702C18.2664 6.46878 18.3419 6.22313 18.4805 6.00267C18.6254 5.78222 18.8206 5.59325 19.0726 5.44838C19.3434 5.29092 19.6143 5.21533 19.8914 5.21533C20.1686 5.21533 20.4205 5.29092 20.6536 5.44209C20.8866 5.58696 21.0819 5.79481 21.2331 6.06566L20.6032 6.43098C20.4646 6.19793 20.2819 6.04676 20.0552 5.97748C19.8284 5.90819 19.6143 5.93339 19.4001 6.05306C19.2679 6.12865 19.1671 6.22313 19.0915 6.3428C19.0159 6.46248 18.9781 6.58845 18.9781 6.72702C18.9781 6.8656 19.0159 6.99787 19.0852 7.12384C19.1797 7.28761 19.293 7.39469 19.4253 7.44508C19.5576 7.50177 19.6962 7.51436 19.841 7.49547C19.9859 7.47657 20.1749 7.43878 20.4079 7.37579C20.7229 7.29391 20.9874 7.24352 21.2016 7.22462C21.4157 7.20573 21.6362 7.24982 21.8692 7.36319C22.096 7.47657 22.3038 7.69073 22.4991 8.01196C22.6503 8.27021 22.7195 8.53476 22.7195 8.8056C22.7195 9.07645 22.644 9.33469 22.4928 9.56775C22.3416 9.8008 22.1338 10.0024 21.8692 10.1535C21.5921 10.311 21.3086 10.3929 21.0126 10.3866L21.0252 10.3929Z" fill="white"/>
<path d="M26.9333 2.0219L27.1726 2.67066L25.3964 3.31943L25.9003 4.70515L27.4435 4.14456L27.6702 4.76814L26.127 5.32872L26.738 6.99788L28.5142 6.34911L28.7473 6.99788L26.2845 7.8986L24.4705 2.92891L26.9333 2.0282V2.0219Z" fill="white"/>
<path d="M30.6559 3.99339L30.3284 3.84852L28.3821 1.56838L29.1694 1.37942L30.7126 3.26274L31.0464 3.4202L33.0872 5.8767L32.2999 6.06567L30.6559 3.99969V3.99339ZM30.2654 3.60917L30.5236 3.30683L31.0023 0.93851L31.7393 0.762146L31.1031 3.66585L30.826 3.96189L30.2591 6.56326L29.5033 6.74593L30.2717 3.61546L30.2654 3.60917Z" fill="white"/>
<path d="M33.5281 0.453507L34.9642 0.283442C35.2854 0.245649 35.5752 0.270844 35.8397 0.365325C36.1043 0.459806 36.3121 0.610975 36.4759 0.812534C36.6396 1.02039 36.7341 1.26604 36.7719 1.55578C36.8097 1.85812 36.7719 2.14156 36.6648 2.39351C36.5578 2.64546 36.394 2.85962 36.1609 3.02338C35.9342 3.19345 35.657 3.29423 35.3484 3.33202L34.6304 3.4202L34.8949 5.61845L34.1642 5.70664L33.5344 0.453507H33.5281ZM35.6948 2.49429C35.8271 2.39981 35.9279 2.28643 35.9846 2.14786C36.0413 2.00929 36.0602 1.85182 36.0413 1.67546C36.0098 1.42351 35.9027 1.23455 35.7137 1.10857C35.5248 0.976301 35.2917 0.932209 35.002 0.963703L34.3343 1.04559L34.5422 2.74624L35.2098 2.66436C35.3988 2.63916 35.5626 2.58247 35.6948 2.49429Z" fill="white"/>
<path d="M38.2899 0H39.7575C40.0788 0 40.3685 0.0629872 40.6142 0.188962C40.8661 0.314936 41.0551 0.485001 41.1937 0.699158C41.3322 0.913314 41.4015 1.15267 41.4015 1.41721C41.4015 1.70695 41.3322 1.9652 41.1874 2.18565C41.0488 2.40611 40.8535 2.57617 40.6016 2.70215C40.3496 2.82183 40.0662 2.88481 39.7512 2.88481L39.7953 2.49429C40.1355 2.49429 40.4189 2.55098 40.6583 2.67066C40.8976 2.79033 41.0803 2.9478 41.2 3.16196C41.3259 3.37611 41.3826 3.62176 41.3826 3.9115V5.30352H40.6457V3.99339C40.6457 3.67845 40.5638 3.4391 40.3937 3.28793C40.2236 3.13676 39.978 3.05488 39.6505 3.05488H39.0017V5.29722H38.2773V0.00629872L38.2899 0ZM40.211 2.28643C40.3559 2.21085 40.463 2.11007 40.5449 1.9778C40.6205 1.84552 40.6646 1.69435 40.6646 1.51799C40.6646 1.26604 40.5764 1.06448 40.4063 0.907015C40.2362 0.755846 40.0032 0.673963 39.7135 0.673963H39.0206V2.38721H39.7135C39.9024 2.38721 40.0725 2.34942 40.2173 2.28014L40.211 2.28643Z" fill="white"/>
<path d="M45.9933 0.453516L45.9114 1.13378L44.0344 0.913323L43.858 2.37462L45.4894 2.56988L45.4138 3.23125L43.7887 3.03599L43.5809 4.79963L45.4579 5.02009L45.376 5.70035L42.7747 5.39171L43.3982 0.13858L45.9996 0.447217L45.9933 0.453516Z" fill="white"/>
<path d="M47.1648 5.92709C46.9507 5.72553 46.8058 5.47358 46.7239 5.18384C46.6483 4.8878 46.6483 4.57916 46.7239 4.25163L47.4294 4.41539C47.379 4.62325 47.379 4.81221 47.4168 4.98858C47.4546 5.16494 47.5365 5.30981 47.6561 5.43579C47.7758 5.55546 47.9207 5.63734 48.097 5.68144C48.2671 5.71923 48.4246 5.71923 48.5694 5.68144C48.7206 5.64364 48.8466 5.56806 48.9474 5.45468C49.0482 5.3476 49.1237 5.20903 49.1615 5.04527C49.2119 4.84371 49.1993 4.67364 49.1363 4.52877C49.0733 4.3902 48.9789 4.27052 48.8592 4.18234C48.7332 4.09416 48.5694 3.98708 48.3553 3.86111C48.0718 3.70994 47.8514 3.57137 47.6876 3.43279C47.5239 3.30052 47.3979 3.11786 47.3097 2.9037C47.2215 2.68325 47.2152 2.4061 47.2971 2.07227C47.3601 1.79513 47.4861 1.56837 47.6624 1.37941C47.8451 1.19045 48.0593 1.06448 48.3175 1.00149C48.5757 0.932203 48.8466 0.938502 49.13 1.00149C49.4324 1.07077 49.6843 1.20305 49.8859 1.39201C50.0874 1.58097 50.2197 1.80772 50.289 2.07857C50.3583 2.34312 50.3583 2.62656 50.289 2.9289L49.5835 2.75883C49.6402 2.49428 49.615 2.25493 49.5017 2.05337C49.3883 1.84552 49.2119 1.71324 48.9726 1.66285C48.8277 1.62506 48.6828 1.62506 48.5506 1.66285C48.4183 1.70065 48.2986 1.76363 48.2104 1.86441C48.1159 1.96519 48.053 2.08487 48.0215 2.22974C47.9774 2.4124 47.99 2.56987 48.0467 2.69584C48.1033 2.82182 48.1978 2.93519 48.3175 3.01708C48.4372 3.10526 48.6009 3.20604 48.8151 3.31942C49.0985 3.47688 49.3253 3.62175 49.4954 3.75403C49.6654 3.8863 49.7914 4.07526 49.8859 4.31461C49.9741 4.55396 49.9804 4.8563 49.8985 5.22163C49.8292 5.51137 49.7032 5.75072 49.5143 5.95228C49.3253 6.14754 49.0922 6.27981 48.8277 6.3491C48.5568 6.41839 48.2734 6.41839 47.9711 6.3491C47.6624 6.27351 47.3979 6.13494 47.19 5.93338L47.1648 5.92709Z" fill="white"/>
<path d="M51.2716 7.06086C51.0826 6.83411 50.9692 6.56956 50.9252 6.26723C50.8811 5.96489 50.9189 5.65625 51.0322 5.34131L51.7125 5.59326C51.6369 5.79482 51.6117 5.98378 51.6369 6.16015C51.6558 6.33651 51.7188 6.49398 51.8196 6.63255C51.9204 6.76482 52.0589 6.8656 52.229 6.92859C52.3865 6.98528 52.5439 7.00418 52.7014 6.98528C52.8526 6.96008 52.9911 6.9034 53.1045 6.80892C53.2179 6.71444 53.3061 6.58846 53.3628 6.43099C53.432 6.23573 53.4446 6.06567 53.4006 5.9208C53.3565 5.76963 53.2746 5.64365 53.1675 5.54287C53.0541 5.4358 52.903 5.30982 52.7014 5.16495C52.4431 4.98229 52.2353 4.81852 52.0904 4.66105C51.9455 4.50988 51.8385 4.31462 51.7755 4.08787C51.7125 3.86112 51.744 3.58397 51.8574 3.26274C51.9519 2.99819 52.103 2.78404 52.3046 2.61397C52.5061 2.4502 52.7329 2.34942 52.9974 2.31163C53.262 2.27384 53.5265 2.31163 53.8037 2.40611C54.0997 2.51319 54.3328 2.67066 54.5028 2.88481C54.6792 3.09897 54.7863 3.33832 54.8178 3.61547C54.8556 3.88631 54.8178 4.16975 54.717 4.45949L54.0367 4.20755C54.1249 3.9493 54.1249 3.70995 54.0367 3.49579C53.9485 3.27534 53.7848 3.12417 53.5517 3.04228C53.4069 2.99189 53.2683 2.973 53.1297 2.99189C52.9911 3.01079 52.8715 3.06748 52.7644 3.14936C52.6573 3.23754 52.5817 3.35092 52.5313 3.48949C52.4683 3.66586 52.4557 3.82332 52.4998 3.9556C52.5439 4.08787 52.6195 4.20755 52.7266 4.30833C52.8337 4.4091 52.9848 4.52878 53.1801 4.66735C53.4446 4.85631 53.6525 5.02638 53.8037 5.17755C53.9548 5.32872 54.0619 5.53028 54.1249 5.77593C54.1816 6.02158 54.1501 6.32391 54.0304 6.67664C53.9296 6.95379 53.7722 7.18054 53.558 7.3569C53.3502 7.52697 53.1045 7.63405 52.8274 7.67184C52.5502 7.70963 52.2668 7.67184 51.977 7.57106C51.681 7.46398 51.4354 7.29392 51.2464 7.06716L51.2716 7.06086Z" fill="white"/>
<path d="M61.7149 6.77112C61.9354 7.17423 62.0424 7.60255 62.0298 8.05605C62.0172 8.51586 61.885 8.95677 61.6267 9.38508C61.3622 9.8134 61.0346 10.1472 60.6315 10.374C60.2284 10.6007 59.7938 10.7141 59.334 10.7078C58.8742 10.7015 58.4333 10.5692 58.0113 10.311L56.5688 9.43547L59.3088 4.91299L60.7512 5.78852C61.1732 6.04676 61.4944 6.3743 61.7212 6.77112H61.7149ZM59.334 10.0087C59.6615 10.0087 59.9765 9.91418 60.2662 9.73781C60.5559 9.56145 60.8016 9.3158 60.9905 9.00086C61.1795 8.69222 61.2803 8.37099 61.2992 8.03086C61.3181 7.69703 61.2488 7.38839 61.1039 7.09865C60.9528 6.80891 60.7323 6.57586 60.4363 6.39949L59.5796 5.883L57.5515 9.23391L58.4018 9.75041C58.6978 9.92677 59.0065 10.015 59.334 10.0087Z" fill="white"/>
<path d="M66.5522 9.93307L66.1239 10.4685L64.65 9.2906L63.7304 10.4433L65.009 11.47L64.5933 11.9865L63.3147 10.9598L62.2061 12.3455L63.68 13.5233L63.2517 14.0587L61.2046 12.4211L64.5114 8.28911L66.5585 9.92677L66.5522 9.93307Z" fill="white"/>
<path d="M68.404 11.6589L65.1665 14.9343L66.5081 16.2633L66.0231 16.7546L64.1587 14.9091L67.8812 11.1487L68.404 11.6652V11.6589Z" fill="white"/>
<path d="M71.2321 14.6949L67.2136 18.134L66.7349 17.5797L70.7534 14.1406L71.2321 14.6949Z" fill="white"/>
<path d="M68.8955 20.3134L72.2212 15.835L72.6621 16.4648L69.9914 20.0425L74.2494 18.7387L74.6714 19.3434L69.3175 20.918L68.8892 20.3071L68.8955 20.3134Z" fill="white"/>
<path d="M76.6995 23.0722L76.0949 23.3934L75.2068 21.7243L73.9029 22.4171L74.6714 23.8658L74.0856 24.1808L73.3171 22.7321L71.7488 23.5635L72.6369 25.2327L72.0322 25.5539L70.804 23.236L75.4776 20.7543L76.7058 23.0722H76.6995Z" fill="white"/>
<path d="M77.4741 24.7477L78.0095 26.1145C78.1292 26.4168 78.1733 26.7066 78.1481 26.9837C78.1229 27.2609 78.0347 27.5002 77.8836 27.7081C77.7324 27.9159 77.5371 28.0671 77.2915 28.1616C77.0206 28.2686 76.7561 28.2938 76.4978 28.2435C76.2396 28.1931 76.0065 28.0734 75.805 27.8844C75.6034 27.6955 75.4396 27.4561 75.3263 27.1601L75.7105 27.0593C75.8302 27.3742 75.8869 27.664 75.8617 27.9285C75.8428 28.1931 75.7546 28.4198 75.6034 28.6151C75.4522 28.804 75.2381 28.9552 74.9735 29.056L73.676 29.5599L73.4115 28.8796L74.6271 28.4072C74.9232 28.2938 75.1121 28.1301 75.194 27.9159C75.2759 27.7018 75.257 27.4435 75.1373 27.1412L74.898 26.5365L72.8068 27.3553L72.5422 26.6814L77.4741 24.7603V24.7477ZM76.038 27.3679C76.1577 27.475 76.2963 27.5443 76.4474 27.5695C76.5986 27.5947 76.7561 27.5695 76.9198 27.5128C77.1529 27.4183 77.3104 27.2672 77.3923 27.0467C77.4741 26.8262 77.4615 26.5869 77.3545 26.316L77.1025 25.6673L75.5026 26.2909L75.7546 26.9396C75.8239 27.116 75.9184 27.2609 76.038 27.3679Z" fill="white"/>
<path d="M79.1937 29.6103L77.2852 31.3046L79.7857 31.7644L79.9999 32.5266L76.6049 31.8652L74.4948 32.451L74.2996 31.7455L76.4096 31.1598L78.9795 28.8355L79.1937 29.6103Z" fill="white"/>
<path d="M76.4098 37.2128C76.4791 37.0679 76.5736 36.9546 76.7058 36.8601C76.8381 36.7719 76.9893 36.7152 77.1593 36.7026C77.3294 36.6837 77.4869 36.7089 77.6317 36.7782C77.7766 36.8412 77.8963 36.942 77.9845 37.0679C78.0727 37.2002 78.1293 37.3451 78.1419 37.5152C78.1608 37.6852 78.1356 37.8427 78.0664 37.9876C78.0034 38.1324 77.9026 38.2521 77.7703 38.3466C77.638 38.4411 77.4869 38.4978 77.3168 38.5104C77.1467 38.523 76.9893 38.4978 76.8444 38.4348C76.6995 38.3655 76.5799 38.271 76.4854 38.1387C76.3909 38.0065 76.3342 37.8553 76.3216 37.6852C76.3027 37.5152 76.3342 37.3577 76.3972 37.2128H76.4098Z" fill="white"/>
<path d="M72.6052 55.7058C72.8509 55.5358 73.1217 55.4476 73.424 55.4287C73.7264 55.4098 74.0287 55.4791 74.3374 55.6177L74.0287 56.2727C73.8398 56.1845 73.6508 56.1405 73.4681 56.1468C73.2855 56.1468 73.128 56.1971 72.9831 56.2916C72.8383 56.3861 72.7312 56.5121 72.6493 56.6759C72.5737 56.8333 72.5422 56.9845 72.5548 57.142C72.5611 57.2931 72.6115 57.438 72.6997 57.5577C72.7879 57.6836 72.9076 57.7781 73.0524 57.8474C73.2414 57.9356 73.4052 57.9608 73.5563 57.9293C73.7075 57.8978 73.8398 57.8285 73.9531 57.7277C74.0665 57.627 74.2051 57.4821 74.3752 57.2994C74.5767 57.0538 74.7657 56.8648 74.9294 56.7325C75.0932 56.6003 75.2948 56.5121 75.5278 56.4743C75.7609 56.4365 76.0317 56.4869 76.3404 56.6318C76.5986 56.7514 76.7939 56.9215 76.945 57.1357C77.0899 57.3498 77.1718 57.5892 77.1844 57.8537C77.197 58.1183 77.1403 58.3828 77.0143 58.6473C76.882 58.9308 76.6994 59.1512 76.4726 59.3024C76.2459 59.4599 75.9939 59.5418 75.7168 59.5544C75.4396 59.567 75.1625 59.5103 74.8854 59.378L75.194 58.7229C75.4396 58.8363 75.679 58.8552 75.9057 58.7859C76.1325 58.7166 76.2963 58.5718 76.4033 58.345C76.4663 58.2064 76.4978 58.0679 76.4915 57.9293C76.4915 57.7907 76.4411 57.6648 76.3655 57.5514C76.29 57.438 76.1829 57.3498 76.0506 57.2868C75.8805 57.2049 75.7294 57.186 75.5845 57.2175C75.4396 57.249 75.32 57.312 75.2129 57.4128C75.1058 57.5136 74.9735 57.6522 74.8161 57.8348C74.6082 58.0805 74.4192 58.2757 74.2492 58.4143C74.0854 58.5529 73.8776 58.6411 73.6256 58.6788C73.3737 58.7166 73.0776 58.6599 72.7375 58.5025C72.4666 58.3765 72.2588 58.2001 72.1013 57.9734C71.9501 57.7466 71.862 57.4947 71.8494 57.2175C71.8368 56.9404 71.8935 56.657 72.0257 56.3798C72.158 56.0901 72.347 55.8633 72.5926 55.6995L72.6052 55.7058Z" fill="white"/>
<path d="M75.6538 61.1857L73.9279 64.0076L73.3421 63.6485L74.0161 62.5463L70.0857 60.1464L70.4636 59.5292L74.394 61.929L75.068 60.8267L75.6538 61.1857Z" fill="white"/>
<path d="M72.9768 65.3681L72.0698 66.5207C71.8683 66.7727 71.6478 66.9617 71.3959 67.0813C71.1439 67.201 70.892 67.2514 70.6337 67.2262C70.3755 67.201 70.1487 67.1065 69.9409 66.9428C69.7078 66.7601 69.5503 66.5459 69.4622 66.3003C69.374 66.0546 69.3614 65.7901 69.4181 65.5192C69.4748 65.2484 69.607 64.9902 69.8023 64.7382L70.0857 65.0154C69.8779 65.2799 69.6511 65.4689 69.4118 65.5885C69.1724 65.7019 68.9331 65.746 68.6874 65.7145C68.4418 65.683 68.2087 65.5759 67.982 65.3996L66.886 64.5429L67.3395 63.9635L68.3662 64.7697C68.6181 64.965 68.8512 65.0468 69.0779 65.0091C69.3047 64.9713 69.5188 64.8264 69.7204 64.5681L70.1235 64.0579L68.3599 62.6722L68.8071 62.099L72.9642 65.3681H72.9768ZM69.985 65.4689C69.9535 65.6263 69.9661 65.7775 70.0227 65.9161C70.0794 66.0609 70.1739 66.1869 70.3125 66.294C70.5077 66.4515 70.7219 66.5081 70.955 66.4641C71.1817 66.42 71.3833 66.2877 71.5596 66.0609L71.9879 65.513L70.64 64.4548L70.2117 65.0028C70.092 65.1539 70.0164 65.3051 69.985 65.4689Z" fill="white"/>
<path d="M65.5256 66.2058C65.8216 66.1302 66.1239 66.1428 66.4263 66.2436C66.7286 66.3444 67.0121 66.5271 67.2703 66.7979L69.7205 69.3048L69.1977 69.815L66.7349 67.2955C66.5711 67.1317 66.4011 67.0121 66.2121 66.9428C66.0295 66.8735 65.8468 66.8609 65.6704 66.8987C65.4941 66.9365 65.3303 67.0309 65.1854 67.1695C64.965 67.39 64.8579 67.6356 64.8768 67.9191C64.8957 68.2025 65.028 68.4671 65.2736 68.719L67.7364 71.2385L67.2136 71.7487L64.7634 69.2418C64.5052 68.9773 64.3225 68.6875 64.228 68.3852C64.1335 68.0828 64.1272 67.7805 64.2091 67.4845C64.291 67.1884 64.4611 66.9176 64.7067 66.6719C64.9524 66.4263 65.2295 66.2688 65.5256 66.1932V66.2058Z" fill="white"/>
<path d="M61.7778 69.7268C62.2502 69.689 62.7037 69.7709 63.132 69.9724C63.5666 70.174 63.932 70.4889 64.228 70.9046C64.524 71.3141 64.6941 71.755 64.7508 72.2337C64.8075 72.7061 64.7382 73.1596 64.5429 73.5942C64.3477 74.0225 64.0516 74.3815 63.6485 74.6713C63.321 74.9043 62.9683 75.0618 62.5903 75.1374C62.2124 75.213 61.8471 75.2004 61.4944 75.0996C61.1416 74.9988 60.833 74.8161 60.5684 74.5579L61.2046 74.0981C61.3936 74.2493 61.6077 74.35 61.8408 74.4067C62.0801 74.4634 62.3195 74.4634 62.5651 74.413C62.8108 74.3626 63.0375 74.2619 63.2454 74.1107C63.5351 73.9028 63.7493 73.6446 63.8816 73.3296C64.0138 73.0147 64.0579 72.6872 64.0138 72.3345C63.9697 71.9817 63.8375 71.6542 63.617 71.3456C63.3903 71.0306 63.1194 70.7913 62.7982 70.6338C62.477 70.4763 62.1494 70.407 61.8093 70.4322C61.4692 70.4574 61.1542 70.5708 60.8645 70.7787C60.6566 70.9298 60.4866 71.1125 60.3606 71.333C60.2346 71.5534 60.159 71.7928 60.1464 72.0384C60.1338 72.2841 60.1653 72.5297 60.2661 72.7565L59.6173 73.2226C59.4536 72.8761 59.378 72.5108 59.3969 72.1329C59.4158 71.755 59.5103 71.4022 59.6992 71.0621C59.8882 70.722 60.1464 70.4385 60.474 70.2055C60.8771 69.9157 61.3117 69.752 61.7841 69.7142L61.7778 69.7268Z" fill="white"/>
<path d="M60.6061 76.5609L57.7024 78.1545L57.3686 77.5498L58.5024 76.9262L56.2915 72.8888L56.9277 72.5423L59.1385 76.5798L60.2723 75.9562L60.5998 76.5609H60.6061Z" fill="white"/>
<path d="M53.5391 74.3375C53.8415 74.3879 54.1123 74.5138 54.3517 74.728C54.591 74.9421 54.78 75.2193 54.9123 75.5657L56.1783 78.8348L55.4917 79.0993L54.2194 75.8177C54.1375 75.6035 54.0241 75.4271 53.8793 75.2886C53.7344 75.15 53.5769 75.0681 53.3943 75.0366C53.2116 75.0051 53.0289 75.024 52.84 75.0996C52.5502 75.213 52.355 75.4019 52.2605 75.6665C52.166 75.931 52.1849 76.2334 52.3109 76.5609L53.5832 79.8425L52.903 80.1071L51.6369 76.8381C51.5047 76.4916 51.448 76.1578 51.4795 75.8429C51.5109 75.5279 51.6243 75.2445 51.8196 75.0051C52.0148 74.7658 52.2731 74.5831 52.5943 74.4571C52.9156 74.3312 53.2305 74.2934 53.5328 74.3375H53.5391Z" fill="white"/>
<path d="M50.8809 80.7307L49.4574 81.0771C49.1425 81.1527 48.8527 81.159 48.5819 81.1023C48.3111 81.0393 48.0843 80.9196 47.8953 80.7433C47.7127 80.5669 47.5867 80.3464 47.5237 80.0945C47.4544 79.8111 47.4607 79.5465 47.5489 79.2946C47.6308 79.0426 47.782 78.8348 47.9961 78.6584C48.2103 78.482 48.4685 78.3561 48.7772 78.2805L48.8275 78.671C48.5 78.7529 48.204 78.7655 47.9457 78.7088C47.6875 78.6521 47.4733 78.5387 47.3033 78.3624C47.1332 78.186 47.0135 77.9592 46.9442 77.6821L46.6167 76.3279L47.3285 76.1515L47.6371 77.4238C47.7127 77.7325 47.8512 77.9403 48.0528 78.0474C48.2544 78.1545 48.5126 78.1734 48.8338 78.0978L49.4637 77.9466L48.9346 75.7673L49.6401 75.5972L50.8935 80.737L50.8809 80.7307ZM48.4748 78.9607C48.3551 79.0678 48.267 79.1938 48.2229 79.3387C48.1788 79.4835 48.1788 79.641 48.2229 79.8174C48.2796 80.063 48.4118 80.2394 48.6197 80.3464C48.8275 80.4535 49.0669 80.4724 49.344 80.4094L50.018 80.2457L49.6149 78.5765L48.9409 78.7403C48.752 78.7844 48.6008 78.86 48.4811 78.967L48.4748 78.9607Z" fill="white"/>
<path d="M44.6074 81.9526L43.9145 82.0282L41.5525 76.964L42.3398 76.8759L42.8437 78.0159L44.7963 77.8018L45.0483 76.5798L45.8104 76.4979L44.6074 81.9526ZM43.102 78.6836L44.1791 81.033L44.727 78.5009L43.102 78.6836Z" fill="white"/>
<path d="M39.7888 82.2424L39.8266 77.638L37.937 77.6254V76.9388L40.5636 76.9577L40.5195 82.2487H39.7888V82.2424Z" fill="white"/>
<path d="M34.4223 82.0219L33.6602 81.8581L33.4964 78.7403C33.4838 78.3057 33.4775 77.9088 33.4964 77.5498C33.3452 77.8773 33.1626 78.2364 32.9547 78.6143L31.5123 81.3983L30.9202 81.2723L30.7313 78.1986C30.6998 77.764 30.6809 77.3671 30.6746 77.0018C30.5486 77.3356 30.3848 77.701 30.1959 78.0915L28.8227 80.8314L28.0984 80.6803L30.5297 75.7862L31.2351 75.931L31.5186 80.0441L33.4397 76.3971L34.1892 76.5546L34.4349 82.0156L34.4223 82.0219Z" fill="white"/>
<path d="M25.4151 79.6662L24.7664 79.4205L24.9742 73.8399L25.7175 74.1233L25.6482 75.3641L27.4874 76.0633L28.2684 75.0933L28.9802 75.3641L25.4151 79.6662ZM25.5726 76.0696L25.4529 78.6521L27.0969 76.6491L25.5726 76.0696Z" fill="white"/>
<path d="M21.6171 78.0663L20.3259 77.3734C20.0425 77.2223 19.822 77.0333 19.6582 76.8066C19.4945 76.5798 19.4063 76.3405 19.3874 76.0822C19.3685 75.824 19.4189 75.5846 19.5449 75.3516C19.6834 75.0933 19.8661 74.898 20.0928 74.7721C20.3196 74.6461 20.5779 74.5831 20.855 74.5957C21.1321 74.6083 21.4093 74.6902 21.6927 74.8351L21.466 75.1626C21.1699 75.0051 20.9432 74.8162 20.7857 74.602C20.6282 74.3879 20.5464 74.1548 20.5401 73.9091C20.5338 73.6635 20.5967 73.4179 20.729 73.1596L21.3841 71.9314L22.0329 72.2778L21.4156 73.4304C21.2644 73.7076 21.2266 73.9595 21.3022 74.1737C21.3778 74.3879 21.5605 74.5768 21.8502 74.728L22.4234 75.0366L23.4816 73.0588L24.124 73.399L21.6297 78.0663H21.6171ZM20.9936 75.1374C20.8361 75.1374 20.6849 75.1689 20.559 75.2508C20.4267 75.3264 20.3196 75.446 20.2377 75.6035C20.118 75.824 20.0991 76.0444 20.181 76.2649C20.2629 76.4853 20.4267 76.6554 20.6849 76.794L21.2959 77.1215L22.1084 75.6098L21.4975 75.2823C21.3274 75.1941 21.1636 75.1437 20.9999 75.1437L20.9936 75.1374Z" fill="white"/>
<path d="M17.1513 75.5216L15.9545 74.6713C15.69 74.4823 15.4947 74.2682 15.3625 74.0225C15.2302 73.7769 15.1672 73.5249 15.1798 73.2667C15.1924 73.0084 15.2743 72.7754 15.4255 72.5612C15.5955 72.3219 15.7971 72.1518 16.0427 72.0573C16.2884 71.9565 16.5466 71.9313 16.8175 71.9754C17.0883 72.0195 17.3592 72.1329 17.6174 72.3219L17.3529 72.6179C17.0757 72.4226 16.8742 72.2085 16.7482 71.9754C16.6222 71.7424 16.5655 71.503 16.5907 71.2574C16.6159 71.0117 16.7041 70.7724 16.8742 70.5393L17.6804 69.4056L18.2788 69.8276L17.5229 70.8921C17.3403 71.1503 17.271 71.3897 17.3214 71.6164C17.3718 71.8369 17.5292 72.0447 17.7938 72.2337L18.3229 72.6116L19.6204 70.7787L20.2125 71.2007L17.1513 75.5153V75.5216ZM16.9056 72.5486C16.7482 72.5234 16.597 72.5486 16.4584 72.6053C16.3199 72.6683 16.2002 72.7691 16.0994 72.9139C15.9545 73.1218 15.9042 73.336 15.9608 73.5627C16.0112 73.7895 16.1561 73.9847 16.3892 74.1485L16.956 74.5516L17.9512 73.1533L17.3844 72.7502C17.2269 72.6368 17.0694 72.5738 16.9119 72.5486H16.9056Z" fill="white"/>
<path d="M12.1122 71.5912L11.6021 71.1188L13.8696 66.0168L14.4554 66.5522L13.9326 67.6797L15.375 69.0087L16.4647 68.3978L17.0252 68.9143L12.1185 71.5849L12.1122 71.5912ZM13.5924 68.3159L12.5217 70.6716L14.7892 69.4245L13.5861 68.3159H13.5924Z" fill="white"/>
<path d="M10.4307 64.0579C10.1472 64.3288 9.83857 64.6059 9.49844 64.8894L7.43246 66.5963L6.97266 66.042L11.0479 62.6722L11.4636 63.1761L10.2102 66.2373C10.0338 66.6341 9.85747 67.012 9.66851 67.3648C9.95825 67.0939 10.2732 66.8168 10.6133 66.5333L12.7675 64.7508L13.221 65.2988L9.14571 68.6686L8.68591 68.1143L9.89526 65.1854C10.0716 64.7886 10.248 64.4107 10.4307 64.0579Z" fill="white"/>
<path d="M5.98371 64.6752L4.20117 61.8849L4.78065 61.5133L5.47351 62.603L9.35352 60.1276L9.74404 60.7385L5.86403 63.2139L6.55689 64.3036L5.97741 64.6752H5.98371Z" fill="white"/>
<path d="M3.26897 60.1527L4.83105 58.1372H2.28637L1.93994 57.4317L5.39794 57.4569L7.36944 56.4932L7.69067 57.1546L5.71917 58.1183L3.6154 60.8771L3.26267 60.159L3.26897 60.1527Z" fill="white"/>
<path d="M31.2226 50.0065H27.4346V30.5977H23.0998V27.1611H24.8572C25.8465 27.1611 26.5624 26.9528 27.005 26.5363C27.4476 26.1197 27.6689 25.4428 27.6689 24.5055V22.6701H31.2226V50.0065ZM46.3135 50.4752C44.3349 50.4752 42.6036 50.0456 41.1196 49.1864C39.6616 48.3013 38.5422 47.0516 37.7611 45.4374C37.0061 43.7973 36.6286 41.8837 36.6286 39.6968V33.0189C36.6286 30.8059 37.0061 28.8924 37.7611 27.2782C38.5422 25.6381 39.6616 24.3884 41.1196 23.5292C42.6036 22.6441 44.3349 22.2015 46.3135 22.2015C48.2921 22.2015 50.0104 22.6441 51.4684 23.5292C52.9263 24.3884 54.0458 25.6381 54.8269 27.2782C55.6079 28.8924 55.9984 30.8059 55.9984 33.0189V39.6968C55.9984 41.8837 55.6079 43.7973 54.8269 45.4374C54.0458 47.0516 52.9263 48.3013 51.4684 49.1864C50.0104 50.0456 48.2921 50.4752 46.3135 50.4752ZM46.3135 46.9214C47.4851 46.9214 48.5134 46.622 49.3986 46.0232C50.2838 45.4244 50.9607 44.5783 51.4293 43.4848C51.898 42.3914 52.1323 41.1287 52.1323 39.6968V33.0189C52.1323 31.5609 51.898 30.2852 51.4293 29.1918C50.9607 28.0983 50.2838 27.2652 49.3986 26.6925C48.5134 26.0937 47.4851 25.7943 46.3135 25.7943C45.1159 25.7943 44.0745 26.0937 43.1893 26.6925C42.3042 27.2652 41.6273 28.0983 41.1586 29.1918C40.69 30.2852 40.4557 31.5609 40.4557 33.0189V39.6968C40.4557 41.1287 40.69 42.3914 41.1586 43.4848C41.6273 44.5783 42.3042 45.4244 43.1893 46.0232C44.0745 46.622 45.1159 46.9214 46.3135 46.9214Z" fill="white"/>
<path d="M24.3634 54.7365L25.6773 57.4084L26.9735 54.7365H27.8995L26.1005 58.3519V60.9092H25.2452V58.3519L23.4286 54.7365H24.3634ZM34.2583 54.7365V55.5389H32.0538V57.2585H33.9673V58.0345H32.0538V60.1068H34.2583V60.9092H31.1984V54.7365H34.2583ZM39.2745 54.7365H40.0858L42.1757 60.9092H41.2498L40.8089 59.5248H38.5162L38.0664 60.9092H37.1758L39.2745 54.7365ZM40.5973 58.7223L39.6537 55.8564L38.6925 58.7223H40.5973ZM45.4285 54.7365H47.1392C47.5154 54.7365 47.8476 54.81 48.1357 54.9569C48.4296 55.098 48.6559 55.295 48.8147 55.5477C48.9793 55.7947 49.0616 56.0739 49.0616 56.3855C49.0616 56.7206 48.9793 57.0204 48.8147 57.2849C48.65 57.5436 48.4208 57.7435 48.1268 57.8846C47.8388 58.0257 47.5096 58.0962 47.1392 58.0962L47.1921 57.6377C47.586 57.6377 47.9211 57.7053 48.1974 57.8405C48.4796 57.9757 48.6912 58.1667 48.8323 58.4137C48.9793 58.6606 49.0527 58.9516 49.0527 59.2867V60.9092H48.1974V59.3837C48.1974 59.0133 48.0974 58.7399 47.8976 58.5636C47.7036 58.3813 47.4155 58.2902 47.0334 58.2902H46.275V60.9092H45.4285V54.7365ZM47.0863 57.5318C47.3097 57.5318 47.5037 57.4907 47.6683 57.4084C47.8388 57.3202 47.9681 57.1997 48.0563 57.0468C48.1503 56.894 48.1974 56.7147 48.1974 56.5089C48.1974 56.215 48.0945 55.9798 47.8887 55.8035C47.6889 55.6212 47.4214 55.5301 47.0863 55.5301H46.275V57.5318H47.0863ZM54.4207 61.015C54.0503 61.015 53.7152 60.9298 53.4154 60.7593C53.1215 60.5829 52.8893 60.339 52.7188 60.0274C52.5542 59.7158 52.4719 59.3631 52.4719 58.9692H53.3184C53.3184 59.2161 53.3654 59.4336 53.4595 59.6218C53.5536 59.8099 53.6829 59.9568 53.8475 60.0627C54.018 60.1685 54.2091 60.2214 54.4207 60.2214C54.6206 60.2214 54.7999 60.1802 54.9586 60.0979C55.1173 60.0098 55.2408 59.8892 55.329 59.7364C55.4171 59.5835 55.4612 59.4101 55.4612 59.2161C55.4612 58.9751 55.4054 58.784 55.2937 58.6429C55.1879 58.496 55.0527 58.3872 54.8881 58.3167C54.7234 58.2461 54.503 58.1697 54.2267 58.0874C53.8681 57.9874 53.5771 57.8846 53.3537 57.7787C53.1303 57.6729 52.9392 57.5083 52.7805 57.2849C52.6218 57.0557 52.5424 56.7411 52.5424 56.3414C52.5424 56.0122 52.6188 55.7182 52.7717 55.4596C52.9245 55.195 53.1362 54.9922 53.4066 54.8511C53.6829 54.7041 53.9915 54.6306 54.3325 54.6306C54.697 54.6306 55.0174 54.713 55.2937 54.8776C55.57 55.0363 55.7816 55.2597 55.9286 55.5477C56.0814 55.8299 56.1579 56.1503 56.1579 56.5089H55.3113C55.3054 56.1915 55.2084 55.9328 55.0203 55.7329C54.8381 55.5272 54.6029 55.4243 54.3149 55.4243C54.1385 55.4243 53.9768 55.4625 53.8299 55.5389C53.6888 55.6153 53.5771 55.7241 53.4948 55.8652C53.4184 56.0004 53.3801 56.1503 53.3801 56.3149C53.3801 56.5383 53.4301 56.7176 53.53 56.8528C53.6359 56.9822 53.7681 57.0792 53.9269 57.1438C54.0856 57.2085 54.3002 57.279 54.5706 57.3555C54.9351 57.4554 55.232 57.5583 55.4612 57.6641C55.6905 57.7699 55.8874 57.9463 56.0521 58.1932C56.2167 58.4401 56.3019 58.7811 56.3078 59.2161C56.3078 59.563 56.2255 59.8745 56.0609 60.1508C55.9021 60.4213 55.6788 60.6329 55.3907 60.7858C55.1026 60.9386 54.7793 61.015 54.4207 61.015Z" fill="white"/>
</g>
<defs>
<clipPath id="clip0_9_338">
<rect width="80" height="82.2486" fill="white"/>
</clipPath>
</defs>
</svg>
