<svg width="380" height="34" viewBox="0 0 380 34" fill="none" xmlns="http://www.w3.org/2000/svg">
<mask id="mask0_596_3867" style="mask-type:alpha" maskUnits="userSpaceOnUse" x="0" y="0" width="380" height="34">
<rect width="380" height="34" fill="url(#paint0_linear_596_3867)"/>
</mask>
<g mask="url(#mask0_596_3867)">
<path d="M-13.748 12.2695H-12.4824L-9.51758 19.5117H-9.41211L-6.44727 12.2695H-5.14062V21H-6.17773V14.3672H-6.25977L-9.00781 21H-9.95703L-12.6699 14.3672H-12.752V21H-13.748V12.2695ZM-0.974609 21.1406C-1.60352 21.1406 -2.14844 21 -2.60938 20.7188C-3.06641 20.4375 -3.41797 20.0449 -3.66406 19.541C-3.91016 19.0332 -4.0332 18.4453 -4.0332 17.7773C-4.0332 17.1055 -3.91211 16.5137 -3.66992 16.002C-3.42773 15.4902 -3.08789 15.0898 -2.65039 14.8008C-2.20898 14.5117 -1.69336 14.3672 -1.10352 14.3672C-0.763672 14.3672 -0.425781 14.4238 -0.0898438 14.5371C0.246094 14.6504 0.550781 14.834 0.824219 15.0879C1.10156 15.3418 1.32227 15.6777 1.48633 16.0957C1.65039 16.5137 1.73242 17.0273 1.73242 17.6367V18.0703H-3.31836V17.2031H1.1875L0.724609 17.5312C0.724609 17.0938 0.65625 16.7051 0.519531 16.3652C0.382812 16.0254 0.177734 15.7578 -0.0957031 15.5625C-0.365234 15.3672 -0.701172 15.2695 -1.10352 15.2695C-1.50586 15.2695 -1.85156 15.3691 -2.14062 15.5684C-2.42578 15.7637 -2.64453 16.0195 -2.79688 16.3359C-2.94922 16.6523 -3.02539 16.9922 -3.02539 17.3555V17.9297C-3.02539 18.4258 -2.93945 18.8457 -2.76758 19.1895C-2.5957 19.5332 -2.35547 19.7949 -2.04688 19.9746C-1.73828 20.1504 -1.38086 20.2383 -0.974609 20.2383C-0.712891 20.2383 -0.474609 20.2012 -0.259766 20.127C-0.0449219 20.0488 0.140625 19.9336 0.296875 19.7812C0.453125 19.625 0.572266 19.4336 0.654297 19.207L1.62695 19.4883C1.52539 19.8164 1.35352 20.1055 1.11133 20.3555C0.873047 20.6016 0.576172 20.7949 0.220703 20.9355C-0.134766 21.0723 -0.533203 21.1406 -0.974609 21.1406ZM5.42383 21.1406C4.79492 21.1406 4.25 21 3.78906 20.7188C3.33203 20.4375 2.98047 20.0449 2.73438 19.541C2.48828 19.0332 2.36523 18.4453 2.36523 17.7773C2.36523 17.1055 2.48633 16.5137 2.72852 16.002C2.9707 15.4902 3.31055 15.0898 3.74805 14.8008C4.18945 14.5117 4.70508 14.3672 5.29492 14.3672C5.63477 14.3672 5.97266 14.4238 6.30859 14.5371C6.64453 14.6504 6.94922 14.834 7.22266 15.0879C7.5 15.3418 7.7207 15.6777 7.88477 16.0957C8.04883 16.5137 8.13086 17.0273 8.13086 17.6367V18.0703H3.08008V17.2031H7.58594L7.12305 17.5312C7.12305 17.0938 7.05469 16.7051 6.91797 16.3652C6.78125 16.0254 6.57617 15.7578 6.30273 15.5625C6.0332 15.3672 5.69727 15.2695 5.29492 15.2695C4.89258 15.2695 4.54688 15.3691 4.25781 15.5684C3.97266 15.7637 3.75391 16.0195 3.60156 16.3359C3.44922 16.6523 3.37305 16.9922 3.37305 17.3555V17.9297C3.37305 18.4258 3.45898 18.8457 3.63086 19.1895C3.80273 19.5332 4.04297 19.7949 4.35156 19.9746C4.66016 20.1504 5.01758 20.2383 5.42383 20.2383C5.68555 20.2383 5.92383 20.2012 6.13867 20.127C6.35352 20.0488 6.53906 19.9336 6.69531 19.7812C6.85156 19.625 6.9707 19.4336 7.05273 19.207L8.02539 19.4883C7.92383 19.8164 7.75195 20.1055 7.50977 20.3555C7.27148 20.6016 6.97461 20.7949 6.61914 20.9355C6.26367 21.0723 5.86523 21.1406 5.42383 21.1406ZM11.916 14.4492V15.3047H8.5293V14.4492H11.916ZM9.51367 12.8906H10.5098V19.125C10.5098 19.4648 10.5801 19.7148 10.7207 19.875C10.8613 20.0312 11.084 20.1094 11.3887 20.1094C11.4551 20.1094 11.5234 20.1055 11.5938 20.0977C11.668 20.0898 11.748 20.0781 11.834 20.0625L12.0449 20.9648C11.9512 21 11.8359 21.0273 11.6992 21.0469C11.5664 21.0703 11.4316 21.082 11.2949 21.082C10.7676 21.082 10.3379 20.9258 10.0059 20.6133C9.67773 20.3008 9.51367 19.8945 9.51367 19.3945V12.8906ZM19.3398 21.1172C18.5977 21.1172 17.9355 20.9355 17.3535 20.5723C16.7715 20.209 16.3125 19.6934 15.9766 19.0254C15.6445 18.3535 15.4785 17.5586 15.4785 16.6406C15.4785 15.7188 15.6445 14.9219 15.9766 14.25C16.3125 13.5781 16.7715 13.0605 17.3535 12.6973C17.9355 12.334 18.5977 12.1523 19.3398 12.1523C20.0859 12.1523 20.748 12.334 21.3262 12.6973C21.9043 13.0605 22.3594 13.5781 22.6914 14.25C23.0234 14.9219 23.1895 15.7188 23.1895 16.6406C23.1895 17.5586 23.0234 18.3535 22.6914 19.0254C22.3594 19.6934 21.9043 20.209 21.3262 20.5723C20.748 20.9355 20.0859 21.1172 19.3398 21.1172ZM19.3398 20.1328C19.8672 20.1328 20.3438 20 20.7695 19.7344C21.1992 19.4648 21.5391 19.0703 21.7891 18.5508C22.043 18.0312 22.1699 17.3945 22.1699 16.6406C22.1699 15.8828 22.043 15.2441 21.7891 14.7246C21.5391 14.2012 21.1992 13.8066 20.7695 13.541C20.3438 13.2715 19.8672 13.1367 19.3398 13.1367C18.8125 13.1367 18.334 13.2715 17.9043 13.541C17.4746 13.8066 17.1328 14.2012 16.8789 14.7246C16.625 15.2441 16.498 15.8828 16.498 16.6406C16.498 17.3945 16.625 18.0312 16.8789 18.5508C17.1328 19.0703 17.4746 19.4648 17.9043 19.7344C18.334 20 18.8125 20.1328 19.3398 20.1328ZM28.3926 18.3281V14.4492H29.3887V21H28.3926V19.8867H28.3223C28.166 20.2188 27.9258 20.502 27.6016 20.7363C27.2812 20.9707 26.873 21.0859 26.377 21.082C25.9668 21.082 25.6035 20.9941 25.2871 20.8184C24.9707 20.6387 24.7207 20.3652 24.5371 19.998C24.3574 19.6309 24.2676 19.168 24.2676 18.6094V14.4492H25.2637V18.5508C25.2637 19.0234 25.3984 19.4023 25.668 19.6875C25.9414 19.9727 26.2871 20.1133 26.7051 20.1094C26.9551 20.1094 27.209 20.0469 27.4668 19.9219C27.7285 19.793 27.9473 19.5977 28.123 19.3359C28.3027 19.0703 28.3926 18.7344 28.3926 18.3281ZM30.6777 21V14.4492H31.6387V15.4453H31.709C31.8301 15.1211 32.0469 14.8594 32.3594 14.6602C32.6758 14.457 33.0293 14.3555 33.4199 14.3555C33.4941 14.3555 33.5859 14.3574 33.6953 14.3613C33.8047 14.3613 33.8887 14.3633 33.9473 14.3672V15.3867C33.9121 15.3789 33.834 15.3672 33.7129 15.3516C33.5918 15.3359 33.4629 15.3281 33.3262 15.3281C33.0098 15.3281 32.7266 15.3945 32.4766 15.5273C32.2266 15.6602 32.0293 15.8418 31.8848 16.0723C31.7441 16.3027 31.6738 16.5664 31.6738 16.8633V21H30.6777ZM37.5215 21V12.2695H42.7949V13.207H38.5762V16.125H42.5137V17.0625H38.5762V20.0625H42.8535V21H37.5215ZM44.752 14.4492L46.3105 17.1328L47.8809 14.4492H49.041L46.9316 17.7305L49.041 21H47.8809L46.3105 18.457L44.752 21H43.5918L45.666 17.7305L43.5918 14.4492H44.752ZM49.9199 23.4492V14.4492H50.8809V15.4922H50.998C51.0723 15.3789 51.1758 15.2344 51.3086 15.0586C51.4414 14.8789 51.6328 14.7188 51.8828 14.5781C52.1328 14.4375 52.4707 14.3672 52.8965 14.3672C53.4473 14.3672 53.9316 14.5059 54.3496 14.7832C54.7676 15.0566 55.0938 15.4473 55.3281 15.9551C55.5664 16.459 55.6855 17.0547 55.6855 17.7422C55.6855 18.4336 55.5684 19.0352 55.334 19.5469C55.0996 20.0547 54.7734 20.4473 54.3555 20.7246C53.9375 21.002 53.4551 21.1406 52.9082 21.1406C52.4902 21.1406 52.1543 21.0703 51.9004 20.9297C51.6465 20.7852 51.4512 20.623 51.3145 20.4434C51.1777 20.2598 51.0723 20.1094 50.998 19.9922H50.916V23.4492H49.9199ZM52.7793 20.2383C53.1973 20.2383 53.5469 20.127 53.8281 19.9043C54.1094 19.6777 54.3203 19.375 54.4609 18.9961C54.6055 18.6172 54.6777 18.1953 54.6777 17.7305C54.6777 17.2695 54.6074 16.8535 54.4668 16.4824C54.3262 16.1113 54.1152 15.8164 53.834 15.5977C53.5566 15.3789 53.2051 15.2695 52.7793 15.2695C52.3691 15.2695 52.0254 15.373 51.748 15.5801C51.4707 15.7832 51.2598 16.0703 51.1152 16.4414C50.9746 16.8086 50.9043 17.2383 50.9043 17.7305C50.9043 18.2227 50.9766 18.6582 51.1211 19.0371C51.2656 19.4121 51.4766 19.707 51.7539 19.9219C52.0352 20.1328 52.377 20.2383 52.7793 20.2383ZM59.4004 21.1406C58.7715 21.1406 58.2266 21 57.7656 20.7188C57.3086 20.4375 56.957 20.0449 56.7109 19.541C56.4648 19.0332 56.3418 18.4453 56.3418 17.7773C56.3418 17.1055 56.4629 16.5137 56.7051 16.002C56.9473 15.4902 57.2871 15.0898 57.7246 14.8008C58.166 14.5117 58.6816 14.3672 59.2715 14.3672C59.6113 14.3672 59.9492 14.4238 60.2852 14.5371C60.6211 14.6504 60.9258 14.834 61.1992 15.0879C61.4766 15.3418 61.6973 15.6777 61.8613 16.0957C62.0254 16.5137 62.1074 17.0273 62.1074 17.6367V18.0703H57.0566V17.2031H61.5625L61.0996 17.5312C61.0996 17.0938 61.0312 16.7051 60.8945 16.3652C60.7578 16.0254 60.5527 15.7578 60.2793 15.5625C60.0098 15.3672 59.6738 15.2695 59.2715 15.2695C58.8691 15.2695 58.5234 15.3691 58.2344 15.5684C57.9492 15.7637 57.7305 16.0195 57.5781 16.3359C57.4258 16.6523 57.3496 16.9922 57.3496 17.3555V17.9297C57.3496 18.4258 57.4355 18.8457 57.6074 19.1895C57.7793 19.5332 58.0195 19.7949 58.3281 19.9746C58.6367 20.1504 58.9941 20.2383 59.4004 20.2383C59.6621 20.2383 59.9004 20.2012 60.1152 20.127C60.3301 20.0488 60.5156 19.9336 60.6719 19.7812C60.8281 19.625 60.9473 19.4336 61.0293 19.207L62.002 19.4883C61.9004 19.8164 61.7285 20.1055 61.4863 20.3555C61.248 20.6016 60.9512 20.7949 60.5957 20.9355C60.2402 21.0723 59.8418 21.1406 59.4004 21.1406ZM63.0566 21V14.4492H64.0176V15.4453H64.0879C64.209 15.1211 64.4258 14.8594 64.7383 14.6602C65.0547 14.457 65.4082 14.3555 65.7988 14.3555C65.873 14.3555 65.9648 14.3574 66.0742 14.3613C66.1836 14.3613 66.2676 14.3633 66.3262 14.3672V15.3867C66.291 15.3789 66.2129 15.3672 66.0918 15.3516C65.9707 15.3359 65.8418 15.3281 65.7051 15.3281C65.3887 15.3281 65.1055 15.3945 64.8555 15.5273C64.6055 15.6602 64.4082 15.8418 64.2637 16.0723C64.123 16.3027 64.0527 16.5664 64.0527 16.8633V21H63.0566ZM70.2051 14.4492V15.3047H66.8184V14.4492H70.2051ZM67.8027 12.8906H68.7988V19.125C68.7988 19.4648 68.8691 19.7148 69.0098 19.875C69.1504 20.0312 69.373 20.1094 69.6777 20.1094C69.7441 20.1094 69.8125 20.1055 69.8828 20.0977C69.957 20.0898 70.0371 20.0781 70.123 20.0625L70.334 20.9648C70.2402 21 70.125 21.0273 69.9883 21.0469C69.8555 21.0703 69.7207 21.082 69.584 21.082C69.0566 21.082 68.627 20.9258 68.2949 20.6133C67.9668 20.3008 67.8027 19.8945 67.8027 19.3945V12.8906Z" fill="black"/>
<line x1="88" y1="11" x2="88" y2="23" stroke="#F55252" stroke-width="2"/>
<line x1="96" y1="9" x2="96" y2="25" stroke="#F55252" stroke-width="2"/>
<line x1="104" y1="8" x2="104" y2="26" stroke="#F55252" stroke-width="2"/>
<line x1="112" y1="6" x2="112" y2="28" stroke="#F55252" stroke-width="2"/>
<path d="M128.432 24V10.9043H133.459C134.402 10.9043 135.188 11.0537 135.814 11.3525C136.441 11.6455 136.91 12.0498 137.221 12.5654C137.531 13.0752 137.687 13.6523 137.687 14.2969C137.687 14.8301 137.584 15.2871 137.379 15.668C137.18 16.043 136.907 16.3477 136.562 16.582C136.216 16.8164 135.829 16.9863 135.401 17.0918V17.2236C135.87 17.2412 136.315 17.3818 136.737 17.6455C137.165 17.9033 137.514 18.2666 137.783 18.7354C138.059 19.2041 138.196 19.7695 138.196 20.4316C138.196 21.1113 138.032 21.7207 137.704 22.2598C137.382 22.793 136.89 23.2178 136.228 23.5342C135.571 23.8447 134.742 24 133.74 24H128.432ZM130.805 22.0225H133.354C134.215 22.0225 134.836 21.8555 135.217 21.5215C135.604 21.1875 135.797 20.7627 135.797 20.2471C135.797 19.8545 135.7 19.5029 135.507 19.1924C135.313 18.8818 135.038 18.6357 134.681 18.4541C134.329 18.2725 133.913 18.1816 133.433 18.1816H130.805V22.0225ZM130.805 16.4766H133.16C133.564 16.4766 133.931 16.4004 134.259 16.248C134.587 16.0957 134.845 15.8818 135.032 15.6064C135.226 15.3252 135.322 14.9941 135.322 14.6133C135.322 14.1094 135.144 13.6934 134.786 13.3652C134.429 13.0312 133.904 12.8643 133.213 12.8643H130.805V16.4766ZM145.289 24.1758C144.146 24.1758 143.118 23.9092 142.204 23.376C141.296 22.8428 140.578 22.0752 140.051 21.0732C139.529 20.0713 139.269 18.8672 139.269 17.4609C139.269 16.0488 139.529 14.8418 140.051 13.8398C140.578 12.832 141.296 12.0615 142.204 11.5283C143.118 10.9951 144.146 10.7285 145.289 10.7285C146.438 10.7285 147.463 10.9951 148.365 11.5283C149.268 12.0615 149.982 12.832 150.51 13.8398C151.037 14.8418 151.301 16.0488 151.301 17.4609C151.301 18.8672 151.037 20.0713 150.51 21.0732C149.982 22.0752 149.268 22.8428 148.365 23.376C147.463 23.9092 146.438 24.1758 145.289 24.1758ZM145.289 22.0488C145.998 22.0488 146.625 21.873 147.17 21.5215C147.715 21.1699 148.143 20.6543 148.453 19.9746C148.764 19.2891 148.919 18.4512 148.919 17.4609C148.919 16.4648 148.764 15.624 148.453 14.9385C148.143 14.2529 147.715 13.7344 147.17 13.3828C146.625 13.0312 145.998 12.8555 145.289 12.8555C144.58 12.8555 143.95 13.0312 143.399 13.3828C142.854 13.7344 142.427 14.2529 142.116 14.9385C141.806 15.624 141.65 16.4648 141.65 17.4609C141.65 18.4512 141.806 19.2891 142.116 19.9746C142.427 20.6543 142.854 21.1699 143.399 21.5215C143.95 21.873 144.58 22.0488 145.289 22.0488ZM158.561 24.1758C157.418 24.1758 156.39 23.9092 155.476 23.376C154.567 22.8428 153.85 22.0752 153.322 21.0732C152.801 20.0713 152.54 18.8672 152.54 17.4609C152.54 16.0488 152.801 14.8418 153.322 13.8398C153.85 12.832 154.567 12.0615 155.476 11.5283C156.39 10.9951 157.418 10.7285 158.561 10.7285C159.709 10.7285 160.734 10.9951 161.637 11.5283C162.539 12.0615 163.254 12.832 163.781 13.8398C164.309 14.8418 164.572 16.0488 164.572 17.4609C164.572 18.8672 164.309 20.0713 163.781 21.0732C163.254 22.0752 162.539 22.8428 161.637 23.376C160.734 23.9092 159.709 24.1758 158.561 24.1758ZM158.561 22.0488C159.27 22.0488 159.896 21.873 160.441 21.5215C160.986 21.1699 161.414 20.6543 161.725 19.9746C162.035 19.2891 162.19 18.4512 162.19 17.4609C162.19 16.4648 162.035 15.624 161.725 14.9385C161.414 14.2529 160.986 13.7344 160.441 13.3828C159.896 13.0312 159.27 12.8555 158.561 12.8555C157.852 12.8555 157.222 13.0312 156.671 13.3828C156.126 13.7344 155.698 14.2529 155.388 14.9385C155.077 15.624 154.922 16.4648 154.922 17.4609C154.922 18.4512 155.077 19.2891 155.388 19.9746C155.698 20.6543 156.126 21.1699 156.671 21.5215C157.222 21.873 157.852 22.0488 158.561 22.0488ZM166.137 24V10.9043H168.51V16.9248H168.668L173.783 10.9043H176.675L171.612 16.7842L176.719 24H173.862L169.96 18.3926L168.51 20.1064V24H166.137ZM184.225 24L180.533 10.9043H183.082L185.446 20.5283H185.561L188.083 10.9043H190.412L192.917 20.5371H193.049L195.396 10.9043H197.962L194.262 24H191.915L189.296 14.8242H189.19L186.58 24H184.225ZM201.328 10.9043V24H198.955V10.9043H201.328ZM202.655 12.8906V10.9043H213.097V12.8906H209.054V24H206.707V12.8906H202.655ZM214.424 24V10.9043H216.797V16.4502H222.861V10.9043H225.234V24H222.861V18.4453H216.797V24H214.424ZM239.191 10.9043H241.556V19.4561C241.556 20.3936 241.336 21.2197 240.896 21.9346C240.457 22.6436 239.839 23.2002 239.042 23.6045C238.245 24.0029 237.313 24.2021 236.247 24.2021C235.181 24.2021 234.249 24.0029 233.452 23.6045C232.655 23.2002 232.034 22.6436 231.589 21.9346C231.149 21.2197 230.93 20.3936 230.93 19.4561V10.9043H233.303V19.2627C233.303 19.8135 233.423 20.2998 233.663 20.7217C233.903 21.1436 234.243 21.4775 234.683 21.7236C235.128 21.9639 235.649 22.084 236.247 22.084C236.845 22.084 237.363 21.9639 237.803 21.7236C238.242 21.4775 238.582 21.1436 238.822 20.7217C239.068 20.2998 239.191 19.8135 239.191 19.2627V10.9043ZM248.086 24.2021C247.066 24.2021 246.182 24.0439 245.432 23.7275C244.682 23.4111 244.096 22.9512 243.674 22.3477C243.252 21.7383 243.023 21 242.988 20.1328H245.326C245.361 20.5898 245.502 20.9707 245.748 21.2754C245.994 21.5742 246.316 21.7998 246.715 21.9521C247.119 22.1045 247.567 22.1807 248.06 22.1807C248.575 22.1807 249.029 22.1016 249.422 21.9434C249.814 21.7852 250.122 21.5654 250.345 21.2842C250.567 21.0029 250.679 20.6748 250.679 20.2998C250.679 19.96 250.579 19.6816 250.38 19.4648C250.181 19.2422 249.905 19.0547 249.554 18.9023C249.202 18.75 248.789 18.6152 248.314 18.498L246.829 18.1113C245.751 17.8359 244.901 17.417 244.28 16.8545C243.659 16.2861 243.349 15.5303 243.349 14.5869C243.349 13.8135 243.557 13.1396 243.973 12.5654C244.389 11.9854 244.957 11.5342 245.678 11.2119C246.404 10.8896 247.225 10.7285 248.139 10.7285C249.07 10.7285 249.888 10.8896 250.591 11.2119C251.294 11.5342 251.845 11.9795 252.243 12.5479C252.642 13.1162 252.85 13.7695 252.867 14.5078H250.573C250.515 13.9453 250.266 13.5117 249.826 13.207C249.393 12.8965 248.821 12.7412 248.112 12.7412C247.62 12.7412 247.195 12.8145 246.838 12.9609C246.486 13.1074 246.217 13.3096 246.029 13.5674C245.842 13.8252 245.748 14.1182 245.748 14.4463C245.748 14.8096 245.856 15.1084 246.073 15.3428C246.296 15.5713 246.577 15.7559 246.917 15.8965C247.263 16.0371 247.614 16.1543 247.972 16.248L249.193 16.5557C249.686 16.6729 250.16 16.8311 250.617 17.0303C251.074 17.2236 251.484 17.4697 251.848 17.7686C252.217 18.0615 252.507 18.4189 252.718 18.8408C252.935 19.2627 253.043 19.7578 253.043 20.3262C253.043 21.0879 252.847 21.7617 252.454 22.3477C252.062 22.9277 251.496 23.3818 250.758 23.71C250.02 24.0381 249.129 24.2021 248.086 24.2021Z" fill="#F55252"/>
<line y1="-1" x2="12" y2="-1" transform="matrix(4.37114e-08 1 1 -4.37114e-08 294 11)" stroke="#F55252" stroke-width="2"/>
<line y1="-1" x2="16" y2="-1" transform="matrix(4.37114e-08 1 1 -4.37114e-08 286 9)" stroke="#F55252" stroke-width="2"/>
<line y1="-1" x2="18" y2="-1" transform="matrix(4.37114e-08 1 1 -4.37114e-08 278 8)" stroke="#F55252" stroke-width="2"/>
<line y1="-1" x2="22" y2="-1" transform="matrix(4.37114e-08 1 1 -4.37114e-08 270 6)" stroke="#F55252" stroke-width="2"/>
<path d="M310.887 21V12.2695H313.84C314.523 12.2695 315.082 12.3867 315.516 12.6211C315.953 12.8516 316.277 13.1699 316.488 13.5762C316.699 13.9785 316.805 14.4375 316.805 14.9531C316.805 15.4648 316.699 15.9199 316.488 16.3184C316.281 16.7168 315.959 17.0293 315.521 17.2559C315.088 17.4785 314.531 17.5898 313.852 17.5898H311.473V16.6406H313.816C314.285 16.6406 314.662 16.5723 314.947 16.4355C315.232 16.2988 315.439 16.1055 315.568 15.8555C315.697 15.6016 315.762 15.3008 315.762 14.9531C315.762 14.6016 315.695 14.2949 315.562 14.0332C315.434 13.7715 315.227 13.5684 314.941 13.4238C314.656 13.2793 314.277 13.207 313.805 13.207H311.941V21H310.887ZM315.914 21L313.805 17.0742H315L317.145 21H315.914ZM320.543 21.1406C319.914 21.1406 319.369 21 318.908 20.7188C318.451 20.4375 318.1 20.0449 317.854 19.541C317.607 19.0332 317.484 18.4453 317.484 17.7773C317.484 17.1055 317.605 16.5137 317.848 16.002C318.09 15.4902 318.43 15.0898 318.867 14.8008C319.309 14.5117 319.824 14.3672 320.414 14.3672C320.754 14.3672 321.092 14.4238 321.428 14.5371C321.764 14.6504 322.068 14.834 322.342 15.0879C322.619 15.3418 322.84 15.6777 323.004 16.0957C323.168 16.5137 323.25 17.0273 323.25 17.6367V18.0703H318.199V17.2031H322.705L322.242 17.5312C322.242 17.0938 322.174 16.7051 322.037 16.3652C321.9 16.0254 321.695 15.7578 321.422 15.5625C321.152 15.3672 320.816 15.2695 320.414 15.2695C320.012 15.2695 319.666 15.3691 319.377 15.5684C319.092 15.7637 318.873 16.0195 318.721 16.3359C318.568 16.6523 318.492 16.9922 318.492 17.3555V17.9297C318.492 18.4258 318.578 18.8457 318.75 19.1895C318.922 19.5332 319.162 19.7949 319.471 19.9746C319.779 20.1504 320.137 20.2383 320.543 20.2383C320.805 20.2383 321.043 20.2012 321.258 20.127C321.473 20.0488 321.658 19.9336 321.814 19.7812C321.971 19.625 322.09 19.4336 322.172 19.207L323.145 19.4883C323.043 19.8164 322.871 20.1055 322.629 20.3555C322.391 20.6016 322.094 20.7949 321.738 20.9355C321.383 21.0723 320.984 21.1406 320.543 21.1406ZM326.848 21.1406C326.238 21.1406 325.711 20.9961 325.266 20.707C324.824 20.4141 324.482 20.0137 324.24 19.5059C324.002 18.998 323.883 18.418 323.883 17.7656C323.883 17.0977 324.006 16.5098 324.252 16.002C324.498 15.4902 324.842 15.0898 325.283 14.8008C325.729 14.5117 326.246 14.3672 326.836 14.3672C327.297 14.3672 327.711 14.4531 328.078 14.625C328.449 14.793 328.752 15.0312 328.986 15.3398C329.225 15.6484 329.371 16.0078 329.426 16.418H328.418C328.367 16.2188 328.275 16.0312 328.143 15.8555C328.01 15.6797 327.834 15.5391 327.615 15.4336C327.4 15.3242 327.145 15.2695 326.848 15.2695C326.457 15.2695 326.115 15.3711 325.822 15.5742C325.529 15.7773 325.301 16.0645 325.137 16.4355C324.973 16.8027 324.891 17.2344 324.891 17.7305C324.891 18.2344 324.971 18.6758 325.131 19.0547C325.291 19.4297 325.518 19.7207 325.811 19.9277C326.107 20.1348 326.453 20.2383 326.848 20.2383C327.242 20.2383 327.58 20.1367 327.861 19.9336C328.143 19.7266 328.328 19.4453 328.418 19.0898H329.426C329.371 19.4766 329.23 19.8242 329.004 20.1328C328.781 20.4414 328.486 20.6875 328.119 20.8711C327.756 21.0508 327.332 21.1406 326.848 21.1406ZM333.117 21.1406C332.488 21.1406 331.943 21 331.482 20.7188C331.025 20.4375 330.674 20.0449 330.428 19.541C330.182 19.0332 330.059 18.4453 330.059 17.7773C330.059 17.1055 330.18 16.5137 330.422 16.002C330.664 15.4902 331.004 15.0898 331.441 14.8008C331.883 14.5117 332.398 14.3672 332.988 14.3672C333.328 14.3672 333.666 14.4238 334.002 14.5371C334.338 14.6504 334.643 14.834 334.916 15.0879C335.193 15.3418 335.414 15.6777 335.578 16.0957C335.742 16.5137 335.824 17.0273 335.824 17.6367V18.0703H330.773V17.2031H335.279L334.816 17.5312C334.816 17.0938 334.748 16.7051 334.611 16.3652C334.475 16.0254 334.27 15.7578 333.996 15.5625C333.727 15.3672 333.391 15.2695 332.988 15.2695C332.586 15.2695 332.24 15.3691 331.951 15.5684C331.666 15.7637 331.447 16.0195 331.295 16.3359C331.143 16.6523 331.066 16.9922 331.066 17.3555V17.9297C331.066 18.4258 331.152 18.8457 331.324 19.1895C331.496 19.5332 331.736 19.7949 332.045 19.9746C332.354 20.1504 332.711 20.2383 333.117 20.2383C333.379 20.2383 333.617 20.2012 333.832 20.127C334.047 20.0488 334.232 19.9336 334.389 19.7812C334.545 19.625 334.664 19.4336 334.746 19.207L335.719 19.4883C335.617 19.8164 335.445 20.1055 335.203 20.3555C334.965 20.6016 334.668 20.7949 334.312 20.9355C333.957 21.0723 333.559 21.1406 333.117 21.1406ZM336.773 21V14.4492H337.77V21H336.773ZM337.277 13.3594C337.082 13.3594 336.914 13.293 336.773 13.1602C336.633 13.0273 336.562 12.8672 336.562 12.6797C336.562 12.4922 336.633 12.332 336.773 12.1992C336.914 12.0664 337.082 12 337.277 12C337.473 12 337.641 12.0664 337.781 12.1992C337.922 12.332 337.992 12.4922 337.992 12.6797C337.992 12.8672 337.922 13.0273 337.781 13.1602C337.641 13.293 337.473 13.3594 337.277 13.3594ZM344.402 14.4492L341.988 21H340.957L338.543 14.4492H339.633L341.438 19.6758H341.508L343.312 14.4492H344.402ZM347.684 21.1406C347.055 21.1406 346.51 21 346.049 20.7188C345.592 20.4375 345.24 20.0449 344.994 19.541C344.748 19.0332 344.625 18.4453 344.625 17.7773C344.625 17.1055 344.746 16.5137 344.988 16.002C345.23 15.4902 345.57 15.0898 346.008 14.8008C346.449 14.5117 346.965 14.3672 347.555 14.3672C347.895 14.3672 348.232 14.4238 348.568 14.5371C348.904 14.6504 349.209 14.834 349.482 15.0879C349.76 15.3418 349.98 15.6777 350.145 16.0957C350.309 16.5137 350.391 17.0273 350.391 17.6367V18.0703H345.34V17.2031H349.846L349.383 17.5312C349.383 17.0938 349.314 16.7051 349.178 16.3652C349.041 16.0254 348.836 15.7578 348.562 15.5625C348.293 15.3672 347.957 15.2695 347.555 15.2695C347.152 15.2695 346.807 15.3691 346.518 15.5684C346.232 15.7637 346.014 16.0195 345.861 16.3359C345.709 16.6523 345.633 16.9922 345.633 17.3555V17.9297C345.633 18.4258 345.719 18.8457 345.891 19.1895C346.062 19.5332 346.303 19.7949 346.611 19.9746C346.92 20.1504 347.277 20.2383 347.684 20.2383C347.945 20.2383 348.184 20.2012 348.398 20.127C348.613 20.0488 348.799 19.9336 348.955 19.7812C349.111 19.625 349.23 19.4336 349.312 19.207L350.285 19.4883C350.184 19.8164 350.012 20.1055 349.77 20.3555C349.531 20.6016 349.234 20.7949 348.879 20.9355C348.523 21.0723 348.125 21.1406 347.684 21.1406ZM356.977 21H354.879V20.0625H356.906C357.629 20.0625 358.227 19.9238 358.699 19.6465C359.176 19.3691 359.531 18.9727 359.766 18.457C360 17.9414 360.117 17.3281 360.117 16.6172C360.117 15.9141 360.002 15.3086 359.771 14.8008C359.541 14.2891 359.195 13.8965 358.734 13.623C358.277 13.3457 357.707 13.207 357.023 13.207H354.832V12.2695H357.094C357.941 12.2695 358.666 12.4434 359.268 12.791C359.873 13.1387 360.336 13.6387 360.656 14.291C360.977 14.9395 361.137 15.7148 361.137 16.6172C361.137 17.5273 360.975 18.3105 360.65 18.9668C360.326 19.6191 359.854 20.1211 359.232 20.4727C358.615 20.8242 357.863 21 356.977 21ZM355.336 12.2695V21H354.281V12.2695H355.336ZM364.957 21.1406C364.328 21.1406 363.783 21 363.322 20.7188C362.865 20.4375 362.514 20.0449 362.268 19.541C362.021 19.0332 361.898 18.4453 361.898 17.7773C361.898 17.1055 362.02 16.5137 362.262 16.002C362.504 15.4902 362.844 15.0898 363.281 14.8008C363.723 14.5117 364.238 14.3672 364.828 14.3672C365.168 14.3672 365.506 14.4238 365.842 14.5371C366.178 14.6504 366.482 14.834 366.756 15.0879C367.033 15.3418 367.254 15.6777 367.418 16.0957C367.582 16.5137 367.664 17.0273 367.664 17.6367V18.0703H362.613V17.2031H367.119L366.656 17.5312C366.656 17.0938 366.588 16.7051 366.451 16.3652C366.314 16.0254 366.109 15.7578 365.836 15.5625C365.566 15.3672 365.23 15.2695 364.828 15.2695C364.426 15.2695 364.08 15.3691 363.791 15.5684C363.506 15.7637 363.287 16.0195 363.135 16.3359C362.982 16.6523 362.906 16.9922 362.906 17.3555V17.9297C362.906 18.4258 362.992 18.8457 363.164 19.1895C363.336 19.5332 363.576 19.7949 363.885 19.9746C364.193 20.1504 364.551 20.2383 364.957 20.2383C365.219 20.2383 365.457 20.2012 365.672 20.127C365.887 20.0488 366.072 19.9336 366.229 19.7812C366.385 19.625 366.504 19.4336 366.586 19.207L367.559 19.4883C367.457 19.8164 367.285 20.1055 367.043 20.3555C366.805 20.6016 366.508 20.7949 366.152 20.9355C365.797 21.0723 365.398 21.1406 364.957 21.1406ZM373.242 15.9258L372.34 16.1719C372.254 15.9492 372.105 15.7383 371.895 15.5391C371.688 15.3359 371.363 15.2344 370.922 15.2344C370.523 15.2344 370.191 15.3281 369.926 15.5156C369.66 15.6992 369.527 15.9297 369.527 16.207C369.527 16.457 369.617 16.6562 369.797 16.8047C369.98 16.9531 370.266 17.0742 370.652 17.168L371.625 17.4023C372.207 17.543 372.641 17.7598 372.926 18.0527C373.215 18.3457 373.359 18.7188 373.359 19.1719C373.359 19.5469 373.252 19.8828 373.037 20.1797C372.822 20.4766 372.523 20.7109 372.141 20.8828C371.758 21.0547 371.312 21.1406 370.805 21.1406C370.137 21.1406 369.584 20.9941 369.146 20.7012C368.713 20.4082 368.438 19.9844 368.32 19.4297L369.27 19.1953C369.359 19.5469 369.531 19.8105 369.785 19.9863C370.043 20.1621 370.379 20.25 370.793 20.25C371.258 20.25 371.629 20.1504 371.906 19.9512C372.188 19.748 372.328 19.5078 372.328 19.2305C372.328 18.7695 372.004 18.4609 371.355 18.3047L370.266 18.0469C369.664 17.9023 369.223 17.6816 368.941 17.3848C368.66 17.0879 368.52 16.7148 368.52 16.2656C368.52 15.8945 368.623 15.5664 368.83 15.2812C369.041 14.9961 369.328 14.7734 369.691 14.6133C370.055 14.4492 370.465 14.3672 370.922 14.3672C371.574 14.3672 372.084 14.5117 372.451 14.8008C372.822 15.0859 373.086 15.4609 373.242 15.9258ZM374.32 21V14.4492H375.316V21H374.32ZM374.824 13.3594C374.629 13.3594 374.461 13.293 374.32 13.1602C374.18 13.0273 374.109 12.8672 374.109 12.6797C374.109 12.4922 374.18 12.332 374.32 12.1992C374.461 12.0664 374.629 12 374.824 12C375.02 12 375.188 12.0664 375.328 12.1992C375.469 12.332 375.539 12.4922 375.539 12.6797C375.539 12.8672 375.469 13.0273 375.328 13.1602C375.188 13.293 375.02 13.3594 374.824 13.3594ZM379.242 23.5898C378.512 23.5898 377.934 23.457 377.508 23.1914C377.086 22.9258 376.773 22.6211 376.57 22.2773L377.367 21.7148C377.457 21.8359 377.572 21.9727 377.713 22.125C377.854 22.2812 378.045 22.416 378.287 22.5293C378.529 22.6426 378.848 22.6992 379.242 22.6992C379.77 22.6992 380.205 22.5723 380.549 22.3184C380.896 22.0645 381.07 21.6641 381.07 21.1172V19.793H380.977C380.906 19.9102 380.803 20.0566 380.666 20.2324C380.533 20.4043 380.34 20.5586 380.086 20.6953C379.836 20.8281 379.496 20.8945 379.066 20.8945C378.539 20.8945 378.066 20.7695 377.648 20.5195C377.23 20.2695 376.898 19.9062 376.652 19.4297C376.41 18.9531 376.289 18.375 376.289 17.6953C376.289 17.0234 376.406 16.4395 376.641 15.9434C376.879 15.4434 377.209 15.0566 377.631 14.7832C378.053 14.5059 378.539 14.3672 379.09 14.3672C379.516 14.3672 379.854 14.4375 380.104 14.5781C380.357 14.7188 380.551 14.8789 380.684 15.0586C380.82 15.2344 380.926 15.3789 381 15.4922H381.105V14.4492H382.066V21.1875C382.066 21.75 381.939 22.207 381.686 22.5586C381.436 22.9141 381.096 23.1738 380.666 23.3379C380.24 23.5059 379.766 23.5898 379.242 23.5898ZM379.207 19.9922C379.812 19.9922 380.275 19.7871 380.596 19.377C380.92 18.9668 381.082 18.3984 381.082 17.6719C381.082 17.1992 381.012 16.7832 380.871 16.4238C380.73 16.0645 380.52 15.7832 380.238 15.5801C379.961 15.373 379.617 15.2695 379.207 15.2695C378.781 15.2695 378.426 15.3789 378.141 15.5977C377.859 15.8125 377.648 16.1016 377.508 16.4648C377.367 16.8281 377.297 17.2305 377.297 17.6719C377.297 18.125 377.367 18.5273 377.508 18.8789C377.652 19.2266 377.867 19.5 378.152 19.6992C378.438 19.8945 378.789 19.9922 379.207 19.9922ZM384.352 17.0625V21H383.355V14.4492H384.316V15.4805H384.41C384.562 15.1445 384.795 14.875 385.107 14.6719C385.42 14.4688 385.824 14.3672 386.32 14.3672C386.762 14.3672 387.148 14.457 387.48 14.6367C387.812 14.8164 388.07 15.0898 388.254 15.457C388.441 15.8203 388.535 16.2812 388.535 16.8398V21H387.539V16.9102C387.539 16.3984 387.404 15.998 387.135 15.709C386.865 15.416 386.498 15.2695 386.033 15.2695C385.713 15.2695 385.426 15.3398 385.172 15.4805C384.918 15.6211 384.717 15.8242 384.568 16.0898C384.424 16.3555 384.352 16.6797 384.352 17.0625ZM394.453 15.9258L393.551 16.1719C393.465 15.9492 393.316 15.7383 393.105 15.5391C392.898 15.3359 392.574 15.2344 392.133 15.2344C391.734 15.2344 391.402 15.3281 391.137 15.5156C390.871 15.6992 390.738 15.9297 390.738 16.207C390.738 16.457 390.828 16.6562 391.008 16.8047C391.191 16.9531 391.477 17.0742 391.863 17.168L392.836 17.4023C393.418 17.543 393.852 17.7598 394.137 18.0527C394.426 18.3457 394.57 18.7188 394.57 19.1719C394.57 19.5469 394.463 19.8828 394.248 20.1797C394.033 20.4766 393.734 20.7109 393.352 20.8828C392.969 21.0547 392.523 21.1406 392.016 21.1406C391.348 21.1406 390.795 20.9941 390.357 20.7012C389.924 20.4082 389.648 19.9844 389.531 19.4297L390.48 19.1953C390.57 19.5469 390.742 19.8105 390.996 19.9863C391.254 20.1621 391.59 20.25 392.004 20.25C392.469 20.25 392.84 20.1504 393.117 19.9512C393.398 19.748 393.539 19.5078 393.539 19.2305C393.539 18.7695 393.215 18.4609 392.566 18.3047L391.477 18.0469C390.875 17.9023 390.434 17.6816 390.152 17.3848C389.871 17.0879 389.73 16.7148 389.73 16.2656C389.73 15.8945 389.834 15.5664 390.041 15.2812C390.252 14.9961 390.539 14.7734 390.902 14.6133C391.266 14.4492 391.676 14.3672 392.133 14.3672C392.785 14.3672 393.295 14.5117 393.662 14.8008C394.033 15.0859 394.297 15.4609 394.453 15.9258Z" fill="black"/>
</g>
<defs>
<linearGradient id="paint0_linear_596_3867" x1="0" y1="17" x2="380" y2="17" gradientUnits="userSpaceOnUse">
<stop stop-color="#D9D9D9" stop-opacity="0"/>
<stop offset="0.288251" stop-color="#BDBDBD"/>
<stop offset="0.528575" stop-color="#A6A6A6"/>
<stop offset="0.740061" stop-color="#8F8F8F"/>
<stop offset="1" stop-color="#737373" stop-opacity="0"/>
</linearGradient>
</defs>
</svg>
