<svg width="634" height="34" viewBox="0 0 634 34" fill="none" xmlns="http://www.w3.org/2000/svg">
<mask id="mask0_400_7" style="mask-type:alpha" maskUnits="userSpaceOnUse" x="0" y="0" width="634" height="34">
<rect width="634" height="34" fill="url(#paint0_linear_400_7)"/>
</mask>
<g mask="url(#mask0_400_7)">
<path d="M17.4199 6.94922H19.5293L24.4707 19.0195H24.6465L29.5879 6.94922H31.7656V21.5H30.0371V10.4453H29.9004L25.3203 21.5H23.7383L19.2168 10.4453H19.0801V21.5H17.4199V6.94922ZM38.709 21.7344C37.6608 21.7344 36.7526 21.5 35.9844 21.0312C35.2227 20.5625 34.6367 19.9082 34.2266 19.0684C33.8164 18.222 33.6113 17.2422 33.6113 16.1289C33.6113 15.0091 33.8132 14.0228 34.2168 13.1699C34.6204 12.3171 35.1868 11.6497 35.916 11.168C36.6517 10.6862 37.5111 10.4453 38.4941 10.4453C39.0605 10.4453 39.6237 10.5397 40.1836 10.7285C40.7435 10.9173 41.2513 11.2233 41.707 11.6465C42.1693 12.0697 42.5371 12.6296 42.8105 13.3262C43.084 14.0228 43.2207 14.8789 43.2207 15.8945V16.6172H34.8027V15.1719H42.3125L41.541 15.7188C41.541 14.9896 41.4271 14.3418 41.1992 13.7754C40.9714 13.209 40.6296 12.763 40.1738 12.4375C39.7246 12.112 39.1647 11.9492 38.4941 11.9492C37.8236 11.9492 37.2474 12.1152 36.7656 12.4473C36.2904 12.7728 35.9258 13.1992 35.6719 13.7266C35.418 14.2539 35.291 14.8203 35.291 15.4258V16.3828C35.291 17.2096 35.4342 17.9095 35.7207 18.4824C36.0072 19.0553 36.4076 19.4915 36.9219 19.791C37.4362 20.084 38.0319 20.2305 38.709 20.2305C39.1452 20.2305 39.5423 20.1686 39.9004 20.0449C40.2585 19.9147 40.5677 19.7227 40.8281 19.4688C41.0885 19.2083 41.2871 18.8893 41.4238 18.5117L43.0449 18.9805C42.8757 19.5273 42.5892 20.0091 42.1855 20.4258C41.7884 20.8359 41.2936 21.1582 40.7012 21.3926C40.1087 21.6204 39.4447 21.7344 38.709 21.7344ZM49.373 21.7344C48.3249 21.7344 47.4167 21.5 46.6484 21.0312C45.8867 20.5625 45.3008 19.9082 44.8906 19.0684C44.4805 18.222 44.2754 17.2422 44.2754 16.1289C44.2754 15.0091 44.4772 14.0228 44.8809 13.1699C45.2845 12.3171 45.8509 11.6497 46.5801 11.168C47.3158 10.6862 48.1751 10.4453 49.1582 10.4453C49.7246 10.4453 50.2878 10.5397 50.8477 10.7285C51.4076 10.9173 51.9154 11.2233 52.3711 11.6465C52.8333 12.0697 53.2012 12.6296 53.4746 13.3262C53.748 14.0228 53.8848 14.8789 53.8848 15.8945V16.6172H45.4668V15.1719H52.9766L52.2051 15.7188C52.2051 14.9896 52.0911 14.3418 51.8633 13.7754C51.6354 13.209 51.2936 12.763 50.8379 12.4375C50.3887 12.112 49.8288 11.9492 49.1582 11.9492C48.4876 11.9492 47.9115 12.1152 47.4297 12.4473C46.9544 12.7728 46.5898 13.1992 46.3359 13.7266C46.082 14.2539 45.9551 14.8203 45.9551 15.4258V16.3828C45.9551 17.2096 46.0983 17.9095 46.3848 18.4824C46.6712 19.0553 47.0716 19.4915 47.5859 19.791C48.1003 20.084 48.696 20.2305 49.373 20.2305C49.8092 20.2305 50.2064 20.1686 50.5645 20.0449C50.9225 19.9147 51.2318 19.7227 51.4922 19.4688C51.7526 19.2083 51.9512 18.8893 52.0879 18.5117L53.709 18.9805C53.5397 19.5273 53.2533 20.0091 52.8496 20.4258C52.4525 20.8359 51.9577 21.1582 51.3652 21.3926C50.7728 21.6204 50.1087 21.7344 49.373 21.7344ZM60.1934 10.582V12.0078H54.5488V10.582H60.1934ZM56.1895 7.98438H57.8496V18.375C57.8496 18.9414 57.9668 19.3581 58.2012 19.625C58.4355 19.8854 58.8066 20.0156 59.3145 20.0156C59.4251 20.0156 59.5391 20.0091 59.6562 19.9961C59.7799 19.9831 59.9134 19.9635 60.0566 19.9375L60.4082 21.4414C60.252 21.5 60.0599 21.5456 59.832 21.5781C59.6107 21.6172 59.3861 21.6367 59.1582 21.6367C58.2793 21.6367 57.5632 21.3763 57.0098 20.8555C56.4629 20.3346 56.1895 19.6576 56.1895 18.8242V7.98438ZM72.5664 21.6953C71.3294 21.6953 70.2259 21.3926 69.2559 20.7871C68.2858 20.1816 67.5208 19.3223 66.9609 18.209C66.4076 17.0892 66.1309 15.7643 66.1309 14.2344C66.1309 12.6979 66.4076 11.3698 66.9609 10.25C67.5208 9.13021 68.2858 8.26758 69.2559 7.66211C70.2259 7.05664 71.3294 6.75391 72.5664 6.75391C73.8099 6.75391 74.9134 7.05664 75.877 7.66211C76.8405 8.26758 77.599 9.13021 78.1523 10.25C78.7057 11.3698 78.9824 12.6979 78.9824 14.2344C78.9824 15.7643 78.7057 17.0892 78.1523 18.209C77.599 19.3223 76.8405 20.1816 75.877 20.7871C74.9134 21.3926 73.8099 21.6953 72.5664 21.6953ZM72.5664 20.0547C73.4453 20.0547 74.2396 19.8333 74.9492 19.3906C75.6654 18.9414 76.2318 18.2839 76.6484 17.418C77.0716 16.5521 77.2832 15.4909 77.2832 14.2344C77.2832 12.9714 77.0716 11.9069 76.6484 11.041C76.2318 10.1686 75.6654 9.51107 74.9492 9.06836C74.2396 8.61914 73.4453 8.39453 72.5664 8.39453C71.6875 8.39453 70.89 8.61914 70.1738 9.06836C69.4577 9.51107 68.888 10.1686 68.4648 11.041C68.0417 11.9069 67.8301 12.9714 67.8301 14.2344C67.8301 15.4909 68.0417 16.5521 68.4648 17.418C68.888 18.2839 69.4577 18.9414 70.1738 19.3906C70.89 19.8333 71.6875 20.0547 72.5664 20.0547ZM87.6543 17.0469V10.582H89.3145V21.5H87.6543V19.6445H87.5371C87.2767 20.1979 86.8763 20.6699 86.3359 21.0605C85.8021 21.4512 85.1217 21.6432 84.2949 21.6367C83.6113 21.6367 83.0059 21.4902 82.4785 21.1973C81.9512 20.8978 81.5345 20.4421 81.2285 19.8301C80.929 19.2181 80.7793 18.4466 80.7793 17.5156V10.582H82.4395V17.418C82.4395 18.2057 82.6641 18.8372 83.1133 19.3125C83.569 19.7878 84.1452 20.0221 84.8418 20.0156C85.2585 20.0156 85.6816 19.9115 86.1113 19.7031C86.5475 19.4883 86.9121 19.1628 87.2051 18.7266C87.5046 18.2839 87.6543 17.724 87.6543 17.0469ZM91.4629 21.5V10.582H93.0645V12.2422H93.1816C93.3835 11.7018 93.7448 11.2656 94.2656 10.9336C94.793 10.5951 95.3822 10.4258 96.0332 10.4258C96.1569 10.4258 96.3099 10.429 96.4922 10.4355C96.6745 10.4355 96.8145 10.4388 96.9121 10.4453V12.1445C96.8535 12.1315 96.7233 12.112 96.5215 12.0859C96.3197 12.0599 96.1048 12.0469 95.877 12.0469C95.3496 12.0469 94.8776 12.1576 94.4609 12.3789C94.0443 12.6003 93.7155 12.903 93.4746 13.2871C93.2402 13.6712 93.123 14.1107 93.123 14.6055V21.5H91.4629ZM102.869 21.5V6.94922H111.658V8.51172H104.627V13.375H111.189V14.9375H104.627V19.9375H111.756V21.5H102.869ZM114.92 10.582L117.518 15.0547L120.135 10.582H122.068L118.553 16.0508L122.068 21.5H120.135L117.518 17.2617L114.92 21.5H112.986L116.443 16.0508L112.986 10.582H114.92ZM123.533 25.582V10.582H125.135V12.3203H125.33C125.454 12.1315 125.626 11.8906 125.848 11.5977C126.069 11.2982 126.388 11.0312 126.805 10.7969C127.221 10.5625 127.785 10.4453 128.494 10.4453C129.412 10.4453 130.219 10.6764 130.916 11.1387C131.613 11.5944 132.156 12.2454 132.547 13.0918C132.944 13.9316 133.143 14.9245 133.143 16.0703C133.143 17.2227 132.947 18.2253 132.557 19.0781C132.166 19.9245 131.622 20.5788 130.926 21.041C130.229 21.5033 129.425 21.7344 128.514 21.7344C127.817 21.7344 127.257 21.6172 126.834 21.3828C126.411 21.1419 126.085 20.8717 125.857 20.5723C125.63 20.2663 125.454 20.0156 125.33 19.8203H125.193V25.582H123.533ZM128.299 20.2305C128.995 20.2305 129.578 20.0449 130.047 19.6738C130.516 19.2962 130.867 18.7917 131.102 18.1602C131.342 17.5286 131.463 16.8255 131.463 16.0508C131.463 15.2826 131.346 14.5892 131.111 13.9707C130.877 13.3522 130.525 12.8607 130.057 12.4961C129.594 12.1315 129.008 11.9492 128.299 11.9492C127.615 11.9492 127.042 12.1217 126.58 12.4668C126.118 12.8053 125.766 13.2839 125.525 13.9023C125.291 14.5143 125.174 15.2305 125.174 16.0508C125.174 16.8711 125.294 17.597 125.535 18.2285C125.776 18.8535 126.128 19.3451 126.59 19.7031C127.059 20.0547 127.628 20.2305 128.299 20.2305ZM139.334 21.7344C138.286 21.7344 137.378 21.5 136.609 21.0312C135.848 20.5625 135.262 19.9082 134.852 19.0684C134.441 18.222 134.236 17.2422 134.236 16.1289C134.236 15.0091 134.438 14.0228 134.842 13.1699C135.245 12.3171 135.812 11.6497 136.541 11.168C137.277 10.6862 138.136 10.4453 139.119 10.4453C139.686 10.4453 140.249 10.5397 140.809 10.7285C141.368 10.9173 141.876 11.2233 142.332 11.6465C142.794 12.0697 143.162 12.6296 143.436 13.3262C143.709 14.0228 143.846 14.8789 143.846 15.8945V16.6172H135.428V15.1719H142.938L142.166 15.7188C142.166 14.9896 142.052 14.3418 141.824 13.7754C141.596 13.209 141.255 12.763 140.799 12.4375C140.35 12.112 139.79 11.9492 139.119 11.9492C138.449 11.9492 137.872 12.1152 137.391 12.4473C136.915 12.7728 136.551 13.1992 136.297 13.7266C136.043 14.2539 135.916 14.8203 135.916 15.4258V16.3828C135.916 17.2096 136.059 17.9095 136.346 18.4824C136.632 19.0553 137.033 19.4915 137.547 19.791C138.061 20.084 138.657 20.2305 139.334 20.2305C139.77 20.2305 140.167 20.1686 140.525 20.0449C140.883 19.9147 141.193 19.7227 141.453 19.4688C141.714 19.2083 141.912 18.8893 142.049 18.5117L143.67 18.9805C143.501 19.5273 143.214 20.0091 142.811 20.4258C142.413 20.8359 141.919 21.1582 141.326 21.3926C140.734 21.6204 140.07 21.7344 139.334 21.7344ZM145.428 21.5V10.582H147.029V12.2422H147.146C147.348 11.7018 147.71 11.2656 148.23 10.9336C148.758 10.5951 149.347 10.4258 149.998 10.4258C150.122 10.4258 150.275 10.429 150.457 10.4355C150.639 10.4355 150.779 10.4388 150.877 10.4453V12.1445C150.818 12.1315 150.688 12.112 150.486 12.0859C150.285 12.0599 150.07 12.0469 149.842 12.0469C149.314 12.0469 148.842 12.1576 148.426 12.3789C148.009 12.6003 147.68 12.903 147.439 13.2871C147.205 13.6712 147.088 14.1107 147.088 14.6055V21.5H145.428ZM157.342 10.582V12.0078H151.697V10.582H157.342ZM153.338 7.98438H154.998V18.375C154.998 18.9414 155.115 19.3581 155.35 19.625C155.584 19.8854 155.955 20.0156 156.463 20.0156C156.574 20.0156 156.688 20.0091 156.805 19.9961C156.928 19.9831 157.062 19.9635 157.205 19.9375L157.557 21.4414C157.4 21.5 157.208 21.5456 156.98 21.5781C156.759 21.6172 156.535 21.6367 156.307 21.6367C155.428 21.6367 154.712 21.3763 154.158 20.8555C153.611 20.3346 153.338 19.6576 153.338 18.8242V7.98438Z" fill="black"/>
<line x1="178.25" y1="8.5" x2="178.25" y2="20.5" stroke="#F55252" stroke-width="2"/>
<line x1="190.25" y1="6.5" x2="190.25" y2="22.5" stroke="#F55252" stroke-width="2"/>
<line x1="202.25" y1="5.5" x2="202.25" y2="23.5" stroke="#F55252" stroke-width="2"/>
<line x1="214.25" y1="3.5" x2="214.25" y2="25.5" stroke="#F55252" stroke-width="2"/>
<path d="M234.242 23V5.53906H240.945C242.203 5.53906 243.25 5.73828 244.086 6.13672C244.922 6.52734 245.547 7.06641 245.961 7.75391C246.375 8.43359 246.582 9.20312 246.582 10.0625C246.582 10.7734 246.445 11.3828 246.172 11.8906C245.906 12.3906 245.543 12.7969 245.082 13.1094C244.621 13.4219 244.105 13.6484 243.535 13.7891V13.9648C244.16 13.9883 244.754 14.1758 245.316 14.5273C245.887 14.8711 246.352 15.3555 246.711 15.9805C247.078 16.6055 247.262 17.3594 247.262 18.2422C247.262 19.1484 247.043 19.9609 246.605 20.6797C246.176 21.3906 245.52 21.957 244.637 22.3789C243.762 22.793 242.656 23 241.32 23H234.242ZM237.406 20.3633H240.805C241.953 20.3633 242.781 20.1406 243.289 19.6953C243.805 19.25 244.062 18.6836 244.062 17.9961C244.062 17.4727 243.934 17.0039 243.676 16.5898C243.418 16.1758 243.051 15.8477 242.574 15.6055C242.105 15.3633 241.551 15.2422 240.91 15.2422H237.406V20.3633ZM237.406 12.9688H240.547C241.086 12.9688 241.574 12.8672 242.012 12.6641C242.449 12.4609 242.793 12.1758 243.043 11.8086C243.301 11.4336 243.43 10.9922 243.43 10.4844C243.43 9.8125 243.191 9.25781 242.715 8.82031C242.238 8.375 241.539 8.15234 240.617 8.15234H237.406V12.9688ZM256.719 23.2344C255.195 23.2344 253.824 22.8789 252.605 22.168C251.395 21.457 250.438 20.4336 249.734 19.0977C249.039 17.7617 248.691 16.1562 248.691 14.2812C248.691 12.3984 249.039 10.7891 249.734 9.45312C250.438 8.10938 251.395 7.08203 252.605 6.37109C253.824 5.66016 255.195 5.30469 256.719 5.30469C258.25 5.30469 259.617 5.66016 260.82 6.37109C262.023 7.08203 262.977 8.10938 263.68 9.45312C264.383 10.7891 264.734 12.3984 264.734 14.2812C264.734 16.1562 264.383 17.7617 263.68 19.0977C262.977 20.4336 262.023 21.457 260.82 22.168C259.617 22.8789 258.25 23.2344 256.719 23.2344ZM256.719 20.3984C257.664 20.3984 258.5 20.1641 259.227 19.6953C259.953 19.2266 260.523 18.5391 260.938 17.6328C261.352 16.7188 261.559 15.6016 261.559 14.2812C261.559 12.9531 261.352 11.832 260.938 10.918C260.523 10.0039 259.953 9.3125 259.227 8.84375C258.5 8.375 257.664 8.14062 256.719 8.14062C255.773 8.14062 254.934 8.375 254.199 8.84375C253.473 9.3125 252.902 10.0039 252.488 10.918C252.074 11.832 251.867 12.9531 251.867 14.2812C251.867 15.6016 252.074 16.7188 252.488 17.6328C252.902 18.5391 253.473 19.2266 254.199 19.6953C254.934 20.1641 255.773 20.3984 256.719 20.3984ZM274.414 23.2344C272.891 23.2344 271.52 22.8789 270.301 22.168C269.09 21.457 268.133 20.4336 267.43 19.0977C266.734 17.7617 266.387 16.1562 266.387 14.2812C266.387 12.3984 266.734 10.7891 267.43 9.45312C268.133 8.10938 269.09 7.08203 270.301 6.37109C271.52 5.66016 272.891 5.30469 274.414 5.30469C275.945 5.30469 277.312 5.66016 278.516 6.37109C279.719 7.08203 280.672 8.10938 281.375 9.45312C282.078 10.7891 282.43 12.3984 282.43 14.2812C282.43 16.1562 282.078 17.7617 281.375 19.0977C280.672 20.4336 279.719 21.457 278.516 22.168C277.312 22.8789 275.945 23.2344 274.414 23.2344ZM274.414 20.3984C275.359 20.3984 276.195 20.1641 276.922 19.6953C277.648 19.2266 278.219 18.5391 278.633 17.6328C279.047 16.7188 279.254 15.6016 279.254 14.2812C279.254 12.9531 279.047 11.832 278.633 10.918C278.219 10.0039 277.648 9.3125 276.922 8.84375C276.195 8.375 275.359 8.14062 274.414 8.14062C273.469 8.14062 272.629 8.375 271.895 8.84375C271.168 9.3125 270.598 10.0039 270.184 10.918C269.77 11.832 269.562 12.9531 269.562 14.2812C269.562 15.6016 269.77 16.7188 270.184 17.6328C270.598 18.5391 271.168 19.2266 271.895 19.6953C272.629 20.1641 273.469 20.3984 274.414 20.3984ZM284.516 23V5.53906H287.68V13.5664H287.891L294.711 5.53906H298.566L291.816 13.3789L298.625 23H294.816L289.613 15.5234L287.68 17.8086V23H284.516ZM308.633 23L303.711 5.53906H307.109L310.262 18.3711H310.414L313.777 5.53906H316.883L320.223 18.3828H320.398L323.527 5.53906H326.949L322.016 23H318.887L315.395 10.7656H315.254L311.773 23H308.633ZM331.438 5.53906V23H328.273V5.53906H331.438ZM333.207 8.1875V5.53906H347.129V8.1875H341.738V23H338.609V8.1875H333.207ZM348.898 23V5.53906H352.062V12.9336H360.148V5.53906H363.312V23H360.148V15.5938H352.062V23H348.898ZM381.922 5.53906H385.074V16.9414C385.074 18.1914 384.781 19.293 384.195 20.2461C383.609 21.1914 382.785 21.9336 381.723 22.4727C380.66 23.0039 379.418 23.2695 377.996 23.2695C376.574 23.2695 375.332 23.0039 374.27 22.4727C373.207 21.9336 372.379 21.1914 371.785 20.2461C371.199 19.293 370.906 18.1914 370.906 16.9414V5.53906H374.07V16.6836C374.07 17.418 374.23 18.0664 374.551 18.6289C374.871 19.1914 375.324 19.6367 375.91 19.9648C376.504 20.2852 377.199 20.4453 377.996 20.4453C378.793 20.4453 379.484 20.2852 380.07 19.9648C380.656 19.6367 381.109 19.1914 381.43 18.6289C381.758 18.0664 381.922 17.418 381.922 16.6836V5.53906ZM393.781 23.2695C392.422 23.2695 391.242 23.0586 390.242 22.6367C389.242 22.2148 388.461 21.6016 387.898 20.7969C387.336 19.9844 387.031 19 386.984 17.8438H390.102C390.148 18.4531 390.336 18.9609 390.664 19.3672C390.992 19.7656 391.422 20.0664 391.953 20.2695C392.492 20.4727 393.09 20.5742 393.746 20.5742C394.434 20.5742 395.039 20.4688 395.562 20.2578C396.086 20.0469 396.496 19.7539 396.793 19.3789C397.09 19.0039 397.238 18.5664 397.238 18.0664C397.238 17.6133 397.105 17.2422 396.84 16.9531C396.574 16.6562 396.207 16.4062 395.738 16.2031C395.27 16 394.719 15.8203 394.086 15.6641L392.105 15.1484C390.668 14.7812 389.535 14.2227 388.707 13.4727C387.879 12.7148 387.465 11.707 387.465 10.4492C387.465 9.41797 387.742 8.51953 388.297 7.75391C388.852 6.98047 389.609 6.37891 390.57 5.94922C391.539 5.51953 392.633 5.30469 393.852 5.30469C395.094 5.30469 396.184 5.51953 397.121 5.94922C398.059 6.37891 398.793 6.97266 399.324 7.73047C399.855 8.48828 400.133 9.35938 400.156 10.3438H397.098C397.02 9.59375 396.688 9.01562 396.102 8.60938C395.523 8.19531 394.762 7.98828 393.816 7.98828C393.16 7.98828 392.594 8.08594 392.117 8.28125C391.648 8.47656 391.289 8.74609 391.039 9.08984C390.789 9.43359 390.664 9.82422 390.664 10.2617C390.664 10.7461 390.809 11.1445 391.098 11.457C391.395 11.7617 391.77 12.0078 392.223 12.1953C392.684 12.3828 393.152 12.5391 393.629 12.6641L395.258 13.0742C395.914 13.2305 396.547 13.4414 397.156 13.707C397.766 13.9648 398.312 14.293 398.797 14.6914C399.289 15.082 399.676 15.5586 399.957 16.1211C400.246 16.6836 400.391 17.3438 400.391 18.1016C400.391 19.1172 400.129 20.0156 399.605 20.7969C399.082 21.5703 398.328 22.1758 397.344 22.6133C396.359 23.0508 395.172 23.2695 393.781 23.2695Z" fill="#F55252"/>
<line y1="-1" x2="12" y2="-1" transform="matrix(4.37114e-08 1 1 -4.37114e-08 456.75 8.5)" stroke="#F55252" stroke-width="2"/>
<line y1="-1" x2="16" y2="-1" transform="matrix(4.37114e-08 1 1 -4.37114e-08 444.75 6.5)" stroke="#F55252" stroke-width="2"/>
<line y1="-1" x2="18" y2="-1" transform="matrix(4.37114e-08 1 1 -4.37114e-08 432.75 5.5)" stroke="#F55252" stroke-width="2"/>
<line y1="-1" x2="22" y2="-1" transform="matrix(4.37114e-08 1 1 -4.37114e-08 420.75 3.5)" stroke="#F55252" stroke-width="2"/>
<path d="M477.645 21.5V6.94922H482.566C483.706 6.94922 484.637 7.14453 485.359 7.53516C486.089 7.91927 486.629 8.44987 486.98 9.12695C487.332 9.79753 487.508 10.5625 487.508 11.4219C487.508 12.2747 487.332 13.0332 486.98 13.6973C486.635 14.3613 486.098 14.8822 485.369 15.2598C484.646 15.6309 483.719 15.8164 482.586 15.8164H478.621V14.2344H482.527C483.309 14.2344 483.937 14.1204 484.412 13.8926C484.887 13.6647 485.232 13.3424 485.447 12.9258C485.662 12.5026 485.77 12.0013 485.77 11.4219C485.77 10.8359 485.659 10.3249 485.438 9.88867C485.223 9.45247 484.878 9.11393 484.402 8.87305C483.927 8.63216 483.296 8.51172 482.508 8.51172H479.402V21.5H477.645ZM486.023 21.5L482.508 14.957H484.5L488.074 21.5H486.023ZM493.738 21.7344C492.69 21.7344 491.782 21.5 491.014 21.0312C490.252 20.5625 489.666 19.9082 489.256 19.0684C488.846 18.222 488.641 17.2422 488.641 16.1289C488.641 15.0091 488.842 14.0228 489.246 13.1699C489.65 12.3171 490.216 11.6497 490.945 11.168C491.681 10.6862 492.54 10.4453 493.523 10.4453C494.09 10.4453 494.653 10.5397 495.213 10.7285C495.773 10.9173 496.281 11.2233 496.736 11.6465C497.199 12.0697 497.566 12.6296 497.84 13.3262C498.113 14.0228 498.25 14.8789 498.25 15.8945V16.6172H489.832V15.1719H497.342L496.57 15.7188C496.57 14.9896 496.456 14.3418 496.229 13.7754C496.001 13.209 495.659 12.763 495.203 12.4375C494.754 12.112 494.194 11.9492 493.523 11.9492C492.853 11.9492 492.277 12.1152 491.795 12.4473C491.32 12.7728 490.955 13.1992 490.701 13.7266C490.447 14.2539 490.32 14.8203 490.32 15.4258V16.3828C490.32 17.2096 490.464 17.9095 490.75 18.4824C491.036 19.0553 491.437 19.4915 491.951 19.791C492.465 20.084 493.061 20.2305 493.738 20.2305C494.174 20.2305 494.572 20.1686 494.93 20.0449C495.288 19.9147 495.597 19.7227 495.857 19.4688C496.118 19.2083 496.316 18.8893 496.453 18.5117L498.074 18.9805C497.905 19.5273 497.618 20.0091 497.215 20.4258C496.818 20.8359 496.323 21.1582 495.73 21.3926C495.138 21.6204 494.474 21.7344 493.738 21.7344ZM504.246 21.7344C503.23 21.7344 502.352 21.4935 501.609 21.0117C500.874 20.5234 500.304 19.8561 499.9 19.0098C499.503 18.1634 499.305 17.1966 499.305 16.1094C499.305 14.9961 499.51 14.0163 499.92 13.1699C500.33 12.3171 500.903 11.6497 501.639 11.168C502.381 10.6862 503.243 10.4453 504.227 10.4453C504.995 10.4453 505.685 10.5885 506.297 10.875C506.915 11.1549 507.42 11.5521 507.811 12.0664C508.208 12.5807 508.452 13.1797 508.543 13.8633H506.863C506.779 13.5312 506.626 13.2188 506.404 12.9258C506.183 12.6328 505.89 12.3984 505.525 12.2227C505.167 12.0404 504.741 11.9492 504.246 11.9492C503.595 11.9492 503.025 12.1185 502.537 12.457C502.049 12.7956 501.668 13.2741 501.395 13.8926C501.121 14.5046 500.984 15.224 500.984 16.0508C500.984 16.8906 501.118 17.6263 501.385 18.2578C501.652 18.8828 502.029 19.3678 502.518 19.7129C503.012 20.0579 503.589 20.2305 504.246 20.2305C504.904 20.2305 505.467 20.0612 505.936 19.7227C506.404 19.3776 506.714 18.9089 506.863 18.3164H508.543C508.452 18.9609 508.217 19.5404 507.84 20.0547C507.469 20.569 506.977 20.9792 506.365 21.2852C505.76 21.5846 505.053 21.7344 504.246 21.7344ZM514.695 21.7344C513.647 21.7344 512.739 21.5 511.971 21.0312C511.209 20.5625 510.623 19.9082 510.213 19.0684C509.803 18.222 509.598 17.2422 509.598 16.1289C509.598 15.0091 509.799 14.0228 510.203 13.1699C510.607 12.3171 511.173 11.6497 511.902 11.168C512.638 10.6862 513.497 10.4453 514.48 10.4453C515.047 10.4453 515.61 10.5397 516.17 10.7285C516.73 10.9173 517.238 11.2233 517.693 11.6465C518.156 12.0697 518.523 12.6296 518.797 13.3262C519.07 14.0228 519.207 14.8789 519.207 15.8945V16.6172H510.789V15.1719H518.299L517.527 15.7188C517.527 14.9896 517.413 14.3418 517.186 13.7754C516.958 13.209 516.616 12.763 516.16 12.4375C515.711 12.112 515.151 11.9492 514.48 11.9492C513.81 11.9492 513.234 12.1152 512.752 12.4473C512.277 12.7728 511.912 13.1992 511.658 13.7266C511.404 14.2539 511.277 14.8203 511.277 15.4258V16.3828C511.277 17.2096 511.421 17.9095 511.707 18.4824C511.993 19.0553 512.394 19.4915 512.908 19.791C513.423 20.084 514.018 20.2305 514.695 20.2305C515.132 20.2305 515.529 20.1686 515.887 20.0449C516.245 19.9147 516.554 19.7227 516.814 19.4688C517.075 19.2083 517.273 18.8893 517.41 18.5117L519.031 18.9805C518.862 19.5273 518.576 20.0091 518.172 20.4258C517.775 20.8359 517.28 21.1582 516.688 21.3926C516.095 21.6204 515.431 21.7344 514.695 21.7344ZM520.789 21.5V10.582H522.449V21.5H520.789ZM521.629 8.76562C521.303 8.76562 521.023 8.65495 520.789 8.43359C520.555 8.21224 520.438 7.94531 520.438 7.63281C520.438 7.32031 520.555 7.05339 520.789 6.83203C521.023 6.61068 521.303 6.5 521.629 6.5C521.954 6.5 522.234 6.61068 522.469 6.83203C522.703 7.05339 522.82 7.32031 522.82 7.63281C522.82 7.94531 522.703 8.21224 522.469 8.43359C522.234 8.65495 521.954 8.76562 521.629 8.76562ZM533.504 10.582L529.48 21.5H527.762L523.738 10.582H525.555L528.562 19.293H528.68L531.688 10.582H533.504ZM538.973 21.7344C537.924 21.7344 537.016 21.5 536.248 21.0312C535.486 20.5625 534.9 19.9082 534.49 19.0684C534.08 18.222 533.875 17.2422 533.875 16.1289C533.875 15.0091 534.077 14.0228 534.48 13.1699C534.884 12.3171 535.451 11.6497 536.18 11.168C536.915 10.6862 537.775 10.4453 538.758 10.4453C539.324 10.4453 539.887 10.5397 540.447 10.7285C541.007 10.9173 541.515 11.2233 541.971 11.6465C542.433 12.0697 542.801 12.6296 543.074 13.3262C543.348 14.0228 543.484 14.8789 543.484 15.8945V16.6172H535.066V15.1719H542.576L541.805 15.7188C541.805 14.9896 541.691 14.3418 541.463 13.7754C541.235 13.209 540.893 12.763 540.438 12.4375C539.988 12.112 539.428 11.9492 538.758 11.9492C538.087 11.9492 537.511 12.1152 537.029 12.4473C536.554 12.7728 536.189 13.1992 535.936 13.7266C535.682 14.2539 535.555 14.8203 535.555 15.4258V16.3828C535.555 17.2096 535.698 17.9095 535.984 18.4824C536.271 19.0553 536.671 19.4915 537.186 19.791C537.7 20.084 538.296 20.2305 538.973 20.2305C539.409 20.2305 539.806 20.1686 540.164 20.0449C540.522 19.9147 540.831 19.7227 541.092 19.4688C541.352 19.2083 541.551 18.8893 541.688 18.5117L543.309 18.9805C543.139 19.5273 542.853 20.0091 542.449 20.4258C542.052 20.8359 541.557 21.1582 540.965 21.3926C540.372 21.6204 539.708 21.7344 538.973 21.7344ZM554.461 21.5H550.965V19.9375H554.344C555.548 19.9375 556.544 19.7064 557.332 19.2441C558.126 18.7819 558.719 18.1211 559.109 17.2617C559.5 16.4023 559.695 15.3802 559.695 14.1953C559.695 13.0234 559.503 12.0143 559.119 11.168C558.735 10.3151 558.159 9.66081 557.391 9.20508C556.629 8.74284 555.678 8.51172 554.539 8.51172H550.887V6.94922H554.656C556.069 6.94922 557.277 7.23893 558.279 7.81836C559.288 8.39779 560.06 9.23112 560.594 10.3184C561.128 11.3991 561.395 12.6914 561.395 14.1953C561.395 15.7122 561.124 17.0176 560.584 18.1113C560.044 19.1986 559.256 20.0352 558.221 20.6211C557.192 21.207 555.939 21.5 554.461 21.5ZM551.727 6.94922V21.5H549.969V6.94922H551.727ZM567.762 21.7344C566.714 21.7344 565.805 21.5 565.037 21.0312C564.275 20.5625 563.689 19.9082 563.279 19.0684C562.869 18.222 562.664 17.2422 562.664 16.1289C562.664 15.0091 562.866 14.0228 563.27 13.1699C563.673 12.3171 564.24 11.6497 564.969 11.168C565.704 10.6862 566.564 10.4453 567.547 10.4453C568.113 10.4453 568.676 10.5397 569.236 10.7285C569.796 10.9173 570.304 11.2233 570.76 11.6465C571.222 12.0697 571.59 12.6296 571.863 13.3262C572.137 14.0228 572.273 14.8789 572.273 15.8945V16.6172H563.855V15.1719H571.365L570.594 15.7188C570.594 14.9896 570.48 14.3418 570.252 13.7754C570.024 13.209 569.682 12.763 569.227 12.4375C568.777 12.112 568.217 11.9492 567.547 11.9492C566.876 11.9492 566.3 12.1152 565.818 12.4473C565.343 12.7728 564.979 13.1992 564.725 13.7266C564.471 14.2539 564.344 14.8203 564.344 15.4258V16.3828C564.344 17.2096 564.487 17.9095 564.773 18.4824C565.06 19.0553 565.46 19.4915 565.975 19.791C566.489 20.084 567.085 20.2305 567.762 20.2305C568.198 20.2305 568.595 20.1686 568.953 20.0449C569.311 19.9147 569.62 19.7227 569.881 19.4688C570.141 19.2083 570.34 18.8893 570.477 18.5117L572.098 18.9805C571.928 19.5273 571.642 20.0091 571.238 20.4258C570.841 20.8359 570.346 21.1582 569.754 21.3926C569.161 21.6204 568.497 21.7344 567.762 21.7344ZM581.57 13.043L580.066 13.4531C579.923 13.082 579.676 12.7305 579.324 12.3984C578.979 12.0599 578.439 11.8906 577.703 11.8906C577.039 11.8906 576.486 12.0469 576.043 12.3594C575.6 12.6654 575.379 13.0495 575.379 13.5117C575.379 13.9284 575.529 14.2604 575.828 14.5078C576.134 14.7552 576.609 14.957 577.254 15.1133L578.875 15.5039C579.845 15.7383 580.568 16.0996 581.043 16.5879C581.525 17.0762 581.766 17.6979 581.766 18.4531C581.766 19.0781 581.587 19.638 581.229 20.1328C580.87 20.6276 580.372 21.0182 579.734 21.3047C579.096 21.5911 578.354 21.7344 577.508 21.7344C576.395 21.7344 575.473 21.4902 574.744 21.002C574.021 20.5137 573.562 19.8073 573.367 18.8828L574.949 18.4922C575.099 19.0781 575.385 19.5176 575.809 19.8105C576.238 20.1035 576.798 20.25 577.488 20.25C578.263 20.25 578.882 20.084 579.344 19.752C579.812 19.4134 580.047 19.013 580.047 18.5508C580.047 17.7826 579.507 17.2682 578.426 17.0078L576.609 16.5781C575.607 16.3372 574.871 15.9694 574.402 15.4746C573.934 14.9798 573.699 14.3581 573.699 13.6094C573.699 12.9909 573.872 12.444 574.217 11.9688C574.568 11.4935 575.047 11.1224 575.652 10.8555C576.258 10.582 576.941 10.4453 577.703 10.4453C578.79 10.4453 579.64 10.6862 580.252 11.168C580.87 11.6432 581.31 12.2682 581.57 13.043ZM583.367 21.5V10.582H585.027V21.5H583.367ZM584.207 8.76562C583.882 8.76562 583.602 8.65495 583.367 8.43359C583.133 8.21224 583.016 7.94531 583.016 7.63281C583.016 7.32031 583.133 7.05339 583.367 6.83203C583.602 6.61068 583.882 6.5 584.207 6.5C584.533 6.5 584.812 6.61068 585.047 6.83203C585.281 7.05339 585.398 7.32031 585.398 7.63281C585.398 7.94531 585.281 8.21224 585.047 8.43359C584.812 8.65495 584.533 8.76562 584.207 8.76562ZM591.57 25.8164C590.353 25.8164 589.389 25.5951 588.68 25.1523C587.977 24.7096 587.456 24.2018 587.117 23.6289L588.445 22.6914C588.595 22.8932 588.787 23.1211 589.021 23.375C589.256 23.6354 589.575 23.86 589.979 24.0488C590.382 24.2376 590.913 24.332 591.57 24.332C592.449 24.332 593.175 24.1204 593.748 23.6973C594.327 23.2741 594.617 22.6068 594.617 21.6953V19.4883H594.461C594.344 19.6836 594.171 19.9277 593.943 20.2207C593.722 20.5072 593.4 20.7643 592.977 20.9922C592.56 21.2135 591.993 21.3242 591.277 21.3242C590.398 21.3242 589.611 21.1159 588.914 20.6992C588.217 20.2826 587.664 19.6771 587.254 18.8828C586.85 18.0885 586.648 17.125 586.648 15.9922C586.648 14.8724 586.844 13.8991 587.234 13.0723C587.632 12.2389 588.182 11.5944 588.885 11.1387C589.588 10.6764 590.398 10.4453 591.316 10.4453C592.026 10.4453 592.589 10.5625 593.006 10.7969C593.429 11.0312 593.751 11.2982 593.973 11.5977C594.201 11.8906 594.376 12.1315 594.5 12.3203H594.676V10.582H596.277V21.8125C596.277 22.75 596.066 23.5117 595.643 24.0977C595.226 24.6901 594.66 25.123 593.943 25.3965C593.234 25.6764 592.443 25.8164 591.57 25.8164ZM591.512 19.8203C592.521 19.8203 593.292 19.4785 593.826 18.7949C594.367 18.1113 594.637 17.1641 594.637 15.9531C594.637 15.1654 594.52 14.472 594.285 13.873C594.051 13.2741 593.699 12.8053 593.23 12.4668C592.768 12.1217 592.195 11.9492 591.512 11.9492C590.802 11.9492 590.21 12.1315 589.734 12.4961C589.266 12.8542 588.914 13.3359 588.68 13.9414C588.445 14.5469 588.328 15.2174 588.328 15.9531C588.328 16.7083 588.445 17.3789 588.68 17.9648C588.921 18.5443 589.279 19 589.754 19.332C590.229 19.6576 590.815 19.8203 591.512 19.8203ZM600.086 14.9375V21.5H598.426V10.582H600.027V12.3008H600.184C600.438 11.7409 600.825 11.2917 601.346 10.9531C601.867 10.6146 602.54 10.4453 603.367 10.4453C604.103 10.4453 604.747 10.5951 605.301 10.8945C605.854 11.194 606.284 11.6497 606.59 12.2617C606.902 12.8672 607.059 13.6354 607.059 14.5664V21.5H605.398V14.6836C605.398 13.8307 605.174 13.1634 604.725 12.6816C604.275 12.1934 603.663 11.9492 602.889 11.9492C602.355 11.9492 601.876 12.0664 601.453 12.3008C601.03 12.5352 600.695 12.8737 600.447 13.3164C600.206 13.7591 600.086 14.2995 600.086 14.9375ZM616.922 13.043L615.418 13.4531C615.275 13.082 615.027 12.7305 614.676 12.3984C614.331 12.0599 613.79 11.8906 613.055 11.8906C612.391 11.8906 611.837 12.0469 611.395 12.3594C610.952 12.6654 610.73 13.0495 610.73 13.5117C610.73 13.9284 610.88 14.2604 611.18 14.5078C611.486 14.7552 611.961 14.957 612.605 15.1133L614.227 15.5039C615.197 15.7383 615.919 16.0996 616.395 16.5879C616.876 17.0762 617.117 17.6979 617.117 18.4531C617.117 19.0781 616.938 19.638 616.58 20.1328C616.222 20.6276 615.724 21.0182 615.086 21.3047C614.448 21.5911 613.706 21.7344 612.859 21.7344C611.746 21.7344 610.825 21.4902 610.096 21.002C609.373 20.5137 608.914 19.8073 608.719 18.8828L610.301 18.4922C610.451 19.0781 610.737 19.5176 611.16 19.8105C611.59 20.1035 612.15 20.25 612.84 20.25C613.615 20.25 614.233 20.084 614.695 19.752C615.164 19.4134 615.398 19.013 615.398 18.5508C615.398 17.7826 614.858 17.2682 613.777 17.0078L611.961 16.5781C610.958 16.3372 610.223 15.9694 609.754 15.4746C609.285 14.9798 609.051 14.3581 609.051 13.6094C609.051 12.9909 609.223 12.444 609.568 11.9688C609.92 11.4935 610.398 11.1224 611.004 10.8555C611.609 10.582 612.293 10.4453 613.055 10.4453C614.142 10.4453 614.992 10.6862 615.604 11.168C616.222 11.6432 616.661 12.2682 616.922 13.043Z" fill="black"/>
</g>
<defs>
<linearGradient id="paint0_linear_400_7" x1="0" y1="17" x2="634" y2="17" gradientUnits="userSpaceOnUse">
<stop stop-color="#D9D9D9" stop-opacity="0"/>
<stop offset="0.288251" stop-color="#BDBDBD"/>
<stop offset="0.528575" stop-color="#A6A6A6"/>
<stop offset="0.740061" stop-color="#8F8F8F"/>
<stop offset="1" stop-color="#737373" stop-opacity="0"/>
</linearGradient>
</defs>
</svg>
